<svg width="840" height="400" viewBox="0 0 840 400" fill="none" xmlns="http://www.w3.org/2000/svg">
<path d="M120 105.688C120 104.65 119.106 103.812 118 103.812C116.894 103.812 116 104.65 116 105.688V114.125H107C105.894 114.125 105 114.963 105 116C105 117.037 105.894 117.875 107 117.875H116V126.312C116 127.35 116.894 128.188 118 128.188C119.106 128.188 120 127.35 120 126.312V117.875H129C130.106 117.875 131 117.037 131 116C131 114.963 130.106 114.125 129 114.125H120V105.688Z" fill="#0052CC"/>
<g filter="url(#filter0_f_873_46)">
<rect x="100" y="100" width="36" height="32" fill="#0052CC"/>
</g>
<path d="M749.714 301.281C749.714 300.555 749.076 299.969 748.286 299.969C747.496 299.969 746.857 300.555 746.857 301.281V307.188H740.429C739.638 307.188 739 307.774 739 308.5C739 309.226 739.638 309.812 740.429 309.812H746.857V315.719C746.857 316.445 747.496 317.031 748.286 317.031C749.076 317.031 749.714 316.445 749.714 315.719V309.812H756.143C756.933 309.812 757.571 309.226 757.571 308.5C757.571 307.774 756.933 307.188 756.143 307.188H749.714V301.281Z" fill="#0052CC"/>
<g filter="url(#filter1_f_873_46)">
<path d="M738 298H760V320H738V298Z" fill="#0052CC"/>
</g>
<g clip-path="url(#clip0_873_46)">
<path d="M683.357 98.5625C683.357 98.2168 683.038 97.9375 682.643 97.9375C682.248 97.9375 681.929 98.2168 681.929 98.5625V101.375H678.714C678.319 101.375 678 101.654 678 102C678 102.346 678.319 102.625 678.714 102.625H681.929V105.438C681.929 105.783 682.248 106.062 682.643 106.062C683.038 106.062 683.357 105.783 683.357 105.438V102.625H686.571C686.967 102.625 687.286 102.346 687.286 102C687.286 101.654 686.967 101.375 686.571 101.375H683.357V98.5625Z" fill="#0052CC"/>
</g>
<g filter="url(#filter2_f_873_46)">
<path d="M675 95H690V110H675V95Z" fill="#0052CC"/>
</g>
<defs>
<filter id="filter0_f_873_46" x="0" y="0" width="236" height="232" filterUnits="userSpaceOnUse" color-interpolation-filters="sRGB">
<feFlood flood-opacity="0" result="BackgroundImageFix"/>
<feBlend mode="normal" in="SourceGraphic" in2="BackgroundImageFix" result="shape"/>
<feGaussianBlur stdDeviation="50" result="effect1_foregroundBlur_873_46"/>
</filter>
<filter id="filter1_f_873_46" x="658" y="218" width="182" height="182" filterUnits="userSpaceOnUse" color-interpolation-filters="sRGB">
<feFlood flood-opacity="0" result="BackgroundImageFix"/>
<feBlend mode="normal" in="SourceGraphic" in2="BackgroundImageFix" result="shape"/>
<feGaussianBlur stdDeviation="40" result="effect1_foregroundBlur_873_46"/>
</filter>
<filter id="filter2_f_873_46" x="625" y="45" width="115" height="115" filterUnits="userSpaceOnUse" color-interpolation-filters="sRGB">
<feFlood flood-opacity="0" result="BackgroundImageFix"/>
<feBlend mode="normal" in="SourceGraphic" in2="BackgroundImageFix" result="shape"/>
<feGaussianBlur stdDeviation="25" result="effect1_foregroundBlur_873_46"/>
</filter>
<clipPath id="clip0_873_46">
<rect width="10" height="10" fill="white" transform="translate(678 97)"/>
</clipPath>
</defs>
</svg>
