<svg width="145" height="155" viewBox="0 0 145 155" fill="none" xmlns="http://www.w3.org/2000/svg">
<path d="M130.411 39.6538V137.47C130.408 138.759 129.871 139.994 128.916 140.905C127.961 141.816 126.667 142.329 125.317 142.332H15.0528C13.7027 142.329 12.4088 141.816 11.4542 140.905C10.4996 139.994 9.96195 138.759 9.95898 137.47V39.6538C9.95991 38.3645 10.4969 37.1283 11.4519 36.2166C12.407 35.305 13.7021 34.7925 15.0528 34.7916H125.317C126.668 34.7924 127.963 35.305 128.918 36.2166C129.873 37.1283 130.41 38.3645 130.411 39.6538Z" fill="#0052CC"/>
<path d="M66.9718 4.174C74.9797 10.7901 72.4511 26.1013 72.4511 26.1013C72.4511 26.1013 56.9392 30.6857 48.9313 24.0696C40.9235 17.4535 43.4521 2.14236 43.4521 2.14236C43.4521 2.14236 58.9639 -2.44206 66.9718 4.174Z" fill="#639FFA"/>
<path d="M93.5721 22.8016C86.666 30.4661 70.618 28.1003 70.618 28.1003C70.618 28.1003 65.7668 13.3078 72.6728 5.64336C79.5788 -2.0211 95.6271 0.344684 95.6271 0.344684C95.6271 0.344684 100.478 15.1371 93.5721 22.8016Z" fill="#639FFA"/>
<path opacity="0.2" d="M130.411 39.6538V56.1223L9.95898 55.6361V39.6538C9.95991 38.3645 10.4969 37.1283 11.4519 36.2166C12.407 35.305 13.7021 34.7925 15.0527 34.7916H125.317C126.668 34.7924 127.963 35.3049 128.918 36.2166C129.873 37.1282 130.41 38.3645 130.411 39.6538Z" fill="black"/>
<path d="M143.377 49.666C142.9 50.2642 142.284 50.7486 141.578 51.0809C140.872 51.4133 140.094 51.5846 139.307 51.5813L5.07249 51.0439C4.40358 51.0412 3.74177 50.9128 3.12484 50.666C2.50792 50.4192 1.94792 50.0588 1.4769 49.6054C1.00588 49.152 0.63304 48.6145 0.379639 48.0236C0.126237 47.4327 -0.00274914 46.7999 4.44238e-05 46.1614L0.0629795 31.8608C0.0685316 30.5715 0.610404 29.3371 1.56941 28.4292C2.52841 27.5213 3.82599 27.0142 5.17668 27.0195H5.17821L139.412 27.5566C140.081 27.5593 140.743 27.6877 141.36 27.9345C141.977 28.1813 142.536 28.5416 143.007 28.995C143.478 29.4484 143.851 29.9859 144.105 30.5768C144.358 31.1678 144.487 31.8005 144.484 32.439L144.421 46.7397C144.418 47.7979 144.051 48.826 143.377 49.666Z" fill="#0052CC"/>
<path d="M57.6188 26.0874L57.5107 51.8282L83.2789 51.9268L83.387 26.1859L57.6188 26.0874Z" fill="#639FFA"/>
<path d="M71.48 125.2C66.6267 125.2 62.12 124.693 57.96 123.68C53.8 122.667 50.44 121.253 47.88 119.44C46.8133 118.693 46.28 117.973 46.28 117.28C46.28 116.8 46.4667 116.293 46.84 115.76L51.48 108.48C51.96 107.787 52.44 107.44 52.92 107.44C53.3467 107.44 53.8533 107.627 54.44 108C56.36 109.173 58.5467 110.107 61 110.8C63.5067 111.44 65.9333 111.76 68.28 111.76C70.2533 111.76 71.6667 111.493 72.52 110.96C73.4267 110.427 73.88 109.6 73.88 108.48C73.88 107.253 73.2933 106.267 72.12 105.52C70.9467 104.773 68.92 103.84 66.04 102.72C60.6533 100.64 56.4133 98.2933 53.32 95.68C50.2267 93.0133 48.68 89.4933 48.68 85.12C48.68 79.5733 50.6 75.4133 54.44 72.64C58.3333 69.8133 63.56 68.4 70.12 68.4C74.7067 68.4 78.6 68.8 81.8 69.6C85.0533 70.4 87.88 71.6533 90.28 73.36C91.3467 74.1067 91.88 74.8267 91.88 75.52C91.88 76 91.6933 76.5067 91.32 77.04L86.68 84.32C86.2 85.0667 85.72 85.44 85.24 85.44C84.92 85.44 84.4133 85.2267 83.72 84.8C82.44 83.9467 80.92 83.2533 79.16 82.72C77.4 82.1333 75.5067 81.84 73.48 81.84C71.6133 81.84 70.2 82.1067 69.24 82.64C68.28 83.1733 67.8 84.0267 67.8 85.2C67.8 86.16 68.12 86.96 68.76 87.6C69.4533 88.24 70.3067 88.8 71.32 89.28C72.3333 89.7067 74.0933 90.4267 76.6 91.44C80.6 93.04 83.7467 94.5867 86.04 96.08C88.3333 97.52 90.0667 99.28 91.24 101.36C92.4133 103.387 93 105.973 93 109.12C93 113.92 91.1867 117.813 87.56 120.8C83.9867 123.733 78.6267 125.2 71.48 125.2Z" fill="white"/>
</svg>
