<svg width="145" height="143" viewBox="0 0 145 143" fill="none" xmlns="http://www.w3.org/2000/svg">
<path d="M130.411 39.6538V137.47C130.408 138.759 129.871 139.994 128.916 140.905C127.961 141.816 126.667 142.329 125.317 142.332H15.0528C13.7027 142.329 12.4088 141.816 11.4542 140.905C10.4996 139.994 9.96195 138.759 9.95898 137.47V39.6538C9.95991 38.3645 10.4969 37.1283 11.4519 36.2166C12.407 35.305 13.7021 34.7925 15.0528 34.7916H125.317C126.668 34.7924 127.963 35.305 128.918 36.2166C129.873 37.1283 130.41 38.3645 130.411 39.6538Z" fill="#0052CC"/>
<path d="M66.9718 4.17397C74.9797 10.79 72.4511 26.1012 72.4511 26.1012C72.4511 26.1012 56.9392 30.6857 48.9313 24.0696C40.9235 17.4535 43.4521 2.14233 43.4521 2.14233C43.4521 2.14233 58.9639 -2.44209 66.9718 4.17397Z" fill="#639FFA"/>
<path d="M93.5721 22.8016C86.666 30.4661 70.618 28.1003 70.618 28.1003C70.618 28.1003 65.7668 13.3078 72.6728 5.64336C79.5788 -2.0211 95.6271 0.344684 95.6271 0.344684C95.6271 0.344684 100.478 15.1371 93.5721 22.8016Z" fill="#639FFA"/>
<path opacity="0.2" d="M130.411 39.6538V56.1223L9.95898 55.6361V39.6538C9.95991 38.3645 10.4969 37.1283 11.4519 36.2166C12.407 35.305 13.7021 34.7925 15.0527 34.7916H125.317C126.668 34.7924 127.963 35.3049 128.918 36.2166C129.873 37.1282 130.41 38.3645 130.411 39.6538Z" fill="black"/>
<path d="M143.377 49.6661C142.9 50.2643 142.284 50.7486 141.578 51.081C140.872 51.4133 140.094 51.5846 139.307 51.5814L5.07249 51.0439C4.40358 51.0412 3.74177 50.9129 3.12484 50.666C2.50792 50.4192 1.94792 50.0588 1.4769 49.6054C1.00588 49.1521 0.63304 48.6146 0.379639 48.0236C0.126237 47.4327 -0.00274914 46.8 4.44238e-05 46.1615L0.0629795 31.8608C0.0685316 30.5715 0.610404 29.3371 1.56941 28.4292C2.52841 27.5213 3.82599 27.0142 5.17668 27.0195H5.17821L139.412 27.5566C140.081 27.5593 140.743 27.6877 141.36 27.9345C141.977 28.1813 142.536 28.5417 143.007 28.995C143.478 29.4484 143.851 29.9859 144.105 30.5769C144.358 31.1678 144.487 31.8006 144.484 32.4391L144.421 46.7397C144.418 47.798 144.051 48.826 143.377 49.6661Z" fill="#0052CC"/>
<path d="M57.6188 26.0874L57.5107 51.8282L83.2789 51.9268L83.387 26.1859L57.6188 26.0874Z" fill="#639FFA"/>
</svg>
