<svg width="151" height="138" viewBox="0 0 151 138" fill="none" xmlns="http://www.w3.org/2000/svg">
<path d="M101.912 134.142H4.5C3.30695 134.141 2.16317 133.689 1.31956 132.885C0.475939 132.081 0.00137594 130.992 0 129.855V43.6113C0.00137594 42.4747 0.475939 41.3851 1.31956 40.5814C2.16317 39.7777 3.30695 39.3256 4.5 39.3243H101.912C103.105 39.3256 104.249 39.7777 105.092 40.5814C105.936 41.3851 106.41 42.4747 106.412 43.6113V129.855C106.41 130.992 105.936 132.081 105.092 132.885C104.249 133.689 103.105 134.141 101.912 134.142Z" fill="#0052CC"/>
<path d="M60.087 137.17H46.3223C45.1292 137.169 43.9854 136.717 43.1418 135.913C42.2982 135.11 41.8236 134.02 41.8223 132.883V41.0492C41.8236 39.9126 42.2982 38.823 43.1418 38.0193C43.9854 37.2156 45.1292 36.7635 46.3223 36.7622H60.087C61.28 36.7635 62.4238 37.2156 63.2675 38.0193C64.1111 38.823 64.5856 39.9126 64.587 41.0492V132.883C64.5856 134.02 64.1111 135.11 63.2675 135.913C62.4238 136.717 61.28 137.169 60.087 137.17Z" fill="#639FFA"/>
<path d="M127.79 30.7871C127.221 39.684 114.606 46.1908 114.606 46.1908C114.606 46.1908 102.913 38.2729 103.482 29.376C104.051 20.479 116.666 13.9722 116.666 13.9722C116.666 13.9722 128.359 21.8902 127.79 30.7871Z" fill="#639FFA"/>
<path d="M128.364 58.5461C119.023 58.0317 112.153 46.034 112.153 46.034C112.153 46.034 120.428 34.8702 129.769 35.3846C139.11 35.899 145.979 47.8967 145.979 47.8967C145.979 47.8967 137.704 59.0605 128.364 58.5461Z" fill="#639FFA"/>
<path opacity="0.1" d="M106.146 49.8754V82.7994L71.7715 39.5766H97.9562L106.146 49.8754Z" fill="black"/>
<path d="M135.33 106.234C134.634 106.235 133.948 106.083 133.325 105.789C132.701 105.494 132.158 105.066 131.738 104.538L60.1223 14.4905C59.7654 14.0418 59.5048 13.5305 59.3553 12.9858C59.2058 12.4411 59.1704 11.8738 59.2511 11.3161C59.3318 10.7584 59.527 10.2213 59.8256 9.73543C60.1242 9.24961 60.5203 8.82455 60.9914 8.48456L71.5408 0.870057C72.0118 0.530033 72.5485 0.281748 73.1203 0.139358C73.692 -0.00303125 74.2876 -0.0367247 74.873 0.040206C75.4584 0.117137 76.0222 0.30318 76.5321 0.587714C77.042 0.872249 77.4881 1.24969 77.8449 1.69849L149.461 91.7452C149.818 92.1939 150.078 92.7052 150.228 93.2499C150.377 93.7946 150.413 94.3619 150.332 94.9196C150.251 95.4773 150.056 96.0144 149.757 96.5003C149.459 96.9861 149.063 97.4111 148.592 97.7511L138.042 105.366C137.262 105.93 136.309 106.235 135.33 106.234Z" fill="#0052CC"/>
<path d="M106.662 36.2637L88.5176 49.3606L102.265 66.6464L120.41 53.5495L106.662 36.2637Z" fill="#639FFA"/>
</svg>
