<svg width="436" height="294" viewBox="0 0 436 294" fill="none" xmlns="http://www.w3.org/2000/svg">
<rect width="436" height="294" rx="24" fill="#171E25"/>
<rect x="127" y="223" width="182" height="43" rx="21.5" fill="#0052CC"/>
<path d="M187.012 250.24C186.254 250.24 185.508 250.16 184.772 250C184.046 249.829 183.465 249.595 183.028 249.296C182.889 249.2 182.82 249.115 182.82 249.04C182.82 248.965 182.841 248.901 182.884 248.848L183.412 248.016C183.476 247.92 183.534 247.872 183.588 247.872C183.641 247.872 183.71 247.899 183.796 247.952C184.19 248.187 184.649 248.379 185.172 248.528C185.694 248.667 186.222 248.736 186.756 248.736C187.481 248.736 188.025 248.619 188.388 248.384C188.761 248.139 188.948 247.749 188.948 247.216C188.948 246.896 188.878 246.64 188.74 246.448C188.601 246.256 188.398 246.091 188.132 245.952C187.865 245.813 187.433 245.627 186.836 245.392L186.468 245.248C185.774 244.971 185.198 244.704 184.74 244.448C184.292 244.192 183.918 243.856 183.62 243.44C183.321 243.024 183.172 242.517 183.172 241.92C183.172 240.949 183.54 240.203 184.276 239.68C185.022 239.147 185.998 238.88 187.204 238.88C187.94 238.88 188.574 238.949 189.108 239.088C189.652 239.227 190.121 239.44 190.516 239.728C190.644 239.824 190.708 239.915 190.708 240C190.708 240.064 190.686 240.123 190.644 240.176L190.132 241.008C190.068 241.104 190.014 241.152 189.972 241.152C189.929 241.152 189.86 241.12 189.764 241.056C189.081 240.619 188.233 240.4 187.22 240.4C186.548 240.4 186.041 240.523 185.7 240.768C185.358 241.013 185.188 241.403 185.188 241.936C185.188 242.267 185.257 242.533 185.396 242.736C185.545 242.928 185.758 243.093 186.036 243.232C186.313 243.371 186.761 243.557 187.38 243.792L187.78 243.952C188.558 244.261 189.166 244.549 189.604 244.816C190.041 245.072 190.377 245.397 190.612 245.792C190.857 246.176 190.98 246.672 190.98 247.28C190.98 248.197 190.633 248.923 189.94 249.456C189.257 249.979 188.281 250.24 187.012 250.24ZM197.698 250.24C195.938 250.24 194.583 249.744 193.634 248.752C192.695 247.76 192.226 246.363 192.226 244.56C192.226 242.757 192.695 241.36 193.634 240.368C194.583 239.376 195.938 238.88 197.698 238.88C199.447 238.88 200.796 239.376 201.746 240.368C202.695 241.36 203.17 242.757 203.17 244.56C203.17 246.363 202.695 247.76 201.746 248.752C200.796 249.744 199.447 250.24 197.698 250.24ZM197.698 248.736C198.818 248.736 199.671 248.384 200.258 247.68C200.844 246.965 201.138 245.925 201.138 244.56C201.138 243.195 200.844 242.16 200.258 241.456C199.671 240.752 198.818 240.4 197.698 240.4C196.578 240.4 195.719 240.752 195.122 241.456C194.535 242.16 194.242 243.195 194.242 244.56C194.242 245.925 194.535 246.965 195.122 247.68C195.719 248.384 196.578 248.736 197.698 248.736ZM205.325 250C205.112 250 204.957 249.952 204.861 249.856C204.776 249.76 204.733 249.616 204.733 249.424V239.712C204.733 239.509 204.776 239.36 204.861 239.264C204.957 239.168 205.112 239.12 205.325 239.12H209.501C210.738 239.12 211.677 239.408 212.317 239.984C212.968 240.56 213.293 241.413 213.293 242.544C213.293 243.291 213.117 243.931 212.765 244.464C212.413 244.987 211.901 245.381 211.229 245.648L213.005 249.584C213.037 249.648 213.053 249.707 213.053 249.76C213.053 249.92 212.957 250 212.765 250H211.453C211.314 250 211.213 249.984 211.149 249.952C211.085 249.909 211.026 249.829 210.973 249.712L209.357 245.92H206.781V249.424C206.781 249.616 206.733 249.76 206.637 249.856C206.552 249.952 206.397 250 206.173 250H205.325ZM209.085 244.384C209.832 244.384 210.381 244.24 210.733 243.952C211.085 243.664 211.261 243.195 211.261 242.544C211.261 241.904 211.101 241.435 210.781 241.136C210.461 240.837 209.976 240.688 209.325 240.688H206.781V244.384H209.085ZM217.624 250C217.41 250 217.256 249.952 217.16 249.856C217.064 249.76 217.016 249.616 217.016 249.424V240.688H214.216C214.002 240.688 213.853 240.645 213.768 240.56C213.693 240.475 213.656 240.331 213.656 240.128V239.696C213.656 239.493 213.693 239.349 213.768 239.264C213.853 239.168 214.002 239.12 214.216 239.12H221.864C222.077 239.12 222.226 239.168 222.312 239.264C222.397 239.349 222.44 239.493 222.44 239.696V240.128C222.44 240.331 222.397 240.475 222.312 240.56C222.226 240.645 222.077 240.688 221.864 240.688H219.064V249.424C219.064 249.616 219.016 249.76 218.92 249.856C218.834 249.952 218.68 250 218.456 250H217.624ZM224.278 250C224.065 250 223.91 249.952 223.814 249.856C223.729 249.76 223.686 249.616 223.686 249.424V239.712C223.686 239.509 223.729 239.36 223.814 239.264C223.91 239.168 224.065 239.12 224.278 239.12H230.934C231.148 239.12 231.292 239.163 231.366 239.248C231.452 239.333 231.494 239.477 231.494 239.68V240.112C231.494 240.315 231.452 240.464 231.366 240.56C231.292 240.645 231.148 240.688 230.934 240.688H225.734V243.792H229.51C229.724 243.792 229.873 243.835 229.958 243.92C230.044 244.005 230.086 244.149 230.086 244.352V244.752C230.086 244.955 230.044 245.104 229.958 245.2C229.873 245.285 229.724 245.328 229.51 245.328H225.734V248.448H230.918C231.132 248.448 231.281 248.496 231.366 248.592C231.452 248.677 231.494 248.821 231.494 249.024V249.456C231.494 249.648 231.452 249.787 231.366 249.872C231.281 249.957 231.132 250 230.918 250H224.278ZM232.857 250C232.676 250 232.585 249.92 232.585 249.76C232.585 249.696 232.601 249.627 232.633 249.552L236.857 239.536C236.921 239.376 236.99 239.269 237.065 239.216C237.14 239.152 237.246 239.12 237.385 239.12H238.265C238.414 239.12 238.521 239.152 238.585 239.216C238.66 239.269 238.729 239.376 238.793 239.536L243.017 249.552C243.049 249.627 243.065 249.696 243.065 249.76C243.065 249.92 242.974 250 242.793 250H241.401C241.262 250 241.161 249.984 241.097 249.952C241.044 249.909 240.99 249.829 240.937 249.712L240.025 247.472H235.609L234.713 249.712C234.66 249.829 234.601 249.909 234.537 249.952C234.484 249.984 234.388 250 234.249 250H232.857ZM239.513 245.984L237.817 241.792L236.121 245.984H239.513ZM245.231 250C245.018 250 244.863 249.952 244.767 249.856C244.682 249.76 244.639 249.616 244.639 249.424V239.712C244.639 239.509 244.682 239.36 244.767 239.264C244.863 239.168 245.018 239.12 245.231 239.12H249.407C250.645 239.12 251.583 239.408 252.223 239.984C252.874 240.56 253.199 241.413 253.199 242.544C253.199 243.291 253.023 243.931 252.671 244.464C252.319 244.987 251.807 245.381 251.135 245.648L252.911 249.584C252.943 249.648 252.959 249.707 252.959 249.76C252.959 249.92 252.863 250 252.671 250H251.359C251.221 250 251.119 249.984 251.055 249.952C250.991 249.909 250.933 249.829 250.879 249.712L249.263 245.92H246.687V249.424C246.687 249.616 246.639 249.76 246.543 249.856C246.458 249.952 246.303 250 246.079 250H245.231ZM248.991 244.384C249.738 244.384 250.287 244.24 250.639 243.952C250.991 243.664 251.167 243.195 251.167 242.544C251.167 241.904 251.007 241.435 250.687 241.136C250.367 240.837 249.882 240.688 249.231 240.688H246.687V244.384H248.991Z" fill="white"/>
<rect x="33" y="75" width="101" height="42" rx="7" fill="#273038"/>
<rect x="149" y="75" width="101" height="42" rx="7" fill="#273038"/>
<rect x="263" y="75" width="101" height="42" rx="7" fill="#273038"/>
<rect x="33" y="131" width="101" height="42" rx="7" fill="#273038"/>
<path d="M40.248 47.36C39.112 47.36 37.992 47.24 36.888 47C35.8 46.744 34.928 46.392 34.272 45.944C34.064 45.8 33.96 45.672 33.96 45.56C33.96 45.448 33.992 45.352 34.056 45.272L34.848 44.024C34.944 43.88 35.032 43.808 35.112 43.808C35.192 43.808 35.296 43.848 35.424 43.928C36.016 44.28 36.704 44.568 37.488 44.792C38.272 45 39.064 45.104 39.864 45.104C40.952 45.104 41.768 44.928 42.312 44.576C42.872 44.208 43.152 43.624 43.152 42.824C43.152 42.344 43.048 41.96 42.84 41.672C42.632 41.384 42.328 41.136 41.928 40.928C41.528 40.72 40.88 40.44 39.984 40.088L39.432 39.872C38.392 39.456 37.528 39.056 36.84 38.672C36.168 38.288 35.608 37.784 35.16 37.16C34.712 36.536 34.488 35.776 34.488 34.88C34.488 33.424 35.04 32.304 36.144 31.52C37.264 30.72 38.728 30.32 40.536 30.32C41.64 30.32 42.592 30.424 43.392 30.632C44.208 30.84 44.912 31.16 45.504 31.592C45.696 31.736 45.792 31.872 45.792 32C45.792 32.096 45.76 32.184 45.696 32.264L44.928 33.512C44.832 33.656 44.752 33.728 44.688 33.728C44.624 33.728 44.52 33.68 44.376 33.584C43.352 32.928 42.08 32.6 40.56 32.6C39.552 32.6 38.792 32.784 38.28 33.152C37.768 33.52 37.512 34.104 37.512 34.904C37.512 35.4 37.616 35.8 37.824 36.104C38.048 36.392 38.368 36.64 38.784 36.848C39.2 37.056 39.872 37.336 40.8 37.688L41.4 37.928C42.568 38.392 43.48 38.824 44.136 39.224C44.792 39.608 45.296 40.096 45.648 40.688C46.016 41.264 46.2 42.008 46.2 42.92C46.2 44.296 45.68 45.384 44.64 46.184C43.616 46.968 42.152 47.36 40.248 47.36ZM54.2213 47.36C52.1413 47.36 50.5333 46.816 49.3973 45.728C48.2773 44.624 47.7173 43.128 47.7173 41.24C47.7173 39.352 48.2773 37.864 49.3973 36.776C50.5333 35.672 52.1413 35.12 54.2213 35.12C56.3013 35.12 57.9093 35.672 59.0453 36.776C60.1813 37.864 60.7493 39.352 60.7493 41.24C60.7493 43.128 60.1813 44.624 59.0453 45.728C57.9093 46.816 56.3013 47.36 54.2213 47.36ZM54.2213 45.104C55.3573 45.104 56.2213 44.776 56.8133 44.12C57.4053 43.464 57.7013 42.504 57.7013 41.24C57.7013 39.992 57.4053 39.048 56.8133 38.408C56.2213 37.752 55.3573 37.424 54.2213 37.424C53.1013 37.424 52.2373 37.752 51.6293 38.408C51.0373 39.048 50.7413 39.992 50.7413 41.24C50.7413 42.488 51.0373 43.448 51.6293 44.12C52.2373 44.776 53.1013 45.104 54.2213 45.104ZM64.0155 47C63.6955 47 63.4635 46.928 63.3195 46.784C63.1755 46.64 63.1035 46.424 63.1035 46.136V36.128C63.1035 35.888 63.1435 35.72 63.2235 35.624C63.3035 35.528 63.4715 35.48 63.7275 35.48H65.0955C65.2715 35.48 65.3995 35.52 65.4795 35.6C65.5595 35.664 65.6075 35.784 65.6235 35.96L65.6955 36.824C66.6395 35.688 67.8795 35.12 69.4155 35.12C70.1195 35.12 70.6555 35.24 71.0235 35.48C71.1195 35.544 71.1755 35.616 71.1915 35.696C71.2235 35.76 71.2235 35.84 71.1915 35.936L70.7595 37.376C70.7115 37.536 70.6235 37.616 70.4955 37.616L70.3035 37.568C69.9195 37.392 69.4795 37.304 68.9835 37.304C68.1675 37.304 67.4955 37.536 66.9675 38C66.4395 38.448 66.1755 39.064 66.1755 39.848V46.136C66.1755 46.424 66.1035 46.64 65.9595 46.784C65.8315 46.928 65.5995 47 65.2635 47H64.0155ZM78.3919 47.36C77.0319 47.36 76.0079 46.984 75.3199 46.232C74.6319 45.48 74.2879 44.44 74.2879 43.112V37.736H72.9199C72.5999 37.736 72.3839 37.68 72.2719 37.568C72.1759 37.456 72.1279 37.248 72.1279 36.944V36.296C72.1279 35.992 72.1759 35.784 72.2719 35.672C72.3839 35.544 72.5999 35.48 72.9199 35.48H74.2879V34.16C74.2879 33.824 74.3439 33.512 74.4559 33.224C74.5839 32.92 74.7759 32.544 75.0319 32.096C75.1279 31.904 75.2159 31.784 75.2959 31.736C75.3919 31.672 75.5519 31.64 75.7759 31.64H76.5679C76.8559 31.64 77.0559 31.712 77.1679 31.856C77.2959 31.984 77.3599 32.184 77.3599 32.456V35.48H80.1919C80.5119 35.48 80.7199 35.544 80.8159 35.672C80.9279 35.784 80.9839 35.992 80.9839 36.296V36.944C80.9839 37.248 80.9279 37.456 80.8159 37.568C80.7199 37.68 80.5119 37.736 80.1919 37.736H77.3599V43.016C77.3599 43.752 77.4879 44.288 77.7439 44.624C77.9999 44.944 78.4399 45.104 79.0639 45.104C79.4319 45.104 79.7439 45.064 79.9999 44.984C80.2559 44.888 80.5359 44.736 80.8399 44.528C80.9199 44.464 81.0079 44.432 81.1039 44.432C81.1999 44.432 81.2959 44.504 81.3919 44.648L82.0879 45.8C82.1519 45.88 82.1839 45.968 82.1839 46.064C82.1839 46.176 82.1039 46.288 81.9439 46.4C80.9519 47.04 79.7679 47.36 78.3919 47.36ZM90.2726 47.36C89.0246 47.36 87.8966 47.152 86.8886 46.736C85.8806 46.304 85.0726 45.648 84.4646 44.768C83.8726 43.872 83.5766 42.76 83.5766 41.432C83.5766 39.368 84.1286 37.8 85.2326 36.728C86.3366 35.656 87.9046 35.12 89.9366 35.12C91.9526 35.12 93.4726 35.64 94.4966 36.68C95.5366 37.72 96.0566 39.224 96.0566 41.192C96.0566 41.752 95.8006 42.032 95.2886 42.032H86.4806C86.4806 43.088 86.8486 43.904 87.5846 44.48C88.3206 45.04 89.3446 45.32 90.6566 45.32C91.9206 45.32 93.0566 45.032 94.0646 44.456C94.1766 44.392 94.2646 44.36 94.3286 44.36C94.4406 44.36 94.5286 44.432 94.5926 44.576L95.1686 45.608C95.2166 45.704 95.2406 45.792 95.2406 45.872C95.2406 45.984 95.1686 46.088 95.0246 46.184C94.3686 46.584 93.6566 46.88 92.8886 47.072C92.1366 47.264 91.2646 47.36 90.2726 47.36ZM93.2726 40.256C93.2726 39.264 92.9926 38.488 92.4326 37.928C91.8886 37.368 91.0646 37.088 89.9606 37.088C88.8406 37.088 87.9766 37.376 87.3686 37.952C86.7766 38.528 86.4806 39.296 86.4806 40.256H93.2726ZM103.056 47.36C101.488 47.36 100.24 46.888 99.3124 45.944C98.3844 44.984 97.9204 43.64 97.9204 41.912C97.9204 40.568 98.2164 39.384 98.8084 38.36C99.4004 37.32 100.24 36.52 101.328 35.96C102.432 35.4 103.712 35.12 105.168 35.12C107.2 35.12 108.92 35.6 110.328 36.56V46.352C110.328 46.592 110.272 46.76 110.16 46.856C110.064 46.952 109.888 47 109.632 47H108.312C108.136 47 108 46.968 107.904 46.904C107.824 46.824 107.768 46.704 107.736 46.544L107.544 45.608C107.048 46.216 106.432 46.664 105.696 46.952C104.976 47.224 104.096 47.36 103.056 47.36ZM104.208 45.176C105.056 45.176 105.8 44.928 106.44 44.432C107.096 43.936 107.424 43.28 107.424 42.464V37.784C107.088 37.608 106.744 37.488 106.392 37.424C106.056 37.344 105.64 37.304 105.144 37.304C103.88 37.304 102.864 37.704 102.096 38.504C101.328 39.304 100.944 40.408 100.944 41.816C100.944 42.968 101.208 43.816 101.736 44.36C102.28 44.904 103.104 45.176 104.208 45.176ZM114.078 47C113.758 47 113.526 46.928 113.382 46.784C113.238 46.64 113.166 46.424 113.166 46.136V36.128C113.166 35.888 113.206 35.72 113.286 35.624C113.366 35.528 113.534 35.48 113.79 35.48H115.158C115.334 35.48 115.462 35.52 115.542 35.6C115.622 35.664 115.67 35.784 115.686 35.96L115.758 36.824C116.702 35.688 117.942 35.12 119.478 35.12C120.182 35.12 120.718 35.24 121.086 35.48C121.182 35.544 121.238 35.616 121.254 35.696C121.286 35.76 121.286 35.84 121.254 35.936L120.822 37.376C120.774 37.536 120.686 37.616 120.558 37.616L120.366 37.568C119.982 37.392 119.542 37.304 119.046 37.304C118.23 37.304 117.558 37.536 117.03 38C116.502 38.448 116.238 39.064 116.238 39.848V46.136C116.238 46.424 116.166 46.64 116.022 46.784C115.894 46.928 115.662 47 115.326 47H114.078ZM133.414 47C133.094 47 132.862 46.928 132.718 46.784C132.574 46.64 132.502 46.424 132.502 46.136V36.128C132.502 35.888 132.542 35.72 132.622 35.624C132.702 35.528 132.87 35.48 133.126 35.48H134.494C134.846 35.48 135.03 35.64 135.046 35.96L135.094 36.92C136.182 35.72 137.742 35.12 139.774 35.12C141.07 35.12 142.11 35.472 142.894 36.176C143.694 36.864 144.094 37.904 144.094 39.296V46.136C144.094 46.424 144.022 46.64 143.878 46.784C143.75 46.928 143.526 47 143.206 47H141.934C141.614 47 141.382 46.928 141.238 46.784C141.094 46.64 141.022 46.424 141.022 46.136V39.488C141.022 38.704 140.838 38.152 140.47 37.832C140.118 37.496 139.542 37.328 138.742 37.328C137.894 37.328 137.15 37.56 136.51 38.024C135.886 38.472 135.574 39.056 135.574 39.776V46.136C135.574 46.424 135.502 46.64 135.358 46.784C135.23 46.928 134.998 47 134.662 47H133.414ZM152.471 47.36C150.391 47.36 148.783 46.816 147.647 45.728C146.527 44.624 145.967 43.128 145.967 41.24C145.967 39.352 146.527 37.864 147.647 36.776C148.783 35.672 150.391 35.12 152.471 35.12C154.551 35.12 156.159 35.672 157.295 36.776C158.431 37.864 158.999 39.352 158.999 41.24C158.999 43.128 158.431 44.624 157.295 45.728C156.159 46.816 154.551 47.36 152.471 47.36ZM152.471 45.104C153.607 45.104 154.471 44.776 155.063 44.12C155.655 43.464 155.951 42.504 155.951 41.24C155.951 39.992 155.655 39.048 155.063 38.408C154.471 37.752 153.607 37.424 152.471 37.424C151.351 37.424 150.487 37.752 149.879 38.408C149.287 39.048 148.991 39.992 148.991 41.24C148.991 42.488 149.287 43.448 149.879 44.12C150.487 44.776 151.351 45.104 152.471 45.104ZM162.266 47C161.946 47 161.714 46.928 161.57 46.784C161.426 46.64 161.354 46.424 161.354 46.136V36.128C161.354 35.888 161.394 35.72 161.474 35.624C161.554 35.528 161.722 35.48 161.978 35.48H163.25C163.426 35.48 163.554 35.52 163.634 35.6C163.714 35.664 163.762 35.784 163.778 35.96L163.85 36.968C164.314 36.376 164.842 35.92 165.434 35.6C166.042 35.28 166.762 35.12 167.594 35.12C168.298 35.12 168.906 35.28 169.418 35.6C169.946 35.904 170.33 36.36 170.57 36.968C171.45 35.736 172.722 35.12 174.386 35.12C175.522 35.12 176.418 35.464 177.074 36.152C177.746 36.84 178.082 37.864 178.082 39.224V46.136C178.082 46.424 178.01 46.64 177.866 46.784C177.738 46.928 177.506 47 177.17 47H176.114C175.794 47 175.562 46.928 175.418 46.784C175.274 46.64 175.202 46.424 175.202 46.136V39.392C175.202 38.656 175.042 38.128 174.722 37.808C174.418 37.488 173.954 37.328 173.33 37.328C172.674 37.328 172.138 37.544 171.722 37.976C171.322 38.408 171.122 38.992 171.122 39.728V46.136C171.122 46.424 171.05 46.64 170.906 46.784C170.762 46.928 170.53 47 170.21 47H169.226C168.906 47 168.674 46.928 168.53 46.784C168.386 46.64 168.314 46.424 168.314 46.136V39.272C168.314 38.6 168.17 38.112 167.882 37.808C167.61 37.488 167.17 37.328 166.562 37.328C165.874 37.328 165.314 37.56 164.882 38.024C164.45 38.472 164.234 39.064 164.234 39.8V46.136C164.234 46.424 164.162 46.64 164.018 46.784C163.89 46.928 163.658 47 163.322 47H162.266ZM186.999 47.36C185.751 47.36 184.623 47.152 183.615 46.736C182.607 46.304 181.799 45.648 181.191 44.768C180.599 43.872 180.303 42.76 180.303 41.432C180.303 39.368 180.855 37.8 181.959 36.728C183.063 35.656 184.631 35.12 186.663 35.12C188.679 35.12 190.199 35.64 191.223 36.68C192.263 37.72 192.783 39.224 192.783 41.192C192.783 41.752 192.527 42.032 192.015 42.032H183.207C183.207 43.088 183.575 43.904 184.311 44.48C185.047 45.04 186.071 45.32 187.383 45.32C188.647 45.32 189.783 45.032 190.791 44.456C190.903 44.392 190.991 44.36 191.055 44.36C191.167 44.36 191.255 44.432 191.319 44.576L191.895 45.608C191.943 45.704 191.967 45.792 191.967 45.872C191.967 45.984 191.895 46.088 191.751 46.184C191.095 46.584 190.383 46.88 189.615 47.072C188.863 47.264 187.991 47.36 186.999 47.36ZM189.999 40.256C189.999 39.264 189.719 38.488 189.159 37.928C188.615 37.368 187.791 37.088 186.687 37.088C185.567 37.088 184.703 37.376 184.095 37.952C183.503 38.528 183.207 39.296 183.207 40.256H189.999ZM200.119 47.36C199.159 47.36 198.223 47.256 197.311 47.048C196.399 46.856 195.615 46.56 194.959 46.16C194.751 46.048 194.647 45.928 194.647 45.8C194.647 45.704 194.679 45.616 194.743 45.536L195.415 44.36C195.495 44.216 195.575 44.144 195.655 44.144C195.735 44.144 195.839 44.184 195.967 44.264C196.447 44.552 197.039 44.792 197.743 44.984C198.447 45.176 199.095 45.272 199.687 45.272C200.599 45.272 201.247 45.184 201.631 45.008C202.031 44.816 202.231 44.48 202.231 44C202.231 43.728 202.151 43.512 201.991 43.352C201.847 43.176 201.623 43.024 201.319 42.896C201.015 42.768 200.511 42.592 199.807 42.368C199.807 42.368 199.543 42.28 199.015 42.104C198.103 41.8 197.375 41.504 196.831 41.216C196.287 40.928 195.863 40.568 195.559 40.136C195.271 39.688 195.127 39.128 195.127 38.456C195.127 37.368 195.583 36.544 196.495 35.984C197.423 35.408 198.623 35.12 200.095 35.12C201.887 35.12 203.431 35.504 204.727 36.272C204.935 36.384 205.039 36.504 205.039 36.632C205.039 36.712 204.999 36.816 204.919 36.944L204.271 37.976C204.175 38.12 204.095 38.192 204.031 38.192C203.967 38.192 203.871 38.152 203.743 38.072C203.327 37.816 202.823 37.616 202.231 37.472C201.655 37.312 201.071 37.232 200.479 37.232C199.679 37.232 199.087 37.32 198.703 37.496C198.335 37.656 198.151 37.976 198.151 38.456C198.151 38.872 198.367 39.2 198.799 39.44C199.247 39.68 200.015 39.968 201.103 40.304L201.895 40.544C203.143 40.944 204.015 41.416 204.511 41.96C205.023 42.504 205.279 43.184 205.279 44C205.279 44.992 204.839 45.8 203.959 46.424C203.095 47.048 201.815 47.36 200.119 47.36Z" fill="#CCDAE7"/>
<path d="M80.344 101C80.1573 101 80.022 100.958 79.938 100.874C79.8633 100.79 79.826 100.664 79.826 100.496V91.998C79.826 91.8207 79.8633 91.69 79.938 91.606C80.022 91.522 80.1573 91.48 80.344 91.48H81.086C81.2727 91.48 81.408 91.522 81.492 91.606C81.576 91.69 81.618 91.8207 81.618 91.998V99.642H85.902C86.0887 99.642 86.2193 99.684 86.294 99.768C86.3687 99.8427 86.406 99.9687 86.406 100.146V100.524C86.406 100.692 86.3687 100.813 86.294 100.888C86.2193 100.963 86.0887 101 85.902 101H80.344ZM89.9739 101.21C89.2086 101.21 88.5926 101 88.1259 100.58C87.6593 100.151 87.4259 99.516 87.4259 98.676V94.798C87.4259 94.6207 87.4633 94.49 87.5379 94.406C87.6219 94.322 87.7573 94.28 87.9439 94.28H88.6859C88.8726 94.28 89.0079 94.322 89.0919 94.406C89.1759 94.49 89.2179 94.6207 89.2179 94.798V98.634C89.2179 99.082 89.3346 99.4133 89.5679 99.628C89.8013 99.8333 90.1466 99.936 90.6039 99.936C91.0893 99.936 91.4953 99.8007 91.8219 99.53C92.1486 99.2593 92.3119 98.9093 92.3119 98.48V94.798C92.3119 94.6207 92.3539 94.49 92.4379 94.406C92.5219 94.322 92.6573 94.28 92.8439 94.28H93.5719C93.7586 94.28 93.8939 94.322 93.9779 94.406C94.0619 94.49 94.1039 94.6207 94.1039 94.798V100.622C94.1039 100.771 94.0806 100.874 94.0339 100.93C93.9873 100.977 93.8893 101 93.7399 101H92.9559C92.8533 101 92.7786 100.981 92.7319 100.944C92.6853 100.897 92.6573 100.827 92.6479 100.734L92.5919 100.146C91.9573 100.855 91.0846 101.21 89.9739 101.21ZM99.4217 101.21C98.1804 101.21 97.2097 100.907 96.5097 100.3C95.8191 99.684 95.4737 98.8067 95.4737 97.668C95.4737 96.9587 95.6324 96.3333 95.9497 95.792C96.2671 95.2507 96.7197 94.8307 97.3077 94.532C97.9051 94.224 98.6004 94.07 99.3937 94.07C99.9817 94.07 100.481 94.126 100.892 94.238C101.302 94.35 101.685 94.532 102.04 94.784C102.124 94.84 102.166 94.9007 102.166 94.966C102.166 95.022 102.142 95.0873 102.096 95.162L101.718 95.82C101.662 95.9133 101.61 95.96 101.564 95.96C101.517 95.96 101.452 95.932 101.368 95.876C101.078 95.6987 100.789 95.568 100.5 95.484C100.22 95.3907 99.8837 95.344 99.4917 95.344C98.7917 95.344 98.2411 95.554 97.8397 95.974C97.4384 96.3847 97.2377 96.9493 97.2377 97.668C97.2377 98.424 97.4384 98.9933 97.8397 99.376C98.2411 99.7493 98.8291 99.936 99.6037 99.936C99.9957 99.936 100.336 99.8893 100.626 99.796C100.915 99.7027 101.195 99.5673 101.466 99.39C101.54 99.3433 101.601 99.32 101.648 99.32C101.704 99.32 101.76 99.3667 101.816 99.46L102.222 100.146C102.259 100.193 102.278 100.244 102.278 100.3C102.278 100.365 102.231 100.431 102.138 100.496C101.764 100.739 101.363 100.916 100.934 101.028C100.504 101.149 100 101.21 99.4217 101.21ZM106.386 101.21C105.471 101.21 104.743 100.935 104.202 100.384C103.66 99.824 103.39 99.04 103.39 98.032C103.39 97.248 103.562 96.5573 103.908 95.96C104.253 95.3533 104.743 94.8867 105.378 94.56C106.022 94.2333 106.768 94.07 107.618 94.07C108.803 94.07 109.806 94.35 110.628 94.91V100.622C110.628 100.762 110.595 100.86 110.53 100.916C110.474 100.972 110.371 101 110.222 101H109.452C109.349 101 109.27 100.981 109.214 100.944C109.167 100.897 109.134 100.827 109.116 100.734L109.004 100.188C108.714 100.543 108.355 100.804 107.926 100.972C107.506 101.131 106.992 101.21 106.386 101.21ZM107.058 99.936C107.552 99.936 107.986 99.7913 108.36 99.502C108.742 99.2127 108.934 98.83 108.934 98.354V95.624C108.738 95.5213 108.537 95.4513 108.332 95.414C108.136 95.3673 107.893 95.344 107.604 95.344C106.866 95.344 106.274 95.5773 105.826 96.044C105.378 96.5107 105.154 97.1547 105.154 97.976C105.154 98.648 105.308 99.1427 105.616 99.46C105.933 99.7773 106.414 99.936 107.058 99.936ZM114.84 101.21C114.28 101.21 113.734 101.149 113.202 101.028C112.67 100.916 112.212 100.743 111.83 100.51C111.708 100.445 111.648 100.375 111.648 100.3C111.648 100.244 111.666 100.193 111.704 100.146L112.096 99.46C112.142 99.376 112.189 99.334 112.236 99.334C112.282 99.334 112.343 99.3573 112.418 99.404C112.698 99.572 113.043 99.712 113.454 99.824C113.864 99.936 114.242 99.992 114.588 99.992C115.12 99.992 115.498 99.9407 115.722 99.838C115.955 99.726 116.072 99.53 116.072 99.25C116.072 99.0913 116.025 98.9653 115.932 98.872C115.848 98.7693 115.717 98.6807 115.54 98.606C115.362 98.5313 115.068 98.4287 114.658 98.298C114.658 98.298 114.504 98.2467 114.196 98.144C113.664 97.9667 113.239 97.794 112.922 97.626C112.604 97.458 112.357 97.248 112.18 96.996C112.012 96.7347 111.928 96.408 111.928 96.016C111.928 95.3813 112.194 94.9007 112.726 94.574C113.267 94.238 113.967 94.07 114.826 94.07C115.871 94.07 116.772 94.294 117.528 94.742C117.649 94.8073 117.71 94.8773 117.71 94.952C117.71 94.9987 117.686 95.0593 117.64 95.134L117.262 95.736C117.206 95.82 117.159 95.862 117.122 95.862C117.084 95.862 117.028 95.8387 116.954 95.792C116.711 95.6427 116.417 95.526 116.072 95.442C115.736 95.3487 115.395 95.302 115.05 95.302C114.583 95.302 114.238 95.3533 114.014 95.456C113.799 95.5493 113.692 95.736 113.692 96.016C113.692 96.2587 113.818 96.45 114.07 96.59C114.331 96.73 114.779 96.898 115.414 97.094L115.876 97.234C116.604 97.4673 117.112 97.7427 117.402 98.06C117.7 98.3773 117.85 98.774 117.85 99.25C117.85 99.8287 117.593 100.3 117.08 100.664C116.576 101.028 115.829 101.21 114.84 101.21Z" fill="#CCDAE7"/>
<path d="M196.344 101C196.157 101 196.022 100.958 195.938 100.874C195.863 100.79 195.826 100.664 195.826 100.496V91.998C195.826 91.8207 195.863 91.69 195.938 91.606C196.022 91.522 196.157 91.48 196.344 91.48H202.168C202.355 91.48 202.481 91.5173 202.546 91.592C202.621 91.6667 202.658 91.7927 202.658 91.97V92.348C202.658 92.5253 202.621 92.656 202.546 92.74C202.481 92.8147 202.355 92.852 202.168 92.852H197.618V95.554H200.922C201.109 95.554 201.239 95.5913 201.314 95.666C201.389 95.7407 201.426 95.8667 201.426 96.044V96.422C201.426 96.5993 201.389 96.73 201.314 96.814C201.239 96.8887 201.109 96.926 200.922 96.926H197.618V100.496C197.618 100.664 197.576 100.79 197.492 100.874C197.417 100.958 197.282 101 197.086 101H196.344ZM205.987 101.21C205.259 101.21 204.601 101.089 204.013 100.846C203.425 100.594 202.954 100.211 202.599 99.698C202.254 99.1753 202.081 98.5267 202.081 97.752C202.081 96.548 202.403 95.6333 203.047 95.008C203.691 94.3827 204.606 94.07 205.791 94.07C206.967 94.07 207.854 94.3733 208.451 94.98C209.058 95.5867 209.361 96.464 209.361 97.612C209.361 97.9387 209.212 98.102 208.913 98.102H203.775C203.775 98.718 203.99 99.194 204.419 99.53C204.848 99.8567 205.446 100.02 206.211 100.02C206.948 100.02 207.611 99.852 208.199 99.516C208.264 99.4787 208.316 99.46 208.353 99.46C208.418 99.46 208.47 99.502 208.507 99.586L208.843 100.188C208.871 100.244 208.885 100.295 208.885 100.342C208.885 100.407 208.843 100.468 208.759 100.524C208.376 100.757 207.961 100.93 207.513 101.042C207.074 101.154 206.566 101.21 205.987 101.21ZM207.737 97.066C207.737 96.4873 207.574 96.0347 207.247 95.708C206.93 95.3813 206.449 95.218 205.805 95.218C205.152 95.218 204.648 95.386 204.293 95.722C203.948 96.058 203.775 96.506 203.775 97.066H207.737ZM211.246 101C211.06 101 210.924 100.958 210.84 100.874C210.766 100.79 210.728 100.664 210.728 100.496V91.998C210.728 91.8207 210.766 91.69 210.84 91.606C210.924 91.522 211.06 91.48 211.246 91.48H211.988C212.175 91.48 212.31 91.522 212.394 91.606C212.478 91.69 212.52 91.8207 212.52 91.998V100.496C212.52 100.664 212.478 100.79 212.394 100.874C212.32 100.958 212.184 101 211.988 101H211.246ZM214.874 93.118C214.65 93.118 214.477 93.0527 214.356 92.922C214.234 92.7913 214.174 92.6327 214.174 92.446V92.152C214.174 91.9653 214.234 91.8067 214.356 91.676C214.477 91.5453 214.65 91.48 214.874 91.48H215.476C215.7 91.48 215.872 91.5453 215.994 91.676C216.124 91.8067 216.19 91.9653 216.19 92.152V92.446C216.19 92.6327 216.124 92.7913 215.994 92.922C215.872 93.0527 215.7 93.118 215.476 93.118H214.874ZM214.818 101C214.631 101 214.496 100.958 214.412 100.874C214.328 100.79 214.286 100.664 214.286 100.496V94.798C214.286 94.6207 214.328 94.49 214.412 94.406C214.496 94.322 214.631 94.28 214.818 94.28H215.546C215.732 94.28 215.868 94.322 215.952 94.406C216.036 94.49 216.078 94.6207 216.078 94.798V100.496C216.078 100.664 216.036 100.79 215.952 100.874C215.877 100.958 215.742 101 215.546 101H214.818ZM218.356 103.828C218.169 103.828 218.034 103.786 217.95 103.702C217.875 103.618 217.838 103.492 217.838 103.324V94.952C218.192 94.7 218.664 94.49 219.252 94.322C219.849 94.154 220.446 94.07 221.044 94.07C223.75 94.07 225.104 95.2647 225.104 97.654C225.104 98.7553 224.805 99.6233 224.208 100.258C223.62 100.893 222.808 101.21 221.772 101.21C220.829 101.21 220.106 100.939 219.602 100.398V103.324C219.602 103.501 219.56 103.627 219.476 103.702C219.401 103.786 219.266 103.828 219.07 103.828H218.356ZM221.352 99.936C222.014 99.936 222.509 99.7353 222.836 99.334C223.162 98.9327 223.326 98.354 223.326 97.598C223.326 96.786 223.134 96.212 222.752 95.876C222.369 95.5307 221.781 95.358 220.988 95.358C220.4 95.358 219.938 95.4467 219.602 95.624V98.382C219.602 98.858 219.77 99.236 220.106 99.516C220.442 99.796 220.857 99.936 221.352 99.936ZM230.104 101.21C229.376 101.21 228.718 101.089 228.13 100.846C227.542 100.594 227.071 100.211 226.716 99.698C226.371 99.1753 226.198 98.5267 226.198 97.752C226.198 96.548 226.52 95.6333 227.164 95.008C227.808 94.3827 228.723 94.07 229.908 94.07C231.084 94.07 231.971 94.3733 232.568 94.98C233.175 95.5867 233.478 96.464 233.478 97.612C233.478 97.9387 233.329 98.102 233.03 98.102H227.892C227.892 98.718 228.107 99.194 228.536 99.53C228.966 99.8567 229.563 100.02 230.328 100.02C231.066 100.02 231.728 99.852 232.316 99.516C232.382 99.4787 232.433 99.46 232.47 99.46C232.536 99.46 232.587 99.502 232.624 99.586L232.96 100.188C232.988 100.244 233.002 100.295 233.002 100.342C233.002 100.407 232.96 100.468 232.876 100.524C232.494 100.757 232.078 100.93 231.63 101.042C231.192 101.154 230.683 101.21 230.104 101.21ZM231.854 97.066C231.854 96.4873 231.691 96.0347 231.364 95.708C231.047 95.3813 230.566 95.218 229.922 95.218C229.269 95.218 228.765 95.386 228.41 95.722C228.065 96.058 227.892 96.506 227.892 97.066H231.854Z" fill="#CCDAE7"/>
<path d="M312.038 101.21C311.011 101.21 310.129 100.981 309.392 100.524C309.308 100.477 309.266 100.417 309.266 100.342C309.266 100.286 309.289 100.221 309.336 100.146L309.742 99.46C309.798 99.3667 309.854 99.32 309.91 99.32C309.966 99.32 310.027 99.348 310.092 99.404C310.307 99.5533 310.568 99.6747 310.876 99.768C311.184 99.852 311.511 99.894 311.856 99.894C312.341 99.894 312.696 99.768 312.92 99.516C313.153 99.2547 313.27 98.8627 313.27 98.34V91.998C313.27 91.8207 313.312 91.69 313.396 91.606C313.48 91.522 313.615 91.48 313.802 91.48H314.53C314.717 91.48 314.852 91.522 314.936 91.606C315.02 91.69 315.062 91.8207 315.062 91.998V98.34C315.062 99.2173 314.81 99.9173 314.306 100.44C313.802 100.953 313.046 101.21 312.038 101.21ZM319.364 101.21C318.45 101.21 317.722 100.935 317.18 100.384C316.639 99.824 316.368 99.04 316.368 98.032C316.368 97.248 316.541 96.5573 316.886 95.96C317.232 95.3533 317.722 94.8867 318.356 94.56C319 94.2333 319.747 94.07 320.596 94.07C321.782 94.07 322.785 94.35 323.606 94.91V100.622C323.606 100.762 323.574 100.86 323.508 100.916C323.452 100.972 323.35 101 323.2 101H322.43C322.328 101 322.248 100.981 322.192 100.944C322.146 100.897 322.113 100.827 322.094 100.734L321.982 100.188C321.693 100.543 321.334 100.804 320.904 100.972C320.484 101.131 319.971 101.21 319.364 101.21ZM320.036 99.936C320.531 99.936 320.965 99.7913 321.338 99.502C321.721 99.2127 321.912 98.83 321.912 98.354V95.624C321.716 95.5213 321.516 95.4513 321.31 95.414C321.114 95.3673 320.872 95.344 320.582 95.344C319.845 95.344 319.252 95.5773 318.804 96.044C318.356 96.5107 318.132 97.1547 318.132 97.976C318.132 98.648 318.286 99.1427 318.594 99.46C318.912 99.7773 319.392 99.936 320.036 99.936ZM325.794 101C325.607 101 325.472 100.958 325.388 100.874C325.304 100.79 325.262 100.664 325.262 100.496V94.658C325.262 94.518 325.285 94.42 325.332 94.364C325.378 94.308 325.476 94.28 325.626 94.28H326.368C326.47 94.28 326.545 94.3033 326.592 94.35C326.638 94.3873 326.666 94.4573 326.676 94.56L326.718 95.148C326.988 94.8027 327.296 94.5367 327.642 94.35C327.996 94.1633 328.416 94.07 328.902 94.07C329.312 94.07 329.667 94.1633 329.966 94.35C330.274 94.5273 330.498 94.7933 330.638 95.148C331.151 94.4293 331.893 94.07 332.864 94.07C333.526 94.07 334.049 94.2707 334.432 94.672C334.824 95.0733 335.02 95.6707 335.02 96.464V100.496C335.02 100.664 334.978 100.79 334.894 100.874C334.819 100.958 334.684 101 334.488 101H333.872C333.685 101 333.55 100.958 333.466 100.874C333.382 100.79 333.34 100.664 333.34 100.496V96.562C333.34 96.1327 333.246 95.8247 333.06 95.638C332.882 95.4513 332.612 95.358 332.248 95.358C331.865 95.358 331.552 95.484 331.31 95.736C331.076 95.988 330.96 96.3287 330.96 96.758V100.496C330.96 100.664 330.918 100.79 330.834 100.874C330.75 100.958 330.614 101 330.428 101H329.854C329.667 101 329.532 100.958 329.448 100.874C329.364 100.79 329.322 100.664 329.322 100.496V96.492C329.322 96.1 329.238 95.8153 329.07 95.638C328.911 95.4513 328.654 95.358 328.3 95.358C327.898 95.358 327.572 95.4933 327.32 95.764C327.068 96.0253 326.942 96.3707 326.942 96.8V100.496C326.942 100.664 326.9 100.79 326.816 100.874C326.741 100.958 326.606 101 326.41 101H325.794ZM340.222 101.21C339.494 101.21 338.836 101.089 338.248 100.846C337.66 100.594 337.188 100.211 336.834 99.698C336.488 99.1753 336.316 98.5267 336.316 97.752C336.316 96.548 336.638 95.6333 337.282 95.008C337.926 94.3827 338.84 94.07 340.026 94.07C341.202 94.07 342.088 94.3733 342.686 94.98C343.292 95.5867 343.596 96.464 343.596 97.612C343.596 97.9387 343.446 98.102 343.148 98.102H338.01C338.01 98.718 338.224 99.194 338.654 99.53C339.083 99.8567 339.68 100.02 340.446 100.02C341.183 100.02 341.846 99.852 342.434 99.516C342.499 99.4787 342.55 99.46 342.588 99.46C342.653 99.46 342.704 99.502 342.742 99.586L343.078 100.188C343.106 100.244 343.12 100.295 343.12 100.342C343.12 100.407 343.078 100.468 342.994 100.524C342.611 100.757 342.196 100.93 341.748 101.042C341.309 101.154 340.8 101.21 340.222 101.21ZM341.972 97.066C341.972 96.4873 341.808 96.0347 341.482 95.708C341.164 95.3813 340.684 95.218 340.04 95.218C339.386 95.218 338.882 95.386 338.528 95.722C338.182 96.058 338.01 96.506 338.01 97.066H341.972ZM347.875 101.21C347.315 101.21 346.769 101.149 346.237 101.028C345.705 100.916 345.247 100.743 344.865 100.51C344.743 100.445 344.683 100.375 344.683 100.3C344.683 100.244 344.701 100.193 344.739 100.146L345.131 99.46C345.177 99.376 345.224 99.334 345.271 99.334C345.317 99.334 345.378 99.3573 345.453 99.404C345.733 99.572 346.078 99.712 346.489 99.824C346.899 99.936 347.277 99.992 347.623 99.992C348.155 99.992 348.533 99.9407 348.757 99.838C348.99 99.726 349.107 99.53 349.107 99.25C349.107 99.0913 349.06 98.9653 348.967 98.872C348.883 98.7693 348.752 98.6807 348.575 98.606C348.397 98.5313 348.103 98.4287 347.693 98.298C347.693 98.298 347.539 98.2467 347.231 98.144C346.699 97.9667 346.274 97.794 345.957 97.626C345.639 97.458 345.392 97.248 345.215 96.996C345.047 96.7347 344.963 96.408 344.963 96.016C344.963 95.3813 345.229 94.9007 345.761 94.574C346.302 94.238 347.002 94.07 347.861 94.07C348.906 94.07 349.807 94.294 350.563 94.742C350.684 94.8073 350.745 94.8773 350.745 94.952C350.745 94.9987 350.721 95.0593 350.675 95.134L350.297 95.736C350.241 95.82 350.194 95.862 350.157 95.862C350.119 95.862 350.063 95.8387 349.989 95.792C349.746 95.6427 349.452 95.526 349.107 95.442C348.771 95.3487 348.43 95.302 348.085 95.302C347.618 95.302 347.273 95.3533 347.049 95.456C346.834 95.5493 346.727 95.736 346.727 96.016C346.727 96.2587 346.853 96.45 347.105 96.59C347.366 96.73 347.814 96.898 348.449 97.094L348.911 97.234C349.639 97.4673 350.147 97.7427 350.437 98.06C350.735 98.3773 350.885 98.774 350.885 99.25C350.885 99.8287 350.628 100.3 350.115 100.664C349.611 101.028 348.864 101.21 347.875 101.21Z" fill="#CCDAE7"/>
<path d="M80.344 157C80.1573 157 80.022 156.958 79.938 156.874C79.8633 156.79 79.826 156.664 79.826 156.496V147.998C79.826 147.821 79.8633 147.69 79.938 147.606C80.022 147.522 80.1573 147.48 80.344 147.48H83.928C85.076 147.48 85.9253 147.755 86.476 148.306C87.036 148.847 87.316 149.627 87.316 150.644C87.316 151.652 87.036 152.427 86.476 152.968C85.9253 153.509 85.076 153.78 83.928 153.78H81.618V156.496C81.618 156.664 81.576 156.79 81.492 156.874C81.4173 156.958 81.282 157 81.086 157H80.344ZM83.844 152.422C84.4133 152.422 84.838 152.277 85.118 151.988C85.398 151.689 85.538 151.241 85.538 150.644C85.538 150.037 85.398 149.589 85.118 149.3C84.838 149.001 84.4133 148.852 83.844 148.852H81.618V152.422H83.844ZM91.2723 157.21C90.5443 157.21 89.8863 157.089 89.2983 156.846C88.7103 156.594 88.239 156.211 87.8843 155.698C87.539 155.175 87.3663 154.527 87.3663 153.752C87.3663 152.548 87.6883 151.633 88.3323 151.008C88.9763 150.383 89.891 150.07 91.0763 150.07C92.2523 150.07 93.139 150.373 93.7363 150.98C94.343 151.587 94.6463 152.464 94.6463 153.612C94.6463 153.939 94.497 154.102 94.1983 154.102H89.0603C89.0603 154.718 89.275 155.194 89.7043 155.53C90.1336 155.857 90.731 156.02 91.4963 156.02C92.2336 156.02 92.8963 155.852 93.4843 155.516C93.5496 155.479 93.601 155.46 93.6383 155.46C93.7036 155.46 93.755 155.502 93.7923 155.586L94.1283 156.188C94.1563 156.244 94.1703 156.295 94.1703 156.342C94.1703 156.407 94.1283 156.468 94.0443 156.524C93.6616 156.757 93.2463 156.93 92.7983 157.042C92.3596 157.154 91.851 157.21 91.2723 157.21ZM93.0223 153.066C93.0223 152.487 92.859 152.035 92.5323 151.708C92.215 151.381 91.7343 151.218 91.0903 151.218C90.437 151.218 89.933 151.386 89.5783 151.722C89.233 152.058 89.0603 152.506 89.0603 153.066H93.0223ZM99.7095 157.21C97.0588 157.21 95.7335 156.015 95.7335 153.626C95.7335 152.926 95.8688 152.31 96.1395 151.778C96.4102 151.237 96.7975 150.817 97.3015 150.518C97.8148 150.219 98.4168 150.07 99.1075 150.07C100.088 150.07 100.797 150.289 101.236 150.728V147.998C101.236 147.821 101.278 147.69 101.362 147.606C101.446 147.522 101.581 147.48 101.768 147.48H102.468C102.654 147.48 102.79 147.522 102.874 147.606C102.958 147.69 103 147.821 103 147.998V156.3C102.645 156.561 102.169 156.781 101.572 156.958C100.974 157.126 100.354 157.21 99.7095 157.21ZM99.7515 155.936C100.377 155.936 100.872 155.824 101.236 155.6V152.744C101.236 152.287 101.077 151.941 100.76 151.708C100.442 151.475 100.032 151.358 99.5275 151.358C98.8462 151.358 98.3375 151.563 98.0015 151.974C97.6655 152.385 97.4975 152.949 97.4975 153.668C97.4975 154.471 97.6842 155.049 98.0575 155.404C98.4308 155.759 98.9955 155.936 99.7515 155.936ZM105.186 157C104.999 157 104.864 156.958 104.78 156.874C104.696 156.79 104.654 156.664 104.654 156.496V150.658C104.654 150.518 104.677 150.42 104.724 150.364C104.771 150.308 104.869 150.28 105.018 150.28H105.816C105.919 150.28 105.993 150.303 106.04 150.35C106.087 150.387 106.115 150.457 106.124 150.56L106.166 151.064C106.717 150.401 107.44 150.07 108.336 150.07C108.747 150.07 109.059 150.14 109.274 150.28C109.33 150.317 109.363 150.359 109.372 150.406C109.391 150.443 109.391 150.49 109.372 150.546L109.12 151.386C109.092 151.479 109.041 151.526 108.966 151.526L108.854 151.498C108.63 151.395 108.373 151.344 108.084 151.344C107.608 151.344 107.216 151.479 106.908 151.75C106.6 152.011 106.446 152.371 106.446 152.828V156.496C106.446 156.664 106.404 156.79 106.32 156.874C106.245 156.958 106.11 157 105.914 157H105.186ZM113.992 157.21C112.779 157.21 111.841 156.893 111.178 156.258C110.525 155.614 110.198 154.741 110.198 153.64C110.198 152.539 110.525 151.671 111.178 151.036C111.841 150.392 112.779 150.07 113.992 150.07C115.206 150.07 116.144 150.392 116.806 151.036C117.469 151.671 117.8 152.539 117.8 153.64C117.8 154.741 117.469 155.614 116.806 156.258C116.144 156.893 115.206 157.21 113.992 157.21ZM113.992 155.894C114.655 155.894 115.159 155.703 115.504 155.32C115.85 154.937 116.022 154.377 116.022 153.64C116.022 152.912 115.85 152.361 115.504 151.988C115.159 151.605 114.655 151.414 113.992 151.414C113.339 151.414 112.835 151.605 112.48 151.988C112.135 152.361 111.962 152.912 111.962 153.64C111.962 154.368 112.135 154.928 112.48 155.32C112.835 155.703 113.339 155.894 113.992 155.894Z" fill="#CCDAE7"/>
<g clip-path="url(#clip0_848_517)">
<path d="M54.5 96C56.2429 96 57.9143 95.3679 59.1467 94.2426C60.3791 93.1174 61.0714 91.5913 61.0714 90C61.0714 88.4087 60.3791 86.8826 59.1467 85.7574C57.9143 84.6321 56.2429 84 54.5 84C52.7571 84 51.0857 84.6321 49.8533 85.7574C48.6209 86.8826 47.9286 88.4087 47.9286 90C47.9286 91.5913 48.6209 93.1174 49.8533 94.2426C51.0857 95.3679 52.7571 96 54.5 96ZM52.1538 98.25C47.0969 98.25 43 101.991 43 106.608C43 107.377 43.6828 108 44.5248 108H64.4752C65.3172 108 66 107.377 66 106.608C66 101.991 61.9031 98.25 56.8462 98.25H52.1538Z" fill="#CCDAE7"/>
</g>
<g clip-path="url(#clip1_848_517)">
<path d="M170.5 96C172.243 96 173.914 95.3679 175.147 94.2426C176.379 93.1174 177.071 91.5913 177.071 90C177.071 88.4087 176.379 86.8826 175.147 85.7574C173.914 84.6321 172.243 84 170.5 84C168.757 84 167.086 84.6321 165.853 85.7574C164.621 86.8826 163.929 88.4087 163.929 90C163.929 91.5913 164.621 93.1174 165.853 94.2426C167.086 95.3679 168.757 96 170.5 96ZM168.154 98.25C163.097 98.25 159 101.991 159 106.608C159 107.377 159.683 108 160.525 108H180.475C181.317 108 182 107.377 182 106.608C182 101.991 177.903 98.25 172.846 98.25H168.154Z" fill="#CCDAE7"/>
</g>
<g clip-path="url(#clip2_848_517)">
<path d="M284.5 96C286.243 96 287.914 95.3679 289.147 94.2426C290.379 93.1174 291.071 91.5913 291.071 90C291.071 88.4087 290.379 86.8826 289.147 85.7574C287.914 84.6321 286.243 84 284.5 84C282.757 84 281.086 84.6321 279.853 85.7574C278.621 86.8826 277.929 88.4087 277.929 90C277.929 91.5913 278.621 93.1174 279.853 94.2426C281.086 95.3679 282.757 96 284.5 96ZM282.154 98.25C277.097 98.25 273 101.991 273 106.608C273 107.377 273.683 108 274.525 108H294.475C295.317 108 296 107.377 296 106.608C296 101.991 291.903 98.25 286.846 98.25H282.154Z" fill="#CCDAE7"/>
</g>
<g clip-path="url(#clip3_848_517)">
<path d="M54.5 152C56.2429 152 57.9143 151.368 59.1467 150.243C60.3791 149.117 61.0714 147.591 61.0714 146C61.0714 144.409 60.3791 142.883 59.1467 141.757C57.9143 140.632 56.2429 140 54.5 140C52.7571 140 51.0857 140.632 49.8533 141.757C48.6209 142.883 47.9286 144.409 47.9286 146C47.9286 147.591 48.6209 149.117 49.8533 150.243C51.0857 151.368 52.7571 152 54.5 152ZM52.1538 154.25C47.0969 154.25 43 157.991 43 162.608C43 163.377 43.6828 164 44.5248 164H64.4752C65.3172 164 66 163.377 66 162.608C66 157.991 61.9031 154.25 56.8462 154.25H52.1538Z" fill="#CCDAE7"/>
</g>
<defs>
<clipPath id="clip0_848_517">
<rect width="23" height="24" fill="white" transform="translate(43 84)"/>
</clipPath>
<clipPath id="clip1_848_517">
<rect width="23" height="24" fill="white" transform="translate(159 84)"/>
</clipPath>
<clipPath id="clip2_848_517">
<rect width="23" height="24" fill="white" transform="translate(273 84)"/>
</clipPath>
<clipPath id="clip3_848_517">
<rect width="23" height="24" fill="white" transform="translate(43 140)"/>
</clipPath>
</defs>
</svg>
