<svg width="436" height="294" viewBox="0 0 436 294" fill="none" xmlns="http://www.w3.org/2000/svg">
<rect width="436" height="294" rx="24" fill="#171E25"/>
<rect x="33" y="75" width="376" height="42" rx="7" fill="#273038"/>
<rect x="33" y="126" width="376" height="42" rx="7" fill="#273038"/>
<path d="M35.304 47C34.984 47 34.752 46.928 34.608 46.784C34.48 46.64 34.416 46.424 34.416 46.136V31.568C34.416 31.264 34.48 31.04 34.608 30.896C34.752 30.752 34.992 30.68 35.328 30.68H36.624C36.88 30.68 37.072 30.712 37.2 30.776C37.344 30.84 37.456 30.968 37.536 31.16L42.384 42.32L47.232 31.16C47.312 30.968 47.416 30.84 47.544 30.776C47.688 30.712 47.888 30.68 48.144 30.68H49.44C49.776 30.68 50.008 30.752 50.136 30.896C50.28 31.04 50.352 31.264 50.352 31.568V46.136C50.352 46.424 50.28 46.64 50.136 46.784C50.008 46.928 49.784 47 49.464 47H48.408C48.088 47 47.856 46.928 47.712 46.784C47.568 46.64 47.496 46.424 47.496 46.136V35.792L43.392 44.936C43.264 45.192 43.136 45.376 43.008 45.488C42.88 45.6 42.672 45.656 42.384 45.656C42.096 45.656 41.88 45.6 41.736 45.488C41.608 45.376 41.488 45.192 41.376 44.936L37.272 35.792V46.136C37.272 46.424 37.2 46.64 37.056 46.784C36.928 46.928 36.696 47 36.36 47H35.304ZM59.4054 47.36C58.1574 47.36 57.0294 47.152 56.0214 46.736C55.0134 46.304 54.2054 45.648 53.5974 44.768C53.0054 43.872 52.7094 42.76 52.7094 41.432C52.7094 39.368 53.2614 37.8 54.3654 36.728C55.4694 35.656 57.0374 35.12 59.0694 35.12C61.0854 35.12 62.6054 35.64 63.6294 36.68C64.6694 37.72 65.1894 39.224 65.1894 41.192C65.1894 41.752 64.9334 42.032 64.4214 42.032H55.6134C55.6134 43.088 55.9814 43.904 56.7174 44.48C57.4534 45.04 58.4774 45.32 59.7894 45.32C61.0534 45.32 62.1894 45.032 63.1974 44.456C63.3094 44.392 63.3974 44.36 63.4614 44.36C63.5734 44.36 63.6614 44.432 63.7254 44.576L64.3014 45.608C64.3494 45.704 64.3734 45.792 64.3734 45.872C64.3734 45.984 64.3014 46.088 64.1574 46.184C63.5014 46.584 62.7894 46.88 62.0214 47.072C61.2694 47.264 60.3974 47.36 59.4054 47.36ZM62.4054 40.256C62.4054 39.264 62.1254 38.488 61.5654 37.928C61.0214 37.368 60.1974 37.088 59.0934 37.088C57.9734 37.088 57.1094 37.376 56.5014 37.952C55.9094 38.528 55.6134 39.296 55.6134 40.256H62.4054ZM71.7812 47.36C70.4692 47.36 69.4132 47 68.6132 46.28C67.8132 45.544 67.4132 44.456 67.4132 43.016V36.368C67.4132 36.064 67.4772 35.84 67.6052 35.696C67.7492 35.552 67.9812 35.48 68.3012 35.48H69.5732C69.8932 35.48 70.1252 35.552 70.2692 35.696C70.4132 35.84 70.4852 36.064 70.4852 36.368V42.944C70.4852 43.712 70.6852 44.28 71.0852 44.648C71.4852 45 72.0772 45.176 72.8612 45.176C73.6932 45.176 74.3892 44.944 74.9492 44.48C75.5092 44.016 75.7892 43.416 75.7892 42.68V36.368C75.7892 36.064 75.8612 35.84 76.0052 35.696C76.1492 35.552 76.3812 35.48 76.7012 35.48H77.9492C78.2692 35.48 78.5012 35.552 78.6452 35.696C78.7892 35.84 78.8612 36.064 78.8612 36.368V46.352C78.8612 46.608 78.8212 46.784 78.7412 46.88C78.6612 46.96 78.4932 47 78.2372 47H76.8932C76.7172 47 76.5892 46.968 76.5092 46.904C76.4292 46.824 76.3812 46.704 76.3652 46.544L76.2692 45.536C75.1812 46.752 73.6852 47.36 71.7812 47.36ZM86.6814 47.36C85.7214 47.36 84.7854 47.256 83.8734 47.048C82.9614 46.856 82.1774 46.56 81.5214 46.16C81.3134 46.048 81.2094 45.928 81.2094 45.8C81.2094 45.704 81.2414 45.616 81.3054 45.536L81.9774 44.36C82.0574 44.216 82.1374 44.144 82.2174 44.144C82.2974 44.144 82.4014 44.184 82.5294 44.264C83.0094 44.552 83.6014 44.792 84.3054 44.984C85.0094 45.176 85.6574 45.272 86.2494 45.272C87.1614 45.272 87.8094 45.184 88.1934 45.008C88.5934 44.816 88.7934 44.48 88.7934 44C88.7934 43.728 88.7134 43.512 88.5534 43.352C88.4094 43.176 88.1854 43.024 87.8814 42.896C87.5774 42.768 87.0734 42.592 86.3694 42.368C86.3694 42.368 86.1054 42.28 85.5774 42.104C84.6654 41.8 83.9374 41.504 83.3934 41.216C82.8494 40.928 82.4254 40.568 82.1214 40.136C81.8334 39.688 81.6894 39.128 81.6894 38.456C81.6894 37.368 82.1454 36.544 83.0574 35.984C83.9854 35.408 85.1854 35.12 86.6574 35.12C88.4494 35.12 89.9934 35.504 91.2894 36.272C91.4974 36.384 91.6014 36.504 91.6014 36.632C91.6014 36.712 91.5614 36.816 91.4814 36.944L90.8334 37.976C90.7374 38.12 90.6574 38.192 90.5934 38.192C90.5294 38.192 90.4334 38.152 90.3054 38.072C89.8894 37.816 89.3854 37.616 88.7934 37.472C88.2174 37.312 87.6334 37.232 87.0414 37.232C86.2414 37.232 85.6494 37.32 85.2654 37.496C84.8974 37.656 84.7134 37.976 84.7134 38.456C84.7134 38.872 84.9294 39.2 85.3614 39.44C85.8094 39.68 86.5774 39.968 87.6654 40.304L88.4574 40.544C89.7054 40.944 90.5774 41.416 91.0734 41.96C91.5854 42.504 91.8414 43.184 91.8414 44C91.8414 44.992 91.4014 45.8 90.5214 46.424C89.6574 47.048 88.3774 47.36 86.6814 47.36ZM108.549 47.36C107.589 47.36 106.653 47.256 105.741 47.048C104.829 46.856 104.045 46.56 103.389 46.16C103.181 46.048 103.077 45.928 103.077 45.8C103.077 45.704 103.109 45.616 103.173 45.536L103.845 44.36C103.925 44.216 104.005 44.144 104.085 44.144C104.165 44.144 104.269 44.184 104.397 44.264C104.877 44.552 105.469 44.792 106.173 44.984C106.877 45.176 107.525 45.272 108.117 45.272C109.029 45.272 109.677 45.184 110.061 45.008C110.461 44.816 110.661 44.48 110.661 44C110.661 43.728 110.581 43.512 110.421 43.352C110.277 43.176 110.053 43.024 109.749 42.896C109.445 42.768 108.941 42.592 108.237 42.368C108.237 42.368 107.973 42.28 107.445 42.104C106.533 41.8 105.805 41.504 105.261 41.216C104.717 40.928 104.293 40.568 103.989 40.136C103.701 39.688 103.557 39.128 103.557 38.456C103.557 37.368 104.013 36.544 104.925 35.984C105.853 35.408 107.053 35.12 108.525 35.12C110.317 35.12 111.861 35.504 113.157 36.272C113.365 36.384 113.469 36.504 113.469 36.632C113.469 36.712 113.429 36.816 113.349 36.944L112.701 37.976C112.605 38.12 112.525 38.192 112.461 38.192C112.397 38.192 112.301 38.152 112.173 38.072C111.757 37.816 111.253 37.616 110.661 37.472C110.085 37.312 109.501 37.232 108.909 37.232C108.109 37.232 107.517 37.32 107.133 37.496C106.765 37.656 106.581 37.976 106.581 38.456C106.581 38.872 106.797 39.2 107.229 39.44C107.677 39.68 108.445 39.968 109.533 40.304L110.325 40.544C111.573 40.944 112.445 41.416 112.941 41.96C113.453 42.504 113.709 43.184 113.709 44C113.709 44.992 113.269 45.8 112.389 46.424C111.525 47.048 110.245 47.36 108.549 47.36ZM121.745 47.36C119.665 47.36 118.057 46.816 116.921 45.728C115.801 44.624 115.241 43.128 115.241 41.24C115.241 39.352 115.801 37.864 116.921 36.776C118.057 35.672 119.665 35.12 121.745 35.12C123.825 35.12 125.433 35.672 126.569 36.776C127.705 37.864 128.273 39.352 128.273 41.24C128.273 43.128 127.705 44.624 126.569 45.728C125.433 46.816 123.825 47.36 121.745 47.36ZM121.745 45.104C122.881 45.104 123.745 44.776 124.337 44.12C124.929 43.464 125.225 42.504 125.225 41.24C125.225 39.992 124.929 39.048 124.337 38.408C123.745 37.752 122.881 37.424 121.745 37.424C120.625 37.424 119.761 37.752 119.153 38.408C118.561 39.048 118.265 39.992 118.265 41.24C118.265 42.488 118.561 43.448 119.153 44.12C119.761 44.776 120.625 45.104 121.745 45.104ZM131.539 47C131.219 47 130.987 46.928 130.843 46.784C130.699 46.64 130.627 46.424 130.627 46.136V36.128C130.627 35.888 130.667 35.72 130.747 35.624C130.827 35.528 130.995 35.48 131.251 35.48H132.619C132.795 35.48 132.923 35.52 133.003 35.6C133.083 35.664 133.131 35.784 133.147 35.96L133.219 36.824C134.163 35.688 135.403 35.12 136.939 35.12C137.643 35.12 138.179 35.24 138.547 35.48C138.643 35.544 138.699 35.616 138.715 35.696C138.747 35.76 138.747 35.84 138.715 35.936L138.283 37.376C138.235 37.536 138.147 37.616 138.019 37.616L137.827 37.568C137.443 37.392 137.003 37.304 136.507 37.304C135.691 37.304 135.019 37.536 134.491 38C133.963 38.448 133.699 39.064 133.699 39.848V46.136C133.699 46.424 133.627 46.64 133.483 46.784C133.355 46.928 133.123 47 132.787 47H131.539ZM145.915 47.36C144.555 47.36 143.531 46.984 142.843 46.232C142.155 45.48 141.811 44.44 141.811 43.112V37.736H140.443C140.123 37.736 139.907 37.68 139.795 37.568C139.699 37.456 139.651 37.248 139.651 36.944V36.296C139.651 35.992 139.699 35.784 139.795 35.672C139.907 35.544 140.123 35.48 140.443 35.48H141.811V34.16C141.811 33.824 141.867 33.512 141.979 33.224C142.107 32.92 142.299 32.544 142.555 32.096C142.651 31.904 142.739 31.784 142.819 31.736C142.915 31.672 143.075 31.64 143.299 31.64H144.091C144.379 31.64 144.579 31.712 144.691 31.856C144.819 31.984 144.883 32.184 144.883 32.456V35.48H147.715C148.035 35.48 148.243 35.544 148.339 35.672C148.451 35.784 148.507 35.992 148.507 36.296V36.944C148.507 37.248 148.451 37.456 148.339 37.568C148.243 37.68 148.035 37.736 147.715 37.736H144.883V43.016C144.883 43.752 145.011 44.288 145.267 44.624C145.523 44.944 145.963 45.104 146.587 45.104C146.955 45.104 147.267 45.064 147.523 44.984C147.779 44.888 148.059 44.736 148.363 44.528C148.443 44.464 148.531 44.432 148.627 44.432C148.723 44.432 148.819 44.504 148.915 44.648L149.611 45.8C149.675 45.88 149.707 45.968 149.707 46.064C149.707 46.176 149.627 46.288 149.467 46.4C148.475 47.04 147.291 47.36 145.915 47.36ZM157.796 47.36C156.548 47.36 155.42 47.152 154.412 46.736C153.404 46.304 152.596 45.648 151.988 44.768C151.396 43.872 151.1 42.76 151.1 41.432C151.1 39.368 151.652 37.8 152.756 36.728C153.86 35.656 155.428 35.12 157.46 35.12C159.476 35.12 160.996 35.64 162.02 36.68C163.06 37.72 163.58 39.224 163.58 41.192C163.58 41.752 163.324 42.032 162.812 42.032H154.004C154.004 43.088 154.372 43.904 155.108 44.48C155.844 45.04 156.868 45.32 158.18 45.32C159.444 45.32 160.58 45.032 161.588 44.456C161.7 44.392 161.788 44.36 161.852 44.36C161.964 44.36 162.052 44.432 162.116 44.576L162.692 45.608C162.74 45.704 162.764 45.792 162.764 45.872C162.764 45.984 162.692 46.088 162.548 46.184C161.892 46.584 161.18 46.88 160.412 47.072C159.66 47.264 158.788 47.36 157.796 47.36ZM160.796 40.256C160.796 39.264 160.516 38.488 159.956 37.928C159.412 37.368 158.588 37.088 157.484 37.088C156.364 37.088 155.5 37.376 154.892 37.952C154.3 38.528 154.004 39.296 154.004 40.256H160.796ZM167.124 33.488C166.74 33.488 166.444 33.376 166.236 33.152C166.028 32.928 165.924 32.656 165.924 32.336V31.832C165.924 31.512 166.028 31.24 166.236 31.016C166.444 30.792 166.74 30.68 167.124 30.68H168.156C168.54 30.68 168.836 30.792 169.044 31.016C169.268 31.24 169.38 31.512 169.38 31.832V32.336C169.38 32.656 169.268 32.928 169.044 33.152C168.836 33.376 168.54 33.488 168.156 33.488H167.124ZM167.028 47C166.708 47 166.476 46.928 166.332 46.784C166.188 46.64 166.116 46.424 166.116 46.136V36.368C166.116 36.064 166.188 35.84 166.332 35.696C166.476 35.552 166.708 35.48 167.028 35.48H168.276C168.596 35.48 168.828 35.552 168.972 35.696C169.116 35.84 169.188 36.064 169.188 36.368V46.136C169.188 46.424 169.116 46.64 168.972 46.784C168.844 46.928 168.612 47 168.276 47H167.028ZM178.229 47.36C176.149 47.36 174.541 46.816 173.405 45.728C172.285 44.624 171.725 43.128 171.725 41.24C171.725 39.352 172.285 37.864 173.405 36.776C174.541 35.672 176.149 35.12 178.229 35.12C180.309 35.12 181.917 35.672 183.053 36.776C184.189 37.864 184.757 39.352 184.757 41.24C184.757 43.128 184.189 44.624 183.053 45.728C181.917 46.816 180.309 47.36 178.229 47.36ZM178.229 45.104C179.365 45.104 180.229 44.776 180.821 44.12C181.413 43.464 181.709 42.504 181.709 41.24C181.709 39.992 181.413 39.048 180.821 38.408C180.229 37.752 179.365 37.424 178.229 37.424C177.109 37.424 176.245 37.752 175.637 38.408C175.045 39.048 174.749 39.992 174.749 41.24C174.749 42.488 175.045 43.448 175.637 44.12C176.245 44.776 177.109 45.104 178.229 45.104ZM191.494 47.36C190.534 47.36 189.598 47.256 188.686 47.048C187.774 46.856 186.99 46.56 186.334 46.16C186.126 46.048 186.022 45.928 186.022 45.8C186.022 45.704 186.054 45.616 186.118 45.536L186.79 44.36C186.87 44.216 186.95 44.144 187.03 44.144C187.11 44.144 187.214 44.184 187.342 44.264C187.822 44.552 188.414 44.792 189.118 44.984C189.822 45.176 190.47 45.272 191.062 45.272C191.974 45.272 192.622 45.184 193.006 45.008C193.406 44.816 193.606 44.48 193.606 44C193.606 43.728 193.526 43.512 193.366 43.352C193.222 43.176 192.998 43.024 192.694 42.896C192.39 42.768 191.886 42.592 191.182 42.368C191.182 42.368 190.918 42.28 190.39 42.104C189.478 41.8 188.75 41.504 188.206 41.216C187.662 40.928 187.238 40.568 186.934 40.136C186.646 39.688 186.502 39.128 186.502 38.456C186.502 37.368 186.958 36.544 187.87 35.984C188.798 35.408 189.998 35.12 191.47 35.12C193.262 35.12 194.806 35.504 196.102 36.272C196.31 36.384 196.414 36.504 196.414 36.632C196.414 36.712 196.374 36.816 196.294 36.944L195.646 37.976C195.55 38.12 195.47 38.192 195.406 38.192C195.342 38.192 195.246 38.152 195.118 38.072C194.702 37.816 194.198 37.616 193.606 37.472C193.03 37.312 192.446 37.232 191.854 37.232C191.054 37.232 190.462 37.32 190.078 37.496C189.71 37.656 189.526 37.976 189.526 38.456C189.526 38.872 189.742 39.2 190.174 39.44C190.622 39.68 191.39 39.968 192.478 40.304L193.27 40.544C194.518 40.944 195.39 41.416 195.886 41.96C196.398 42.504 196.654 43.184 196.654 44C196.654 44.992 196.214 45.8 195.334 46.424C194.47 47.048 193.19 47.36 191.494 47.36Z" fill="#CCDAE7"/>
<path d="M90.832 101.24C90.0747 101.24 89.328 101.16 88.592 101C87.8667 100.829 87.2853 100.595 86.848 100.296C86.7093 100.2 86.64 100.115 86.64 100.04C86.64 99.9653 86.6613 99.9013 86.704 99.848L87.232 99.016C87.296 98.92 87.3547 98.872 87.408 98.872C87.4613 98.872 87.5307 98.8987 87.616 98.952C88.0107 99.1867 88.4693 99.3787 88.992 99.528C89.5147 99.6667 90.0427 99.736 90.576 99.736C91.3013 99.736 91.8453 99.6187 92.208 99.384C92.5813 99.1387 92.768 98.7493 92.768 98.216C92.768 97.896 92.6987 97.64 92.56 97.448C92.4213 97.256 92.2187 97.0907 91.952 96.952C91.6853 96.8133 91.2533 96.6267 90.656 96.392L90.288 96.248C89.5947 95.9707 89.0187 95.704 88.56 95.448C88.112 95.192 87.7387 94.856 87.44 94.44C87.1413 94.024 86.992 93.5173 86.992 92.92C86.992 91.9493 87.36 91.2027 88.096 90.68C88.8427 90.1467 89.8187 89.88 91.024 89.88C91.76 89.88 92.3947 89.9493 92.928 90.088C93.472 90.2267 93.9413 90.44 94.336 90.728C94.464 90.824 94.528 90.9147 94.528 91C94.528 91.064 94.5067 91.1227 94.464 91.176L93.952 92.008C93.888 92.104 93.8347 92.152 93.792 92.152C93.7493 92.152 93.68 92.12 93.584 92.056C92.9013 91.6187 92.0533 91.4 91.04 91.4C90.368 91.4 89.8613 91.5227 89.52 91.768C89.1787 92.0133 89.008 92.4027 89.008 92.936C89.008 93.2667 89.0773 93.5333 89.216 93.736C89.3653 93.928 89.5787 94.0933 89.856 94.232C90.1333 94.3707 90.5813 94.5573 91.2 94.792L91.6 94.952C92.3787 95.2613 92.9867 95.5493 93.424 95.816C93.8613 96.072 94.1973 96.3973 94.432 96.792C94.6773 97.176 94.8 97.672 94.8 98.28C94.8 99.1973 94.4533 99.9227 93.76 100.456C93.0773 100.979 92.1013 101.24 90.832 101.24ZM100.148 101.24C98.7608 101.24 97.6888 100.877 96.9315 100.152C96.1848 99.416 95.8115 98.4187 95.8115 97.16C95.8115 95.9013 96.1848 94.9093 96.9315 94.184C97.6888 93.448 98.7608 93.08 100.148 93.08C101.534 93.08 102.606 93.448 103.364 94.184C104.121 94.9093 104.5 95.9013 104.5 97.16C104.5 98.4187 104.121 99.416 103.364 100.152C102.606 100.877 101.534 101.24 100.148 101.24ZM100.148 99.736C100.905 99.736 101.481 99.5173 101.876 99.08C102.27 98.6427 102.468 98.0027 102.468 97.16C102.468 96.328 102.27 95.6987 101.876 95.272C101.481 94.8347 100.905 94.616 100.148 94.616C99.4008 94.616 98.8248 94.8347 98.4195 95.272C98.0248 95.6987 97.8275 96.328 97.8275 97.16C97.8275 97.992 98.0248 98.632 98.4195 99.08C98.8248 99.5173 99.4008 99.736 100.148 99.736ZM106.677 101C106.464 101 106.309 100.952 106.213 100.856C106.117 100.76 106.069 100.616 106.069 100.424V93.752C106.069 93.592 106.096 93.48 106.149 93.416C106.202 93.352 106.314 93.32 106.485 93.32H107.397C107.514 93.32 107.6 93.3467 107.653 93.4C107.706 93.4427 107.738 93.5227 107.749 93.64L107.797 94.216C108.426 93.4587 109.253 93.08 110.277 93.08C110.746 93.08 111.104 93.16 111.349 93.32C111.413 93.3627 111.45 93.4107 111.461 93.464C111.482 93.5067 111.482 93.56 111.461 93.624L111.173 94.584C111.141 94.6907 111.082 94.744 110.997 94.744L110.869 94.712C110.613 94.5947 110.32 94.536 109.989 94.536C109.445 94.536 108.997 94.6907 108.645 95C108.293 95.2987 108.117 95.7093 108.117 96.232V100.424C108.117 100.616 108.069 100.76 107.973 100.856C107.888 100.952 107.733 101 107.509 101H106.677ZM116.261 101.24C115.355 101.24 114.672 100.989 114.213 100.488C113.755 99.9867 113.525 99.2933 113.525 98.408V94.824H112.613C112.4 94.824 112.256 94.7867 112.181 94.712C112.117 94.6373 112.085 94.4987 112.085 94.296V93.864C112.085 93.6613 112.117 93.5227 112.181 93.448C112.256 93.3627 112.4 93.32 112.613 93.32H113.525V92.44C113.525 92.216 113.563 92.008 113.637 91.816C113.723 91.6133 113.851 91.3627 114.021 91.064C114.085 90.936 114.144 90.856 114.197 90.824C114.261 90.7813 114.368 90.76 114.517 90.76H115.045C115.237 90.76 115.371 90.808 115.445 90.904C115.531 90.9893 115.573 91.1227 115.573 91.304V93.32H117.461C117.675 93.32 117.813 93.3627 117.877 93.448C117.952 93.5227 117.989 93.6613 117.989 93.864V94.296C117.989 94.4987 117.952 94.6373 117.877 94.712C117.813 94.7867 117.675 94.824 117.461 94.824H115.573V98.344C115.573 98.8347 115.659 99.192 115.829 99.416C116 99.6293 116.293 99.736 116.709 99.736C116.955 99.736 117.163 99.7093 117.333 99.656C117.504 99.592 117.691 99.4907 117.893 99.352C117.947 99.3093 118.005 99.288 118.069 99.288C118.133 99.288 118.197 99.336 118.261 99.432L118.725 100.2C118.768 100.253 118.789 100.312 118.789 100.376C118.789 100.451 118.736 100.525 118.629 100.6C117.968 101.027 117.179 101.24 116.261 101.24ZM124.182 101.24C123.35 101.24 122.598 101.101 121.926 100.824C121.254 100.536 120.715 100.099 120.31 99.512C119.915 98.9147 119.718 98.1733 119.718 97.288C119.718 95.912 120.086 94.8667 120.822 94.152C121.558 93.4373 122.603 93.08 123.958 93.08C125.302 93.08 126.315 93.4267 126.998 94.12C127.691 94.8133 128.038 95.816 128.038 97.128C128.038 97.5013 127.867 97.688 127.526 97.688H121.654C121.654 98.392 121.899 98.936 122.39 99.32C122.88 99.6933 123.563 99.88 124.438 99.88C125.28 99.88 126.038 99.688 126.71 99.304C126.784 99.2613 126.843 99.24 126.886 99.24C126.96 99.24 127.019 99.288 127.062 99.384L127.446 100.072C127.478 100.136 127.494 100.195 127.494 100.248C127.494 100.323 127.446 100.392 127.35 100.456C126.912 100.723 126.438 100.92 125.926 101.048C125.424 101.176 124.843 101.24 124.182 101.24ZM126.182 96.504C126.182 95.8427 125.995 95.3253 125.622 94.952C125.259 94.5787 124.71 94.392 123.974 94.392C123.227 94.392 122.651 94.584 122.246 94.968C121.851 95.352 121.654 95.864 121.654 96.504H126.182ZM130.4 91.992C130.144 91.992 129.947 91.9173 129.808 91.768C129.67 91.6187 129.6 91.4373 129.6 91.224V90.888C129.6 90.6747 129.67 90.4933 129.808 90.344C129.947 90.1947 130.144 90.12 130.4 90.12H131.088C131.344 90.12 131.542 90.1947 131.68 90.344C131.83 90.4933 131.904 90.6747 131.904 90.888V91.224C131.904 91.4373 131.83 91.6187 131.68 91.768C131.542 91.9173 131.344 91.992 131.088 91.992H130.4ZM130.336 101C130.123 101 129.968 100.952 129.872 100.856C129.776 100.76 129.728 100.616 129.728 100.424V93.912C129.728 93.7093 129.776 93.56 129.872 93.464C129.968 93.368 130.123 93.32 130.336 93.32H131.168C131.382 93.32 131.536 93.368 131.632 93.464C131.728 93.56 131.776 93.7093 131.776 93.912V100.424C131.776 100.616 131.728 100.76 131.632 100.856C131.547 100.952 131.392 101 131.168 101H130.336ZM137.804 101.24C136.417 101.24 135.345 100.877 134.588 100.152C133.841 99.416 133.468 98.4187 133.468 97.16C133.468 95.9013 133.841 94.9093 134.588 94.184C135.345 93.448 136.417 93.08 137.804 93.08C139.19 93.08 140.262 93.448 141.02 94.184C141.777 94.9093 142.156 95.9013 142.156 97.16C142.156 98.4187 141.777 99.416 141.02 100.152C140.262 100.877 139.19 101.24 137.804 101.24ZM137.804 99.736C138.561 99.736 139.137 99.5173 139.532 99.08C139.926 98.6427 140.124 98.0027 140.124 97.16C140.124 96.328 139.926 95.6987 139.532 95.272C139.137 94.8347 138.561 94.616 137.804 94.616C137.057 94.616 136.481 94.8347 136.076 95.272C135.681 95.6987 135.484 96.328 135.484 97.16C135.484 97.992 135.681 98.632 136.076 99.08C136.481 99.5173 137.057 99.736 137.804 99.736ZM150.76 91.992C150.504 91.992 150.306 91.9173 150.168 91.768C150.029 91.6187 149.96 91.4373 149.96 91.224V90.888C149.96 90.6747 150.029 90.4933 150.168 90.344C150.306 90.1947 150.504 90.12 150.76 90.12H151.448C151.704 90.12 151.901 90.1947 152.04 90.344C152.189 90.4933 152.264 90.6747 152.264 90.888V91.224C152.264 91.4373 152.189 91.6187 152.04 91.768C151.901 91.9173 151.704 91.992 151.448 91.992H150.76ZM150.696 101C150.482 101 150.328 100.952 150.232 100.856C150.136 100.76 150.088 100.616 150.088 100.424V93.912C150.088 93.7093 150.136 93.56 150.232 93.464C150.328 93.368 150.482 93.32 150.696 93.32H151.528C151.741 93.32 151.896 93.368 151.992 93.464C152.088 93.56 152.136 93.7093 152.136 93.912V100.424C152.136 100.616 152.088 100.76 151.992 100.856C151.906 100.952 151.752 101 151.528 101H150.696ZM154.755 101C154.542 101 154.387 100.952 154.291 100.856C154.195 100.76 154.147 100.616 154.147 100.424V93.752C154.147 93.592 154.174 93.48 154.227 93.416C154.28 93.352 154.392 93.32 154.563 93.32H155.475C155.71 93.32 155.832 93.4267 155.843 93.64L155.875 94.28C156.6 93.48 157.64 93.08 158.995 93.08C159.859 93.08 160.552 93.3147 161.075 93.784C161.608 94.2427 161.875 94.936 161.875 95.864V100.424C161.875 100.616 161.827 100.76 161.731 100.856C161.646 100.952 161.496 101 161.283 101H160.435C160.222 101 160.067 100.952 159.971 100.856C159.875 100.76 159.827 100.616 159.827 100.424V95.992C159.827 95.4693 159.704 95.1013 159.459 94.888C159.224 94.664 158.84 94.552 158.307 94.552C157.742 94.552 157.246 94.7067 156.819 95.016C156.403 95.3147 156.195 95.704 156.195 96.184V100.424C156.195 100.616 156.147 100.76 156.051 100.856C155.966 100.952 155.811 101 155.587 101H154.755ZM167.006 101.24C166.366 101.24 165.742 101.171 165.134 101.032C164.526 100.904 164.004 100.707 163.566 100.44C163.428 100.365 163.358 100.285 163.358 100.2C163.358 100.136 163.38 100.077 163.422 100.024L163.87 99.24C163.924 99.144 163.977 99.096 164.03 99.096C164.084 99.096 164.153 99.1227 164.238 99.176C164.558 99.368 164.953 99.528 165.422 99.656C165.892 99.784 166.324 99.848 166.718 99.848C167.326 99.848 167.758 99.7893 168.014 99.672C168.281 99.544 168.414 99.32 168.414 99C168.414 98.8187 168.361 98.6747 168.254 98.568C168.158 98.4507 168.009 98.3493 167.806 98.264C167.604 98.1787 167.268 98.0613 166.798 97.912C166.798 97.912 166.622 97.8533 166.27 97.736C165.662 97.5333 165.177 97.336 164.814 97.144C164.452 96.952 164.169 96.712 163.966 96.424C163.774 96.1253 163.678 95.752 163.678 95.304C163.678 94.5787 163.982 94.0293 164.59 93.656C165.209 93.272 166.009 93.08 166.99 93.08C168.185 93.08 169.214 93.336 170.078 93.848C170.217 93.9227 170.286 94.0027 170.286 94.088C170.286 94.1413 170.26 94.2107 170.206 94.296L169.774 94.984C169.71 95.08 169.657 95.128 169.614 95.128C169.572 95.128 169.508 95.1013 169.422 95.048C169.145 94.8773 168.809 94.744 168.414 94.648C168.03 94.5413 167.641 94.488 167.246 94.488C166.713 94.488 166.318 94.5467 166.062 94.664C165.817 94.7707 165.694 94.984 165.694 95.304C165.694 95.5813 165.838 95.8 166.126 95.96C166.425 96.12 166.937 96.312 167.662 96.536L168.19 96.696C169.022 96.9627 169.604 97.2773 169.934 97.64C170.276 98.0027 170.446 98.456 170.446 99C170.446 99.6613 170.153 100.2 169.566 100.616C168.99 101.032 168.137 101.24 167.006 101.24ZM175.808 101.24C174.389 101.24 173.28 100.893 172.48 100.2C171.691 99.496 171.296 98.4933 171.296 97.192C171.296 96.3813 171.477 95.6667 171.84 95.048C172.203 94.4293 172.72 93.9493 173.392 93.608C174.075 93.256 174.869 93.08 175.776 93.08C176.448 93.08 177.019 93.144 177.488 93.272C177.957 93.4 178.395 93.608 178.8 93.896C178.896 93.96 178.944 94.0293 178.944 94.104C178.944 94.168 178.917 94.2427 178.864 94.328L178.432 95.08C178.368 95.1867 178.309 95.24 178.256 95.24C178.203 95.24 178.128 95.208 178.032 95.144C177.701 94.9413 177.371 94.792 177.04 94.696C176.72 94.5893 176.336 94.536 175.888 94.536C175.088 94.536 174.459 94.776 174 95.256C173.541 95.7253 173.312 96.3707 173.312 97.192C173.312 98.056 173.541 98.7067 174 99.144C174.459 99.5707 175.131 99.784 176.016 99.784C176.464 99.784 176.853 99.7307 177.184 99.624C177.515 99.5173 177.835 99.3627 178.144 99.16C178.229 99.1067 178.299 99.08 178.352 99.08C178.416 99.08 178.48 99.1333 178.544 99.24L179.008 100.024C179.051 100.077 179.072 100.136 179.072 100.2C179.072 100.275 179.019 100.349 178.912 100.424C178.485 100.701 178.027 100.904 177.536 101.032C177.045 101.171 176.469 101.24 175.808 101.24ZM181.271 101C181.057 101 180.903 100.952 180.807 100.856C180.711 100.76 180.663 100.616 180.663 100.424V93.752C180.663 93.592 180.689 93.48 180.743 93.416C180.796 93.352 180.908 93.32 181.079 93.32H181.991C182.108 93.32 182.193 93.3467 182.247 93.4C182.3 93.4427 182.332 93.5227 182.343 93.64L182.391 94.216C183.02 93.4587 183.847 93.08 184.871 93.08C185.34 93.08 185.697 93.16 185.943 93.32C186.007 93.3627 186.044 93.4107 186.055 93.464C186.076 93.5067 186.076 93.56 186.055 93.624L185.767 94.584C185.735 94.6907 185.676 94.744 185.591 94.744L185.463 94.712C185.207 94.5947 184.913 94.536 184.583 94.536C184.039 94.536 183.591 94.6907 183.239 95C182.887 95.2987 182.711 95.7093 182.711 96.232V100.424C182.711 100.616 182.663 100.76 182.567 100.856C182.481 100.952 182.327 101 182.103 101H181.271ZM188.119 91.992C187.863 91.992 187.666 91.9173 187.527 91.768C187.388 91.6187 187.319 91.4373 187.319 91.224V90.888C187.319 90.6747 187.388 90.4933 187.527 90.344C187.666 90.1947 187.863 90.12 188.119 90.12H188.807C189.063 90.12 189.26 90.1947 189.399 90.344C189.548 90.4933 189.623 90.6747 189.623 90.888V91.224C189.623 91.4373 189.548 91.6187 189.399 91.768C189.26 91.9173 189.063 91.992 188.807 91.992H188.119ZM188.055 101C187.842 101 187.687 100.952 187.591 100.856C187.495 100.76 187.447 100.616 187.447 100.424V93.912C187.447 93.7093 187.495 93.56 187.591 93.464C187.687 93.368 187.842 93.32 188.055 93.32H188.887C189.1 93.32 189.255 93.368 189.351 93.464C189.447 93.56 189.495 93.7093 189.495 93.912V100.424C189.495 100.616 189.447 100.76 189.351 100.856C189.266 100.952 189.111 101 188.887 101H188.055ZM195.043 101.24C194.136 101.24 193.453 100.989 192.995 100.488C192.536 99.9867 192.307 99.2933 192.307 98.408V94.824H191.395C191.181 94.824 191.037 94.7867 190.963 94.712C190.899 94.6373 190.867 94.4987 190.867 94.296V93.864C190.867 93.6613 190.899 93.5227 190.963 93.448C191.037 93.3627 191.181 93.32 191.395 93.32H192.307V92.44C192.307 92.216 192.344 92.008 192.419 91.816C192.504 91.6133 192.632 91.3627 192.803 91.064C192.867 90.936 192.925 90.856 192.979 90.824C193.043 90.7813 193.149 90.76 193.299 90.76H193.827C194.019 90.76 194.152 90.808 194.227 90.904C194.312 90.9893 194.355 91.1227 194.355 91.304V93.32H196.243C196.456 93.32 196.595 93.3627 196.659 93.448C196.733 93.5227 196.771 93.6613 196.771 93.864V94.296C196.771 94.4987 196.733 94.6373 196.659 94.712C196.595 94.7867 196.456 94.824 196.243 94.824H194.355V98.344C194.355 98.8347 194.44 99.192 194.611 99.416C194.781 99.6293 195.075 99.736 195.491 99.736C195.736 99.736 195.944 99.7093 196.115 99.656C196.285 99.592 196.472 99.4907 196.675 99.352C196.728 99.3093 196.787 99.288 196.851 99.288C196.915 99.288 196.979 99.336 197.043 99.432L197.507 100.2C197.549 100.253 197.571 100.312 197.571 100.376C197.571 100.451 197.517 100.525 197.411 100.6C196.749 101.027 195.96 101.24 195.043 101.24ZM202.273 101.24C200.886 101.24 199.814 100.877 199.057 100.152C198.31 99.416 197.937 98.4187 197.937 97.16C197.937 95.9013 198.31 94.9093 199.057 94.184C199.814 93.448 200.886 93.08 202.273 93.08C203.659 93.08 204.731 93.448 205.489 94.184C206.246 94.9093 206.625 95.9013 206.625 97.16C206.625 98.4187 206.246 99.416 205.489 100.152C204.731 100.877 203.659 101.24 202.273 101.24ZM202.273 99.736C203.03 99.736 203.606 99.5173 204.001 99.08C204.395 98.6427 204.593 98.0027 204.593 97.16C204.593 96.328 204.395 95.6987 204.001 95.272C203.606 94.8347 203.03 94.616 202.273 94.616C201.526 94.616 200.95 94.8347 200.545 95.272C200.15 95.6987 199.953 96.328 199.953 97.16C199.953 97.992 200.15 98.632 200.545 99.08C200.95 99.5173 201.526 99.736 202.273 99.736ZM211.116 101.24C210.476 101.24 209.852 101.171 209.244 101.032C208.636 100.904 208.113 100.707 207.676 100.44C207.537 100.365 207.468 100.285 207.468 100.2C207.468 100.136 207.489 100.077 207.532 100.024L207.98 99.24C208.033 99.144 208.086 99.096 208.14 99.096C208.193 99.096 208.262 99.1227 208.348 99.176C208.668 99.368 209.062 99.528 209.532 99.656C210.001 99.784 210.433 99.848 210.828 99.848C211.436 99.848 211.868 99.7893 212.124 99.672C212.39 99.544 212.524 99.32 212.524 99C212.524 98.8187 212.47 98.6747 212.364 98.568C212.268 98.4507 212.118 98.3493 211.916 98.264C211.713 98.1787 211.377 98.0613 210.908 97.912C210.908 97.912 210.732 97.8533 210.38 97.736C209.772 97.5333 209.286 97.336 208.924 97.144C208.561 96.952 208.278 96.712 208.076 96.424C207.884 96.1253 207.788 95.752 207.788 95.304C207.788 94.5787 208.092 94.0293 208.7 93.656C209.318 93.272 210.118 93.08 211.1 93.08C212.294 93.08 213.324 93.336 214.188 93.848C214.326 93.9227 214.396 94.0027 214.396 94.088C214.396 94.1413 214.369 94.2107 214.316 94.296L213.884 94.984C213.82 95.08 213.766 95.128 213.724 95.128C213.681 95.128 213.617 95.1013 213.532 95.048C213.254 94.8773 212.918 94.744 212.524 94.648C212.14 94.5413 211.75 94.488 211.356 94.488C210.822 94.488 210.428 94.5467 210.172 94.664C209.926 94.7707 209.804 94.984 209.804 95.304C209.804 95.5813 209.948 95.8 210.236 95.96C210.534 96.12 211.046 96.312 211.772 96.536L212.3 96.696C213.132 96.9627 213.713 97.2773 214.044 97.64C214.385 98.0027 214.556 98.456 214.556 99C214.556 99.6613 214.262 100.2 213.676 100.616C213.1 101.032 212.246 101.24 211.116 101.24Z" fill="#CCDAE7"/>
<path d="M90.832 152.24C90.0747 152.24 89.328 152.16 88.592 152C87.8667 151.829 87.2853 151.595 86.848 151.296C86.7093 151.2 86.64 151.115 86.64 151.04C86.64 150.965 86.6613 150.901 86.704 150.848L87.232 150.016C87.296 149.92 87.3547 149.872 87.408 149.872C87.4613 149.872 87.5307 149.899 87.616 149.952C88.0107 150.187 88.4693 150.379 88.992 150.528C89.5147 150.667 90.0427 150.736 90.576 150.736C91.3013 150.736 91.8453 150.619 92.208 150.384C92.5813 150.139 92.768 149.749 92.768 149.216C92.768 148.896 92.6987 148.64 92.56 148.448C92.4213 148.256 92.2187 148.091 91.952 147.952C91.6853 147.813 91.2533 147.627 90.656 147.392L90.288 147.248C89.5947 146.971 89.0187 146.704 88.56 146.448C88.112 146.192 87.7387 145.856 87.44 145.44C87.1413 145.024 86.992 144.517 86.992 143.92C86.992 142.949 87.36 142.203 88.096 141.68C88.8427 141.147 89.8187 140.88 91.024 140.88C91.76 140.88 92.3947 140.949 92.928 141.088C93.472 141.227 93.9413 141.44 94.336 141.728C94.464 141.824 94.528 141.915 94.528 142C94.528 142.064 94.5067 142.123 94.464 142.176L93.952 143.008C93.888 143.104 93.8347 143.152 93.792 143.152C93.7493 143.152 93.68 143.12 93.584 143.056C92.9013 142.619 92.0533 142.4 91.04 142.4C90.368 142.4 89.8613 142.523 89.52 142.768C89.1787 143.013 89.008 143.403 89.008 143.936C89.008 144.267 89.0773 144.533 89.216 144.736C89.3653 144.928 89.5787 145.093 89.856 145.232C90.1333 145.371 90.5813 145.557 91.2 145.792L91.6 145.952C92.3787 146.261 92.9867 146.549 93.424 146.816C93.8613 147.072 94.1973 147.397 94.432 147.792C94.6773 148.176 94.8 148.672 94.8 149.28C94.8 150.197 94.4533 150.923 93.76 151.456C93.0773 151.979 92.1013 152.24 90.832 152.24ZM100.148 152.24C98.7608 152.24 97.6888 151.877 96.9315 151.152C96.1848 150.416 95.8115 149.419 95.8115 148.16C95.8115 146.901 96.1848 145.909 96.9315 145.184C97.6888 144.448 98.7608 144.08 100.148 144.08C101.534 144.08 102.606 144.448 103.364 145.184C104.121 145.909 104.5 146.901 104.5 148.16C104.5 149.419 104.121 150.416 103.364 151.152C102.606 151.877 101.534 152.24 100.148 152.24ZM100.148 150.736C100.905 150.736 101.481 150.517 101.876 150.08C102.27 149.643 102.468 149.003 102.468 148.16C102.468 147.328 102.27 146.699 101.876 146.272C101.481 145.835 100.905 145.616 100.148 145.616C99.4008 145.616 98.8248 145.835 98.4195 146.272C98.0248 146.699 97.8275 147.328 97.8275 148.16C97.8275 148.992 98.0248 149.632 98.4195 150.08C98.8248 150.517 99.4008 150.736 100.148 150.736ZM106.677 152C106.464 152 106.309 151.952 106.213 151.856C106.117 151.76 106.069 151.616 106.069 151.424V144.752C106.069 144.592 106.096 144.48 106.149 144.416C106.202 144.352 106.314 144.32 106.485 144.32H107.397C107.514 144.32 107.6 144.347 107.653 144.4C107.706 144.443 107.738 144.523 107.749 144.64L107.797 145.216C108.426 144.459 109.253 144.08 110.277 144.08C110.746 144.08 111.104 144.16 111.349 144.32C111.413 144.363 111.45 144.411 111.461 144.464C111.482 144.507 111.482 144.56 111.461 144.624L111.173 145.584C111.141 145.691 111.082 145.744 110.997 145.744L110.869 145.712C110.613 145.595 110.32 145.536 109.989 145.536C109.445 145.536 108.997 145.691 108.645 146C108.293 146.299 108.117 146.709 108.117 147.232V151.424C108.117 151.616 108.069 151.76 107.973 151.856C107.888 151.952 107.733 152 107.509 152H106.677ZM116.261 152.24C115.355 152.24 114.672 151.989 114.213 151.488C113.755 150.987 113.525 150.293 113.525 149.408V145.824H112.613C112.4 145.824 112.256 145.787 112.181 145.712C112.117 145.637 112.085 145.499 112.085 145.296V144.864C112.085 144.661 112.117 144.523 112.181 144.448C112.256 144.363 112.4 144.32 112.613 144.32H113.525V143.44C113.525 143.216 113.563 143.008 113.637 142.816C113.723 142.613 113.851 142.363 114.021 142.064C114.085 141.936 114.144 141.856 114.197 141.824C114.261 141.781 114.368 141.76 114.517 141.76H115.045C115.237 141.76 115.371 141.808 115.445 141.904C115.531 141.989 115.573 142.123 115.573 142.304V144.32H117.461C117.675 144.32 117.813 144.363 117.877 144.448C117.952 144.523 117.989 144.661 117.989 144.864V145.296C117.989 145.499 117.952 145.637 117.877 145.712C117.813 145.787 117.675 145.824 117.461 145.824H115.573V149.344C115.573 149.835 115.659 150.192 115.829 150.416C116 150.629 116.293 150.736 116.709 150.736C116.955 150.736 117.163 150.709 117.333 150.656C117.504 150.592 117.691 150.491 117.893 150.352C117.947 150.309 118.005 150.288 118.069 150.288C118.133 150.288 118.197 150.336 118.261 150.432L118.725 151.2C118.768 151.253 118.789 151.312 118.789 151.376C118.789 151.451 118.736 151.525 118.629 151.6C117.968 152.027 117.179 152.24 116.261 152.24ZM124.182 152.24C123.35 152.24 122.598 152.101 121.926 151.824C121.254 151.536 120.715 151.099 120.31 150.512C119.915 149.915 119.718 149.173 119.718 148.288C119.718 146.912 120.086 145.867 120.822 145.152C121.558 144.437 122.603 144.08 123.958 144.08C125.302 144.08 126.315 144.427 126.998 145.12C127.691 145.813 128.038 146.816 128.038 148.128C128.038 148.501 127.867 148.688 127.526 148.688H121.654C121.654 149.392 121.899 149.936 122.39 150.32C122.88 150.693 123.563 150.88 124.438 150.88C125.28 150.88 126.038 150.688 126.71 150.304C126.784 150.261 126.843 150.24 126.886 150.24C126.96 150.24 127.019 150.288 127.062 150.384L127.446 151.072C127.478 151.136 127.494 151.195 127.494 151.248C127.494 151.323 127.446 151.392 127.35 151.456C126.912 151.723 126.438 151.92 125.926 152.048C125.424 152.176 124.843 152.24 124.182 152.24ZM126.182 147.504C126.182 146.843 125.995 146.325 125.622 145.952C125.259 145.579 124.71 145.392 123.974 145.392C123.227 145.392 122.651 145.584 122.246 145.968C121.851 146.352 121.654 146.864 121.654 147.504H126.182ZM130.4 142.992C130.144 142.992 129.947 142.917 129.808 142.768C129.67 142.619 129.6 142.437 129.6 142.224V141.888C129.6 141.675 129.67 141.493 129.808 141.344C129.947 141.195 130.144 141.12 130.4 141.12H131.088C131.344 141.12 131.542 141.195 131.68 141.344C131.83 141.493 131.904 141.675 131.904 141.888V142.224C131.904 142.437 131.83 142.619 131.68 142.768C131.542 142.917 131.344 142.992 131.088 142.992H130.4ZM130.336 152C130.123 152 129.968 151.952 129.872 151.856C129.776 151.76 129.728 151.616 129.728 151.424V144.912C129.728 144.709 129.776 144.56 129.872 144.464C129.968 144.368 130.123 144.32 130.336 144.32H131.168C131.382 144.32 131.536 144.368 131.632 144.464C131.728 144.56 131.776 144.709 131.776 144.912V151.424C131.776 151.616 131.728 151.76 131.632 151.856C131.547 151.952 131.392 152 131.168 152H130.336ZM137.804 152.24C136.417 152.24 135.345 151.877 134.588 151.152C133.841 150.416 133.468 149.419 133.468 148.16C133.468 146.901 133.841 145.909 134.588 145.184C135.345 144.448 136.417 144.08 137.804 144.08C139.19 144.08 140.262 144.448 141.02 145.184C141.777 145.909 142.156 146.901 142.156 148.16C142.156 149.419 141.777 150.416 141.02 151.152C140.262 151.877 139.19 152.24 137.804 152.24ZM137.804 150.736C138.561 150.736 139.137 150.517 139.532 150.08C139.926 149.643 140.124 149.003 140.124 148.16C140.124 147.328 139.926 146.699 139.532 146.272C139.137 145.835 138.561 145.616 137.804 145.616C137.057 145.616 136.481 145.835 136.076 146.272C135.681 146.699 135.484 147.328 135.484 148.16C135.484 148.992 135.681 149.632 136.076 150.08C136.481 150.517 137.057 150.736 137.804 150.736ZM154.152 152.24C152.733 152.24 151.624 151.893 150.824 151.2C150.034 150.496 149.64 149.493 149.64 148.192C149.64 147.381 149.821 146.667 150.184 146.048C150.546 145.429 151.064 144.949 151.736 144.608C152.418 144.256 153.213 144.08 154.12 144.08C154.792 144.08 155.362 144.144 155.832 144.272C156.301 144.4 156.738 144.608 157.144 144.896C157.24 144.96 157.288 145.029 157.288 145.104C157.288 145.168 157.261 145.243 157.208 145.328L156.776 146.08C156.712 146.187 156.653 146.24 156.6 146.24C156.546 146.24 156.472 146.208 156.376 146.144C156.045 145.941 155.714 145.792 155.384 145.696C155.064 145.589 154.68 145.536 154.232 145.536C153.432 145.536 152.802 145.776 152.344 146.256C151.885 146.725 151.656 147.371 151.656 148.192C151.656 149.056 151.885 149.707 152.344 150.144C152.802 150.571 153.474 150.784 154.36 150.784C154.808 150.784 155.197 150.731 155.528 150.624C155.858 150.517 156.178 150.363 156.488 150.16C156.573 150.107 156.642 150.08 156.696 150.08C156.76 150.08 156.824 150.133 156.888 150.24L157.352 151.024C157.394 151.077 157.416 151.136 157.416 151.2C157.416 151.275 157.362 151.349 157.256 151.424C156.829 151.701 156.37 151.904 155.88 152.032C155.389 152.171 154.813 152.24 154.152 152.24ZM163.023 152.24C161.636 152.24 160.564 151.877 159.807 151.152C159.06 150.416 158.687 149.419 158.687 148.16C158.687 146.901 159.06 145.909 159.807 145.184C160.564 144.448 161.636 144.08 163.023 144.08C164.409 144.08 165.481 144.448 166.239 145.184C166.996 145.909 167.375 146.901 167.375 148.16C167.375 149.419 166.996 150.416 166.239 151.152C165.481 151.877 164.409 152.24 163.023 152.24ZM163.023 150.736C163.78 150.736 164.356 150.517 164.751 150.08C165.145 149.643 165.343 149.003 165.343 148.16C165.343 147.328 165.145 146.699 164.751 146.272C164.356 145.835 163.78 145.616 163.023 145.616C162.276 145.616 161.7 145.835 161.295 146.272C160.9 146.699 160.703 147.328 160.703 148.16C160.703 148.992 160.9 149.632 161.295 150.08C161.7 150.517 162.276 150.736 163.023 150.736ZM169.552 152C169.339 152 169.184 151.952 169.088 151.856C168.992 151.76 168.944 151.616 168.944 151.424V144.752C168.944 144.592 168.971 144.48 169.024 144.416C169.077 144.352 169.189 144.32 169.36 144.32H170.208C170.325 144.32 170.411 144.347 170.464 144.4C170.517 144.443 170.549 144.523 170.56 144.64L170.608 145.312C170.917 144.917 171.269 144.613 171.664 144.4C172.069 144.187 172.549 144.08 173.104 144.08C173.573 144.08 173.979 144.187 174.32 144.4C174.672 144.603 174.928 144.907 175.088 145.312C175.675 144.491 176.523 144.08 177.632 144.08C178.389 144.08 178.987 144.309 179.424 144.768C179.872 145.227 180.096 145.909 180.096 146.816V151.424C180.096 151.616 180.048 151.76 179.952 151.856C179.867 151.952 179.712 152 179.488 152H178.784C178.571 152 178.416 151.952 178.32 151.856C178.224 151.76 178.176 151.616 178.176 151.424V146.928C178.176 146.437 178.069 146.085 177.856 145.872C177.653 145.659 177.344 145.552 176.928 145.552C176.491 145.552 176.133 145.696 175.856 145.984C175.589 146.272 175.456 146.661 175.456 147.152V151.424C175.456 151.616 175.408 151.76 175.312 151.856C175.216 151.952 175.061 152 174.848 152H174.192C173.979 152 173.824 151.952 173.728 151.856C173.632 151.76 173.584 151.616 173.584 151.424V146.848C173.584 146.4 173.488 146.075 173.296 145.872C173.115 145.659 172.821 145.552 172.416 145.552C171.957 145.552 171.584 145.707 171.296 146.016C171.008 146.315 170.864 146.709 170.864 147.2V151.424C170.864 151.616 170.816 151.76 170.72 151.856C170.635 151.952 170.48 152 170.256 152H169.552ZM182.489 155.232C182.276 155.232 182.121 155.184 182.025 155.088C181.94 154.992 181.897 154.848 181.897 154.656V145.088C182.302 144.8 182.841 144.56 183.513 144.368C184.196 144.176 184.878 144.08 185.561 144.08C188.654 144.08 190.201 145.445 190.201 148.176C190.201 149.435 189.86 150.427 189.177 151.152C188.505 151.877 187.577 152.24 186.393 152.24C185.316 152.24 184.489 151.931 183.913 151.312V154.656C183.913 154.859 183.865 155.003 183.769 155.088C183.684 155.184 183.529 155.232 183.305 155.232H182.489ZM185.913 150.784C186.67 150.784 187.236 150.555 187.609 150.096C187.982 149.637 188.169 148.976 188.169 148.112C188.169 147.184 187.95 146.528 187.513 146.144C187.076 145.749 186.404 145.552 185.497 145.552C184.825 145.552 184.297 145.653 183.913 145.856V149.008C183.913 149.552 184.105 149.984 184.489 150.304C184.873 150.624 185.348 150.784 185.913 150.784ZM194.198 152.24C193.323 152.24 192.619 152 192.086 151.52C191.553 151.029 191.286 150.304 191.286 149.344V144.912C191.286 144.709 191.329 144.56 191.414 144.464C191.51 144.368 191.665 144.32 191.878 144.32H192.726C192.939 144.32 193.094 144.368 193.19 144.464C193.286 144.56 193.334 144.709 193.334 144.912V149.296C193.334 149.808 193.467 150.187 193.734 150.432C194.001 150.667 194.395 150.784 194.918 150.784C195.473 150.784 195.937 150.629 196.31 150.32C196.683 150.011 196.87 149.611 196.87 149.12V144.912C196.87 144.709 196.918 144.56 197.014 144.464C197.11 144.368 197.265 144.32 197.478 144.32H198.31C198.523 144.32 198.678 144.368 198.774 144.464C198.87 144.56 198.918 144.709 198.918 144.912V151.568C198.918 151.739 198.891 151.856 198.838 151.92C198.785 151.973 198.673 152 198.502 152H197.606C197.489 152 197.403 151.979 197.35 151.936C197.297 151.883 197.265 151.803 197.254 151.696L197.19 151.024C196.465 151.835 195.467 152.24 194.198 152.24ZM204.339 152.24C203.433 152.24 202.75 151.989 202.291 151.488C201.833 150.987 201.603 150.293 201.603 149.408V145.824H200.691C200.478 145.824 200.334 145.787 200.259 145.712C200.195 145.637 200.163 145.499 200.163 145.296V144.864C200.163 144.661 200.195 144.523 200.259 144.448C200.334 144.363 200.478 144.32 200.691 144.32H201.603V143.44C201.603 143.216 201.641 143.008 201.715 142.816C201.801 142.613 201.929 142.363 202.099 142.064C202.163 141.936 202.222 141.856 202.275 141.824C202.339 141.781 202.446 141.76 202.595 141.76H203.123C203.315 141.76 203.449 141.808 203.523 141.904C203.609 141.989 203.651 142.123 203.651 142.304V144.32H205.539C205.753 144.32 205.891 144.363 205.955 144.448C206.03 144.523 206.067 144.661 206.067 144.864V145.296C206.067 145.499 206.03 145.637 205.955 145.712C205.891 145.787 205.753 145.824 205.539 145.824H203.651V149.344C203.651 149.835 203.737 150.192 203.907 150.416C204.078 150.629 204.371 150.736 204.787 150.736C205.033 150.736 205.241 150.709 205.411 150.656C205.582 150.592 205.769 150.491 205.971 150.352C206.025 150.309 206.083 150.288 206.147 150.288C206.211 150.288 206.275 150.336 206.339 150.432L206.803 151.2C206.846 151.253 206.867 151.312 206.867 151.376C206.867 151.451 206.814 151.525 206.707 151.6C206.046 152.027 205.257 152.24 204.339 152.24ZM210.657 152.24C209.612 152.24 208.78 151.925 208.161 151.296C207.543 150.656 207.233 149.76 207.233 148.608C207.233 147.712 207.431 146.923 207.825 146.24C208.22 145.547 208.78 145.013 209.505 144.64C210.241 144.267 211.095 144.08 212.065 144.08C213.42 144.08 214.567 144.4 215.505 145.04V151.568C215.505 151.728 215.468 151.84 215.393 151.904C215.329 151.968 215.212 152 215.041 152H214.161C214.044 152 213.953 151.979 213.889 151.936C213.836 151.883 213.799 151.803 213.777 151.696L213.649 151.072C213.319 151.477 212.908 151.776 212.417 151.968C211.937 152.149 211.351 152.24 210.657 152.24ZM211.425 150.784C211.991 150.784 212.487 150.619 212.913 150.288C213.351 149.957 213.569 149.52 213.569 148.976V145.856C213.345 145.739 213.116 145.659 212.881 145.616C212.657 145.563 212.38 145.536 212.049 145.536C211.207 145.536 210.529 145.803 210.017 146.336C209.505 146.869 209.249 147.605 209.249 148.544C209.249 149.312 209.425 149.877 209.777 150.24C210.14 150.603 210.689 150.784 211.425 150.784ZM221.621 152.24C218.592 152.24 217.077 150.875 217.077 148.144C217.077 147.344 217.232 146.64 217.541 146.032C217.85 145.413 218.293 144.933 218.869 144.592C219.456 144.251 220.144 144.08 220.933 144.08C222.053 144.08 222.864 144.331 223.365 144.832V141.712C223.365 141.509 223.413 141.36 223.509 141.264C223.605 141.168 223.76 141.12 223.973 141.12H224.773C224.986 141.12 225.141 141.168 225.237 141.264C225.333 141.36 225.381 141.509 225.381 141.712V151.2C224.976 151.499 224.432 151.749 223.749 151.952C223.066 152.144 222.357 152.24 221.621 152.24ZM221.669 150.784C222.384 150.784 222.949 150.656 223.365 150.4V147.136C223.365 146.613 223.184 146.219 222.821 145.952C222.458 145.685 221.989 145.552 221.413 145.552C220.634 145.552 220.053 145.787 219.669 146.256C219.285 146.725 219.093 147.371 219.093 148.192C219.093 149.109 219.306 149.771 219.733 150.176C220.16 150.581 220.805 150.784 221.669 150.784ZM231.054 152.24C229.667 152.24 228.595 151.877 227.838 151.152C227.091 150.416 226.718 149.419 226.718 148.16C226.718 146.901 227.091 145.909 227.838 145.184C228.595 144.448 229.667 144.08 231.054 144.08C232.44 144.08 233.512 144.448 234.27 145.184C235.027 145.909 235.406 146.901 235.406 148.16C235.406 149.419 235.027 150.416 234.27 151.152C233.512 151.877 232.44 152.24 231.054 152.24ZM231.054 150.736C231.811 150.736 232.387 150.517 232.782 150.08C233.176 149.643 233.374 149.003 233.374 148.16C233.374 147.328 233.176 146.699 232.782 146.272C232.387 145.835 231.811 145.616 231.054 145.616C230.307 145.616 229.731 145.835 229.326 146.272C228.931 146.699 228.734 147.328 228.734 148.16C228.734 148.992 228.931 149.632 229.326 150.08C229.731 150.517 230.307 150.736 231.054 150.736ZM237.583 152C237.37 152 237.215 151.952 237.119 151.856C237.023 151.76 236.975 151.616 236.975 151.424V144.752C236.975 144.592 237.002 144.48 237.055 144.416C237.109 144.352 237.221 144.32 237.391 144.32H238.303C238.421 144.32 238.506 144.347 238.559 144.4C238.613 144.443 238.645 144.523 238.655 144.64L238.703 145.216C239.333 144.459 240.159 144.08 241.183 144.08C241.653 144.08 242.01 144.16 242.255 144.32C242.319 144.363 242.357 144.411 242.367 144.464C242.389 144.507 242.389 144.56 242.367 144.624L242.079 145.584C242.047 145.691 241.989 145.744 241.903 145.744L241.775 145.712C241.519 145.595 241.226 145.536 240.895 145.536C240.351 145.536 239.903 145.691 239.551 146C239.199 146.299 239.023 146.709 239.023 147.232V151.424C239.023 151.616 238.975 151.76 238.879 151.856C238.794 151.952 238.639 152 238.415 152H237.583Z" fill="#CCDAE7"/>
<path d="M327.116 100C326.956 100 326.844 99.972 326.78 99.916C326.716 99.852 326.684 99.748 326.684 99.604V99.256C326.684 99.104 326.716 98.996 326.78 98.932C326.844 98.868 326.956 98.836 327.116 98.836H328.292V93.52L327.26 94.144C327.196 94.184 327.14 94.204 327.092 94.204C327.02 94.204 326.96 94.164 326.912 94.084L326.528 93.484C326.496 93.428 326.48 93.376 326.48 93.328C326.48 93.248 326.524 93.184 326.612 93.136L328.592 91.948C328.648 91.908 328.704 91.88 328.76 91.864C328.816 91.848 328.892 91.84 328.988 91.84H329.384C329.688 91.84 329.84 91.988 329.84 92.284V98.836H331.016C331.176 98.836 331.288 98.868 331.352 98.932C331.416 98.996 331.448 99.104 331.448 99.256V99.604C331.448 99.748 331.416 99.852 331.352 99.916C331.288 99.972 331.176 100 331.016 100H327.116ZM335.5 100.18C334.444 100.18 333.62 99.964 333.028 99.532C332.436 99.1 332.14 98.492 332.14 97.708C332.14 97.252 332.26 96.852 332.5 96.508C332.748 96.156 333.084 95.904 333.508 95.752C333.132 95.584 332.848 95.356 332.656 95.068C332.464 94.78 332.368 94.444 332.368 94.06C332.368 93.292 332.636 92.7 333.172 92.284C333.716 91.868 334.492 91.66 335.5 91.66C336.508 91.66 337.28 91.868 337.816 92.284C338.352 92.7 338.62 93.292 338.62 94.06C338.62 94.444 338.524 94.78 338.332 95.068C338.14 95.356 337.86 95.584 337.492 95.752C337.916 95.904 338.248 96.156 338.488 96.508C338.736 96.852 338.86 97.252 338.86 97.708C338.86 98.492 338.56 99.1 337.96 99.532C337.368 99.964 336.548 100.18 335.5 100.18ZM335.5 95.212C336.02 95.212 336.416 95.124 336.688 94.948C336.96 94.764 337.096 94.468 337.096 94.06C337.096 93.612 336.964 93.292 336.7 93.1C336.444 92.9 336.044 92.8 335.5 92.8C334.956 92.8 334.552 92.9 334.288 93.1C334.024 93.292 333.892 93.612 333.892 94.06C333.892 94.468 334.028 94.764 334.3 94.948C334.572 95.124 334.972 95.212 335.5 95.212ZM335.5 99.052C336.724 99.052 337.336 98.604 337.336 97.708C337.336 96.788 336.724 96.328 335.5 96.328C334.268 96.328 333.652 96.788 333.652 97.708C333.652 98.604 334.268 99.052 335.5 99.052ZM339.96 100C339.848 100 339.792 99.952 339.792 99.856C339.792 99.808 339.804 99.756 339.828 99.7L342.972 92.044C343.028 91.908 343.124 91.84 343.26 91.84H344.388C344.5 91.84 344.556 91.892 344.556 91.996C344.556 92.044 344.544 92.092 344.52 92.14L341.376 99.808C341.328 99.936 341.228 100 341.076 100H339.96ZM349.46 100.18C348.148 100.18 347.156 99.816 346.484 99.088C345.82 98.352 345.488 97.296 345.488 95.92C345.488 94.544 345.82 93.492 346.484 92.764C347.156 92.028 348.148 91.66 349.46 91.66C350.764 91.66 351.752 92.028 352.424 92.764C353.096 93.5 353.432 94.552 353.432 95.92C353.432 97.288 353.096 98.34 352.424 99.076C351.752 99.812 350.764 100.18 349.46 100.18ZM350.816 93.16C350.472 92.92 350.02 92.8 349.46 92.8C348.628 92.8 348.008 93.06 347.6 93.58C347.2 94.1 347 94.88 347 95.92C347 96.744 347.168 97.38 347.504 97.828L350.816 93.16ZM349.46 99.052C350.292 99.052 350.908 98.792 351.308 98.272C351.708 97.752 351.908 96.968 351.908 95.92C351.908 95.112 351.748 94.48 351.428 94.024L348.104 98.716C348.464 98.94 348.916 99.052 349.46 99.052ZM357.346 100.18C356.05 100.18 355.094 99.972 354.478 99.556C354.406 99.508 354.37 99.452 354.37 99.388C354.37 99.34 354.39 99.284 354.43 99.22L354.778 98.632C354.826 98.552 354.87 98.512 354.91 98.512C354.942 98.512 354.998 98.532 355.078 98.572C355.342 98.716 355.646 98.832 355.99 98.92C356.342 99.008 356.722 99.052 357.13 99.052C357.786 99.052 358.266 98.928 358.57 98.68C358.882 98.424 359.038 98.072 359.038 97.624C359.038 96.792 358.53 96.376 357.514 96.376H356.506C356.346 96.376 356.23 96.344 356.158 96.28C356.094 96.208 356.062 96.096 356.062 95.944V95.632C356.062 95.488 356.094 95.384 356.158 95.32C356.23 95.256 356.346 95.224 356.506 95.224H357.49C357.922 95.224 358.246 95.112 358.462 94.888C358.678 94.656 358.786 94.364 358.786 94.012C358.786 93.204 358.218 92.8 357.082 92.8C356.378 92.8 355.758 92.948 355.222 93.244C355.142 93.284 355.086 93.304 355.054 93.304C355.014 93.304 354.97 93.268 354.922 93.196L354.586 92.632C354.546 92.568 354.526 92.512 354.526 92.464C354.526 92.4 354.562 92.344 354.634 92.296C354.914 92.096 355.286 91.94 355.75 91.828C356.214 91.716 356.73 91.66 357.298 91.66C357.914 91.66 358.446 91.756 358.894 91.948C359.35 92.14 359.698 92.412 359.938 92.764C360.186 93.108 360.31 93.512 360.31 93.976C360.31 94.352 360.218 94.7 360.034 95.02C359.858 95.34 359.602 95.588 359.266 95.764C359.698 95.924 360.018 96.172 360.226 96.508C360.442 96.836 360.55 97.224 360.55 97.672C360.55 98.424 360.27 99.032 359.71 99.496C359.158 99.952 358.37 100.18 357.346 100.18ZM361.652 100C361.54 100 361.484 99.952 361.484 99.856C361.484 99.808 361.496 99.756 361.52 99.7L364.664 92.044C364.72 91.908 364.816 91.84 364.952 91.84H366.08C366.192 91.84 366.248 91.892 366.248 91.996C366.248 92.044 366.236 92.092 366.212 92.14L363.068 99.808C363.02 99.936 362.92 100 362.768 100H361.652ZM367.599 100C367.335 100 367.203 99.864 367.203 99.592V99.124C367.203 98.612 367.399 98.108 367.791 97.612C368.191 97.116 368.787 96.644 369.579 96.196C370.147 95.876 370.563 95.624 370.827 95.44C371.091 95.248 371.283 95.048 371.403 94.84C371.531 94.624 371.595 94.36 371.595 94.048C371.595 93.64 371.451 93.332 371.163 93.124C370.875 92.908 370.471 92.8 369.951 92.8C369.575 92.8 369.219 92.848 368.883 92.944C368.555 93.032 368.271 93.144 368.031 93.28C367.951 93.32 367.899 93.34 367.875 93.34C367.827 93.34 367.779 93.304 367.731 93.232L367.395 92.644C367.355 92.58 367.335 92.524 367.335 92.476C367.335 92.412 367.371 92.356 367.443 92.308C367.723 92.108 368.103 91.952 368.583 91.84C369.063 91.72 369.587 91.66 370.155 91.66C371.043 91.66 371.759 91.864 372.303 92.272C372.847 92.672 373.119 93.24 373.119 93.976C373.119 94.592 372.927 95.112 372.543 95.536C372.167 95.96 371.571 96.396 370.755 96.844C370.155 97.156 369.679 97.484 369.327 97.828C368.975 98.172 368.787 98.508 368.763 98.836H372.651C372.811 98.836 372.923 98.872 372.987 98.944C373.051 99.008 373.083 99.116 373.083 99.268V99.592C373.083 99.736 373.051 99.84 372.987 99.904C372.923 99.968 372.811 100 372.651 100H367.599ZM378.053 100.18C376.741 100.18 375.749 99.816 375.077 99.088C374.413 98.352 374.081 97.296 374.081 95.92C374.081 94.544 374.413 93.492 375.077 92.764C375.749 92.028 376.741 91.66 378.053 91.66C379.357 91.66 380.345 92.028 381.017 92.764C381.689 93.5 382.025 94.552 382.025 95.92C382.025 97.288 381.689 98.34 381.017 99.076C380.345 99.812 379.357 100.18 378.053 100.18ZM379.409 93.16C379.065 92.92 378.613 92.8 378.053 92.8C377.221 92.8 376.601 93.06 376.193 93.58C375.793 94.1 375.593 94.88 375.593 95.92C375.593 96.744 375.761 97.38 376.097 97.828L379.409 93.16ZM378.053 99.052C378.885 99.052 379.501 98.792 379.901 98.272C380.301 97.752 380.501 96.968 380.501 95.92C380.501 95.112 380.341 94.48 380.021 94.024L376.697 98.716C377.057 98.94 377.509 99.052 378.053 99.052ZM383.384 100C383.12 100 382.988 99.864 382.988 99.592V99.124C382.988 98.612 383.184 98.108 383.576 97.612C383.976 97.116 384.572 96.644 385.364 96.196C385.932 95.876 386.348 95.624 386.612 95.44C386.876 95.248 387.068 95.048 387.188 94.84C387.316 94.624 387.38 94.36 387.38 94.048C387.38 93.64 387.236 93.332 386.948 93.124C386.66 92.908 386.256 92.8 385.736 92.8C385.36 92.8 385.004 92.848 384.668 92.944C384.34 93.032 384.056 93.144 383.816 93.28C383.736 93.32 383.684 93.34 383.66 93.34C383.612 93.34 383.564 93.304 383.516 93.232L383.18 92.644C383.14 92.58 383.12 92.524 383.12 92.476C383.12 92.412 383.156 92.356 383.228 92.308C383.508 92.108 383.888 91.952 384.368 91.84C384.848 91.72 385.372 91.66 385.94 91.66C386.828 91.66 387.544 91.864 388.088 92.272C388.632 92.672 388.904 93.24 388.904 93.976C388.904 94.592 388.712 95.112 388.328 95.536C387.952 95.96 387.356 96.396 386.54 96.844C385.94 97.156 385.464 97.484 385.112 97.828C384.76 98.172 384.572 98.508 384.548 98.836H388.436C388.596 98.836 388.708 98.872 388.772 98.944C388.836 99.008 388.868 99.116 388.868 99.268V99.592C388.868 99.736 388.836 99.84 388.772 99.904C388.708 99.968 388.596 100 388.436 100H383.384ZM390.286 100C390.022 100 389.89 99.864 389.89 99.592V99.124C389.89 98.612 390.086 98.108 390.478 97.612C390.878 97.116 391.474 96.644 392.266 96.196C392.834 95.876 393.25 95.624 393.514 95.44C393.778 95.248 393.97 95.048 394.09 94.84C394.218 94.624 394.282 94.36 394.282 94.048C394.282 93.64 394.138 93.332 393.85 93.124C393.562 92.908 393.158 92.8 392.638 92.8C392.262 92.8 391.906 92.848 391.57 92.944C391.242 93.032 390.958 93.144 390.718 93.28C390.638 93.32 390.586 93.34 390.562 93.34C390.514 93.34 390.466 93.304 390.418 93.232L390.082 92.644C390.042 92.58 390.022 92.524 390.022 92.476C390.022 92.412 390.058 92.356 390.13 92.308C390.41 92.108 390.79 91.952 391.27 91.84C391.75 91.72 392.274 91.66 392.842 91.66C393.73 91.66 394.446 91.864 394.99 92.272C395.534 92.672 395.806 93.24 395.806 93.976C395.806 94.592 395.614 95.112 395.23 95.536C394.854 95.96 394.258 96.396 393.442 96.844C392.842 97.156 392.366 97.484 392.014 97.828C391.662 98.172 391.474 98.508 391.45 98.836H395.338C395.498 98.836 395.61 98.872 395.674 98.944C395.738 99.008 395.77 99.116 395.77 99.268V99.592C395.77 99.736 395.738 99.84 395.674 99.904C395.61 99.968 395.498 100 395.338 100H390.286Z" fill="#CCDAE7"/>
<path d="M326.888 151C326.624 151 326.492 150.864 326.492 150.592V150.124C326.492 149.612 326.688 149.108 327.08 148.612C327.48 148.116 328.076 147.644 328.868 147.196C329.436 146.876 329.852 146.624 330.116 146.44C330.38 146.248 330.572 146.048 330.692 145.84C330.82 145.624 330.884 145.36 330.884 145.048C330.884 144.64 330.74 144.332 330.452 144.124C330.164 143.908 329.76 143.8 329.24 143.8C328.864 143.8 328.508 143.848 328.172 143.944C327.844 144.032 327.56 144.144 327.32 144.28C327.24 144.32 327.188 144.34 327.164 144.34C327.116 144.34 327.068 144.304 327.02 144.232L326.684 143.644C326.644 143.58 326.624 143.524 326.624 143.476C326.624 143.412 326.66 143.356 326.732 143.308C327.012 143.108 327.392 142.952 327.872 142.84C328.352 142.72 328.876 142.66 329.444 142.66C330.332 142.66 331.048 142.864 331.592 143.272C332.136 143.672 332.408 144.24 332.408 144.976C332.408 145.592 332.216 146.112 331.832 146.536C331.456 146.96 330.86 147.396 330.044 147.844C329.444 148.156 328.968 148.484 328.616 148.828C328.264 149.172 328.076 149.508 328.052 149.836H331.94C332.1 149.836 332.212 149.872 332.276 149.944C332.34 150.008 332.372 150.116 332.372 150.268V150.592C332.372 150.736 332.34 150.84 332.276 150.904C332.212 150.968 332.1 151 331.94 151H326.888ZM337.69 151C337.53 151 337.414 150.968 337.342 150.904C337.278 150.84 337.246 150.736 337.246 150.592V149.224H333.442C333.234 149.224 333.13 149.128 333.13 148.936V148.444C333.13 148.332 333.142 148.248 333.166 148.192C333.19 148.128 333.234 148.052 333.298 147.964L337.342 143.068C337.414 142.98 337.478 142.92 337.534 142.888C337.59 142.856 337.678 142.84 337.798 142.84H338.326C338.486 142.84 338.602 142.876 338.674 142.948C338.746 143.02 338.782 143.132 338.782 143.284V148.06H339.622C339.782 148.06 339.894 148.096 339.958 148.168C340.022 148.232 340.054 148.34 340.054 148.492V148.816C340.054 148.96 340.022 149.064 339.958 149.128C339.894 149.192 339.782 149.224 339.622 149.224H338.782V150.592C338.782 150.736 338.746 150.84 338.674 150.904C338.61 150.968 338.494 151 338.326 151H337.69ZM337.498 148.06V144.652L334.738 148.06H337.498ZM340.921 151C340.809 151 340.753 150.952 340.753 150.856C340.753 150.808 340.765 150.756 340.789 150.7L343.933 143.044C343.989 142.908 344.085 142.84 344.221 142.84H345.349C345.461 142.84 345.517 142.892 345.517 142.996C345.517 143.044 345.505 143.092 345.481 143.14L342.337 150.808C342.289 150.936 342.189 151 342.037 151H340.921ZM350.42 151.18C349.108 151.18 348.116 150.816 347.444 150.088C346.78 149.352 346.448 148.296 346.448 146.92C346.448 145.544 346.78 144.492 347.444 143.764C348.116 143.028 349.108 142.66 350.42 142.66C351.724 142.66 352.712 143.028 353.384 143.764C354.056 144.5 354.392 145.552 354.392 146.92C354.392 148.288 354.056 149.34 353.384 150.076C352.712 150.812 351.724 151.18 350.42 151.18ZM351.776 144.16C351.432 143.92 350.98 143.8 350.42 143.8C349.588 143.8 348.968 144.06 348.56 144.58C348.16 145.1 347.96 145.88 347.96 146.92C347.96 147.744 348.128 148.38 348.464 148.828L351.776 144.16ZM350.42 150.052C351.252 150.052 351.868 149.792 352.268 149.272C352.668 148.752 352.868 147.968 352.868 146.92C352.868 146.112 352.708 145.48 352.388 145.024L349.064 149.716C349.424 149.94 349.876 150.052 350.42 150.052ZM359.651 151C359.491 151 359.375 150.968 359.303 150.904C359.239 150.84 359.207 150.736 359.207 150.592V149.224H355.403C355.195 149.224 355.091 149.128 355.091 148.936V148.444C355.091 148.332 355.103 148.248 355.127 148.192C355.151 148.128 355.195 148.052 355.259 147.964L359.303 143.068C359.375 142.98 359.439 142.92 359.495 142.888C359.551 142.856 359.639 142.84 359.759 142.84H360.287C360.447 142.84 360.563 142.876 360.635 142.948C360.707 143.02 360.743 143.132 360.743 143.284V148.06H361.583C361.743 148.06 361.855 148.096 361.919 148.168C361.983 148.232 362.015 148.34 362.015 148.492V148.816C362.015 148.96 361.983 149.064 361.919 149.128C361.855 149.192 361.743 149.224 361.583 149.224H360.743V150.592C360.743 150.736 360.707 150.84 360.635 150.904C360.571 150.968 360.455 151 360.287 151H359.651ZM359.459 148.06V144.652L356.699 148.06H359.459ZM362.882 151C362.77 151 362.714 150.952 362.714 150.856C362.714 150.808 362.726 150.756 362.75 150.7L365.894 143.044C365.95 142.908 366.046 142.84 366.182 142.84H367.31C367.422 142.84 367.478 142.892 367.478 142.996C367.478 143.044 367.466 143.092 367.442 143.14L364.298 150.808C364.25 150.936 364.15 151 363.998 151H362.882ZM368.829 151C368.565 151 368.433 150.864 368.433 150.592V150.124C368.433 149.612 368.629 149.108 369.021 148.612C369.421 148.116 370.017 147.644 370.809 147.196C371.377 146.876 371.793 146.624 372.057 146.44C372.321 146.248 372.513 146.048 372.633 145.84C372.761 145.624 372.825 145.36 372.825 145.048C372.825 144.64 372.681 144.332 372.393 144.124C372.105 143.908 371.701 143.8 371.181 143.8C370.805 143.8 370.449 143.848 370.113 143.944C369.785 144.032 369.501 144.144 369.261 144.28C369.181 144.32 369.129 144.34 369.105 144.34C369.057 144.34 369.009 144.304 368.961 144.232L368.625 143.644C368.585 143.58 368.565 143.524 368.565 143.476C368.565 143.412 368.601 143.356 368.673 143.308C368.953 143.108 369.333 142.952 369.813 142.84C370.293 142.72 370.817 142.66 371.385 142.66C372.273 142.66 372.989 142.864 373.533 143.272C374.077 143.672 374.349 144.24 374.349 144.976C374.349 145.592 374.157 146.112 373.773 146.536C373.397 146.96 372.801 147.396 371.985 147.844C371.385 148.156 370.909 148.484 370.557 148.828C370.205 149.172 370.017 149.508 369.993 149.836H373.881C374.041 149.836 374.153 149.872 374.217 149.944C374.281 150.008 374.313 150.116 374.313 150.268V150.592C374.313 150.736 374.281 150.84 374.217 150.904C374.153 150.968 374.041 151 373.881 151H368.829ZM379.284 151.18C377.972 151.18 376.98 150.816 376.308 150.088C375.644 149.352 375.312 148.296 375.312 146.92C375.312 145.544 375.644 144.492 376.308 143.764C376.98 143.028 377.972 142.66 379.284 142.66C380.588 142.66 381.576 143.028 382.248 143.764C382.92 144.5 383.256 145.552 383.256 146.92C383.256 148.288 382.92 149.34 382.248 150.076C381.576 150.812 380.588 151.18 379.284 151.18ZM380.64 144.16C380.296 143.92 379.844 143.8 379.284 143.8C378.452 143.8 377.832 144.06 377.424 144.58C377.024 145.1 376.824 145.88 376.824 146.92C376.824 147.744 376.992 148.38 377.328 148.828L380.64 144.16ZM379.284 150.052C380.116 150.052 380.732 149.792 381.132 149.272C381.532 148.752 381.732 147.968 381.732 146.92C381.732 146.112 381.572 145.48 381.252 145.024L377.928 149.716C378.288 149.94 378.74 150.052 379.284 150.052ZM384.615 151C384.351 151 384.219 150.864 384.219 150.592V150.124C384.219 149.612 384.415 149.108 384.807 148.612C385.207 148.116 385.803 147.644 386.595 147.196C387.163 146.876 387.579 146.624 387.843 146.44C388.107 146.248 388.299 146.048 388.419 145.84C388.547 145.624 388.611 145.36 388.611 145.048C388.611 144.64 388.467 144.332 388.179 144.124C387.891 143.908 387.487 143.8 386.967 143.8C386.591 143.8 386.235 143.848 385.899 143.944C385.571 144.032 385.287 144.144 385.047 144.28C384.967 144.32 384.915 144.34 384.891 144.34C384.843 144.34 384.795 144.304 384.747 144.232L384.411 143.644C384.371 143.58 384.351 143.524 384.351 143.476C384.351 143.412 384.387 143.356 384.459 143.308C384.739 143.108 385.119 142.952 385.599 142.84C386.079 142.72 386.603 142.66 387.171 142.66C388.059 142.66 388.775 142.864 389.319 143.272C389.863 143.672 390.135 144.24 390.135 144.976C390.135 145.592 389.943 146.112 389.559 146.536C389.183 146.96 388.587 147.396 387.771 147.844C387.171 148.156 386.695 148.484 386.343 148.828C385.991 149.172 385.803 149.508 385.779 149.836H389.667C389.827 149.836 389.939 149.872 390.003 149.944C390.067 150.008 390.099 150.116 390.099 150.268V150.592C390.099 150.736 390.067 150.84 390.003 150.904C389.939 150.968 389.827 151 389.667 151H384.615ZM391.517 151C391.253 151 391.121 150.864 391.121 150.592V150.124C391.121 149.612 391.317 149.108 391.709 148.612C392.109 148.116 392.705 147.644 393.497 147.196C394.065 146.876 394.481 146.624 394.745 146.44C395.009 146.248 395.201 146.048 395.321 145.84C395.449 145.624 395.513 145.36 395.513 145.048C395.513 144.64 395.369 144.332 395.081 144.124C394.793 143.908 394.389 143.8 393.869 143.8C393.493 143.8 393.137 143.848 392.801 143.944C392.473 144.032 392.189 144.144 391.949 144.28C391.869 144.32 391.817 144.34 391.793 144.34C391.745 144.34 391.697 144.304 391.649 144.232L391.313 143.644C391.273 143.58 391.253 143.524 391.253 143.476C391.253 143.412 391.289 143.356 391.361 143.308C391.641 143.108 392.021 142.952 392.501 142.84C392.981 142.72 393.505 142.66 394.073 142.66C394.961 142.66 395.677 142.864 396.221 143.272C396.765 143.672 397.037 144.24 397.037 144.976C397.037 145.592 396.845 146.112 396.461 146.536C396.085 146.96 395.489 147.396 394.673 147.844C394.073 148.156 393.597 148.484 393.245 148.828C392.893 149.172 392.705 149.508 392.681 149.836H396.569C396.729 149.836 396.841 149.872 396.905 149.944C396.969 150.008 397.001 150.116 397.001 150.268V150.592C397.001 150.736 396.969 150.84 396.905 150.904C396.841 150.968 396.729 151 396.569 151H391.517Z" fill="#CCDAE7"/>
<g clip-path="url(#clip0_868_2)">
<path d="M55.0518 83.2684C55.6248 82.912 56.3748 82.912 56.9477 83.2684L57.8748 83.8397C58.1873 84.0302 58.5518 84.1229 58.9216 84.1034L60.031 84.0399C60.7185 84.0009 61.3643 84.3524 61.6716 84.9286L62.1716 85.8612C62.3383 86.1737 62.6091 86.4227 62.9373 86.579L63.9425 87.0526C64.5571 87.3407 64.9321 87.9462 64.8904 88.5907L64.8227 89.6307C64.8018 89.9774 64.9008 90.3241 65.1039 90.6122L65.7185 91.4813C66.0987 92.0184 66.0987 92.7216 65.7185 93.2587L65.1039 94.1327C64.9008 94.4257 64.8018 94.7675 64.8227 95.1141L64.8904 96.1542C64.9321 96.7987 64.5571 97.4042 63.9425 97.6923L62.9477 98.161C62.6143 98.3173 62.3487 98.5712 62.1821 98.8788L61.6768 99.8212C61.3696 100.397 60.7237 100.749 60.0362 100.71L58.9268 100.646C58.5571 100.627 58.1873 100.72 57.88 100.91L56.9529 101.486C56.38 101.843 55.63 101.843 55.0571 101.486L54.1248 100.91C53.8123 100.72 53.4477 100.627 53.0779 100.646L51.9685 100.71C51.281 100.749 50.6352 100.397 50.3279 99.8212L49.8279 98.8885C49.6612 98.576 49.3904 98.327 49.0623 98.1708L48.0571 97.6971C47.4425 97.4091 47.0675 96.8036 47.1091 96.1591L47.1768 95.119C47.1977 94.7723 47.0987 94.4257 46.8956 94.1376L46.2862 93.2635C45.906 92.7264 45.906 92.0233 46.2862 91.4862L46.8956 90.6171C47.0987 90.3241 47.1977 89.9823 47.1768 89.6356L47.1091 88.5956C47.0675 87.951 47.4425 87.3456 48.0571 87.0575L49.0518 86.5887C49.3852 86.4276 49.656 86.1737 49.8227 85.8612L50.3227 84.9286C50.63 84.3524 51.2758 84.0009 51.9633 84.0399L53.0727 84.1034C53.4425 84.1229 53.8123 84.0302 54.1196 83.8397L55.0518 83.2684ZM60.1664 92.3749C60.1664 91.3389 59.7274 90.3453 58.946 89.6127C58.1646 88.8802 57.1048 88.4686 55.9998 88.4686C54.8947 88.4686 53.8349 88.8802 53.0535 89.6127C52.2721 90.3453 51.8331 91.3389 51.8331 92.3749C51.8331 93.4109 52.2721 94.4044 53.0535 95.137C53.8349 95.8696 54.8947 96.2811 55.9998 96.2811C57.1048 96.2811 58.1646 95.8696 58.946 95.137C59.7274 94.4044 60.1664 93.4109 60.1664 92.3749ZM46.0675 104.572L48.3123 99.5673C48.3227 99.5721 48.3279 99.577 48.3331 99.5868L48.8331 100.519C49.4425 101.652 50.7081 102.341 52.0623 102.267L53.1716 102.204C53.1821 102.204 53.1977 102.204 53.2081 102.214L54.1352 102.79C54.4008 102.951 54.6821 103.078 54.9737 103.166L53.0154 107.526C52.8956 107.795 52.63 107.975 52.3227 108C52.0154 108.024 51.7185 107.892 51.5518 107.648L49.8748 105.241L46.9529 105.646C46.656 105.685 46.3591 105.573 46.1716 105.353C45.9841 105.134 45.9477 104.831 46.0623 104.572H46.0675ZM58.9841 107.521L57.0258 103.166C57.3175 103.078 57.5987 102.956 57.8643 102.79L58.7914 102.214C58.8018 102.209 58.8123 102.204 58.8279 102.204L59.9373 102.267C61.2914 102.341 62.5571 101.652 63.1664 100.519L63.6664 99.5868C63.6716 99.577 63.6768 99.5721 63.6873 99.5673L65.9373 104.572C66.0518 104.831 66.0102 105.129 65.8279 105.353C65.6456 105.578 65.3435 105.69 65.0466 105.646L62.1248 105.241L60.4477 107.643C60.281 107.888 59.9841 108.019 59.6768 107.995C59.3696 107.971 59.1039 107.785 58.9841 107.521Z" fill="#CCDAE7"/>
</g>
<g clip-path="url(#clip1_868_2)">
<path d="M55.0518 134.268C55.6248 133.912 56.3748 133.912 56.9477 134.268L57.8748 134.84C58.1873 135.03 58.5518 135.123 58.9216 135.103L60.031 135.04C60.7185 135.001 61.3643 135.352 61.6716 135.929L62.1716 136.861C62.3383 137.174 62.6091 137.423 62.9373 137.579L63.9425 138.053C64.5571 138.341 64.9321 138.946 64.8904 139.591L64.8227 140.631C64.8018 140.977 64.9008 141.324 65.1039 141.612L65.7185 142.481C66.0987 143.018 66.0987 143.722 65.7185 144.259L65.1039 145.133C64.9008 145.426 64.8018 145.767 64.8227 146.114L64.8904 147.154C64.9321 147.799 64.5571 148.404 63.9425 148.692L62.9477 149.161C62.6143 149.317 62.3487 149.571 62.1821 149.879L61.6768 150.821C61.3696 151.397 60.7237 151.749 60.0362 151.71L58.9268 151.646C58.5571 151.627 58.1873 151.72 57.88 151.91L56.9529 152.486C56.38 152.843 55.63 152.843 55.0571 152.486L54.1248 151.91C53.8123 151.72 53.4477 151.627 53.0779 151.646L51.9685 151.71C51.281 151.749 50.6352 151.397 50.3279 150.821L49.8279 149.889C49.6612 149.576 49.3904 149.327 49.0623 149.171L48.0571 148.697C47.4425 148.409 47.0675 147.804 47.1091 147.159L47.1768 146.119C47.1977 145.772 47.0987 145.426 46.8956 145.138L46.2862 144.264C45.906 143.726 45.906 143.023 46.2862 142.486L46.8956 141.617C47.0987 141.324 47.1977 140.982 47.1768 140.636L47.1091 139.596C47.0675 138.951 47.4425 138.346 48.0571 138.057L49.0518 137.589C49.3852 137.428 49.656 137.174 49.8227 136.861L50.3227 135.929C50.63 135.352 51.2758 135.001 51.9633 135.04L53.0727 135.103C53.4425 135.123 53.8123 135.03 54.1196 134.84L55.0518 134.268ZM60.1664 143.375C60.1664 142.339 59.7274 141.345 58.946 140.613C58.1646 139.88 57.1048 139.469 55.9998 139.469C54.8947 139.469 53.8349 139.88 53.0535 140.613C52.2721 141.345 51.8331 142.339 51.8331 143.375C51.8331 144.411 52.2721 145.404 53.0535 146.137C53.8349 146.87 54.8947 147.281 55.9998 147.281C57.1048 147.281 58.1646 146.87 58.946 146.137C59.7274 145.404 60.1664 144.411 60.1664 143.375ZM46.0675 155.572L48.3123 150.567C48.3227 150.572 48.3279 150.577 48.3331 150.587L48.8331 151.519C49.4425 152.652 50.7081 153.341 52.0623 153.267L53.1716 153.204C53.1821 153.204 53.1977 153.204 53.2081 153.214L54.1352 153.79C54.4008 153.951 54.6821 154.078 54.9737 154.166L53.0154 158.526C52.8956 158.795 52.63 158.975 52.3227 159C52.0154 159.024 51.7185 158.892 51.5518 158.648L49.8748 156.241L46.9529 156.646C46.656 156.685 46.3591 156.573 46.1716 156.353C45.9841 156.134 45.9477 155.831 46.0623 155.572H46.0675ZM58.9841 158.521L57.0258 154.166C57.3175 154.078 57.5987 153.956 57.8643 153.79L58.7914 153.214C58.8018 153.209 58.8123 153.204 58.8279 153.204L59.9373 153.267C61.2914 153.341 62.5571 152.652 63.1664 151.519L63.6664 150.587C63.6716 150.577 63.6768 150.572 63.6873 150.567L65.9373 155.572C66.0518 155.831 66.0102 156.129 65.8279 156.353C65.6456 156.578 65.3435 156.69 65.0466 156.646L62.1248 156.241L60.4477 158.643C60.281 158.888 59.9841 159.019 59.6768 158.995C59.3696 158.971 59.1039 158.785 58.9841 158.521Z" fill="#CCDAE7"/>
</g>
<defs>
<clipPath id="clip0_868_2">
<rect width="20" height="25" fill="white" transform="translate(46 83)"/>
</clipPath>
<clipPath id="clip1_868_2">
<rect width="20" height="25" fill="white" transform="translate(46 134)"/>
</clipPath>
</defs>
</svg>
