<svg width="436" height="294" viewBox="0 0 436 294" fill="none" xmlns="http://www.w3.org/2000/svg">
<rect width="436" height="294" rx="24" fill="#171E25"/>
<rect x="127" y="223" width="182" height="43" rx="21.5" fill="#0052CC"/>
<path d="M187.012 250.24C186.254 250.24 185.508 250.16 184.772 250C184.046 249.829 183.465 249.595 183.028 249.296C182.889 249.2 182.82 249.115 182.82 249.04C182.82 248.965 182.841 248.901 182.884 248.848L183.412 248.016C183.476 247.92 183.534 247.872 183.588 247.872C183.641 247.872 183.71 247.899 183.796 247.952C184.19 248.187 184.649 248.379 185.172 248.528C185.694 248.667 186.222 248.736 186.756 248.736C187.481 248.736 188.025 248.619 188.388 248.384C188.761 248.139 188.948 247.749 188.948 247.216C188.948 246.896 188.878 246.64 188.74 246.448C188.601 246.256 188.398 246.091 188.132 245.952C187.865 245.813 187.433 245.627 186.836 245.392L186.468 245.248C185.774 244.971 185.198 244.704 184.74 244.448C184.292 244.192 183.918 243.856 183.62 243.44C183.321 243.024 183.172 242.517 183.172 241.92C183.172 240.949 183.54 240.203 184.276 239.68C185.022 239.147 185.998 238.88 187.204 238.88C187.94 238.88 188.574 238.949 189.108 239.088C189.652 239.227 190.121 239.44 190.516 239.728C190.644 239.824 190.708 239.915 190.708 240C190.708 240.064 190.686 240.123 190.644 240.176L190.132 241.008C190.068 241.104 190.014 241.152 189.972 241.152C189.929 241.152 189.86 241.12 189.764 241.056C189.081 240.619 188.233 240.4 187.22 240.4C186.548 240.4 186.041 240.523 185.7 240.768C185.358 241.013 185.188 241.403 185.188 241.936C185.188 242.267 185.257 242.533 185.396 242.736C185.545 242.928 185.758 243.093 186.036 243.232C186.313 243.371 186.761 243.557 187.38 243.792L187.78 243.952C188.558 244.261 189.166 244.549 189.604 244.816C190.041 245.072 190.377 245.397 190.612 245.792C190.857 246.176 190.98 246.672 190.98 247.28C190.98 248.197 190.633 248.923 189.94 249.456C189.257 249.979 188.281 250.24 187.012 250.24ZM197.698 250.24C195.938 250.24 194.583 249.744 193.634 248.752C192.695 247.76 192.226 246.363 192.226 244.56C192.226 242.757 192.695 241.36 193.634 240.368C194.583 239.376 195.938 238.88 197.698 238.88C199.447 238.88 200.796 239.376 201.746 240.368C202.695 241.36 203.17 242.757 203.17 244.56C203.17 246.363 202.695 247.76 201.746 248.752C200.796 249.744 199.447 250.24 197.698 250.24ZM197.698 248.736C198.818 248.736 199.671 248.384 200.258 247.68C200.844 246.965 201.138 245.925 201.138 244.56C201.138 243.195 200.844 242.16 200.258 241.456C199.671 240.752 198.818 240.4 197.698 240.4C196.578 240.4 195.719 240.752 195.122 241.456C194.535 242.16 194.242 243.195 194.242 244.56C194.242 245.925 194.535 246.965 195.122 247.68C195.719 248.384 196.578 248.736 197.698 248.736ZM205.325 250C205.112 250 204.957 249.952 204.861 249.856C204.776 249.76 204.733 249.616 204.733 249.424V239.712C204.733 239.509 204.776 239.36 204.861 239.264C204.957 239.168 205.112 239.12 205.325 239.12H209.501C210.738 239.12 211.677 239.408 212.317 239.984C212.968 240.56 213.293 241.413 213.293 242.544C213.293 243.291 213.117 243.931 212.765 244.464C212.413 244.987 211.901 245.381 211.229 245.648L213.005 249.584C213.037 249.648 213.053 249.707 213.053 249.76C213.053 249.92 212.957 250 212.765 250H211.453C211.314 250 211.213 249.984 211.149 249.952C211.085 249.909 211.026 249.829 210.973 249.712L209.357 245.92H206.781V249.424C206.781 249.616 206.733 249.76 206.637 249.856C206.552 249.952 206.397 250 206.173 250H205.325ZM209.085 244.384C209.832 244.384 210.381 244.24 210.733 243.952C211.085 243.664 211.261 243.195 211.261 242.544C211.261 241.904 211.101 241.435 210.781 241.136C210.461 240.837 209.976 240.688 209.325 240.688H206.781V244.384H209.085ZM217.624 250C217.41 250 217.256 249.952 217.16 249.856C217.064 249.76 217.016 249.616 217.016 249.424V240.688H214.216C214.002 240.688 213.853 240.645 213.768 240.56C213.693 240.475 213.656 240.331 213.656 240.128V239.696C213.656 239.493 213.693 239.349 213.768 239.264C213.853 239.168 214.002 239.12 214.216 239.12H221.864C222.077 239.12 222.226 239.168 222.312 239.264C222.397 239.349 222.44 239.493 222.44 239.696V240.128C222.44 240.331 222.397 240.475 222.312 240.56C222.226 240.645 222.077 240.688 221.864 240.688H219.064V249.424C219.064 249.616 219.016 249.76 218.92 249.856C218.834 249.952 218.68 250 218.456 250H217.624ZM224.278 250C224.065 250 223.91 249.952 223.814 249.856C223.729 249.76 223.686 249.616 223.686 249.424V239.712C223.686 239.509 223.729 239.36 223.814 239.264C223.91 239.168 224.065 239.12 224.278 239.12H230.934C231.148 239.12 231.292 239.163 231.366 239.248C231.452 239.333 231.494 239.477 231.494 239.68V240.112C231.494 240.315 231.452 240.464 231.366 240.56C231.292 240.645 231.148 240.688 230.934 240.688H225.734V243.792H229.51C229.724 243.792 229.873 243.835 229.958 243.92C230.044 244.005 230.086 244.149 230.086 244.352V244.752C230.086 244.955 230.044 245.104 229.958 245.2C229.873 245.285 229.724 245.328 229.51 245.328H225.734V248.448H230.918C231.132 248.448 231.281 248.496 231.366 248.592C231.452 248.677 231.494 248.821 231.494 249.024V249.456C231.494 249.648 231.452 249.787 231.366 249.872C231.281 249.957 231.132 250 230.918 250H224.278ZM232.857 250C232.676 250 232.585 249.92 232.585 249.76C232.585 249.696 232.601 249.627 232.633 249.552L236.857 239.536C236.921 239.376 236.99 239.269 237.065 239.216C237.14 239.152 237.246 239.12 237.385 239.12H238.265C238.414 239.12 238.521 239.152 238.585 239.216C238.66 239.269 238.729 239.376 238.793 239.536L243.017 249.552C243.049 249.627 243.065 249.696 243.065 249.76C243.065 249.92 242.974 250 242.793 250H241.401C241.262 250 241.161 249.984 241.097 249.952C241.044 249.909 240.99 249.829 240.937 249.712L240.025 247.472H235.609L234.713 249.712C234.66 249.829 234.601 249.909 234.537 249.952C234.484 249.984 234.388 250 234.249 250H232.857ZM239.513 245.984L237.817 241.792L236.121 245.984H239.513ZM245.231 250C245.018 250 244.863 249.952 244.767 249.856C244.682 249.76 244.639 249.616 244.639 249.424V239.712C244.639 239.509 244.682 239.36 244.767 239.264C244.863 239.168 245.018 239.12 245.231 239.12H249.407C250.645 239.12 251.583 239.408 252.223 239.984C252.874 240.56 253.199 241.413 253.199 242.544C253.199 243.291 253.023 243.931 252.671 244.464C252.319 244.987 251.807 245.381 251.135 245.648L252.911 249.584C252.943 249.648 252.959 249.707 252.959 249.76C252.959 249.92 252.863 250 252.671 250H251.359C251.221 250 251.119 249.984 251.055 249.952C250.991 249.909 250.933 249.829 250.879 249.712L249.263 245.92H246.687V249.424C246.687 249.616 246.639 249.76 246.543 249.856C246.458 249.952 246.303 250 246.079 250H245.231ZM248.991 244.384C249.738 244.384 250.287 244.24 250.639 243.952C250.991 243.664 251.167 243.195 251.167 242.544C251.167 241.904 251.007 241.435 250.687 241.136C250.367 240.837 249.882 240.688 249.231 240.688H246.687V244.384H248.991Z" fill="white"/>
<rect x="33" y="71" width="40" height="40" rx="7" fill="#273038"/>
<rect x="83" y="71" width="40" height="40" rx="7" fill="#273038"/>
<rect x="133" y="71" width="40" height="40" rx="7" fill="#273038"/>
<rect x="183" y="71" width="40" height="40" rx="7" fill="#273038"/>
<rect x="233" y="71" width="40" height="40" rx="7" fill="#273038"/>
<path d="M40.248 47.36C39.112 47.36 37.992 47.24 36.888 47C35.8 46.744 34.928 46.392 34.272 45.944C34.064 45.8 33.96 45.672 33.96 45.56C33.96 45.448 33.992 45.352 34.056 45.272L34.848 44.024C34.944 43.88 35.032 43.808 35.112 43.808C35.192 43.808 35.296 43.848 35.424 43.928C36.016 44.28 36.704 44.568 37.488 44.792C38.272 45 39.064 45.104 39.864 45.104C40.952 45.104 41.768 44.928 42.312 44.576C42.872 44.208 43.152 43.624 43.152 42.824C43.152 42.344 43.048 41.96 42.84 41.672C42.632 41.384 42.328 41.136 41.928 40.928C41.528 40.72 40.88 40.44 39.984 40.088L39.432 39.872C38.392 39.456 37.528 39.056 36.84 38.672C36.168 38.288 35.608 37.784 35.16 37.16C34.712 36.536 34.488 35.776 34.488 34.88C34.488 33.424 35.04 32.304 36.144 31.52C37.264 30.72 38.728 30.32 40.536 30.32C41.64 30.32 42.592 30.424 43.392 30.632C44.208 30.84 44.912 31.16 45.504 31.592C45.696 31.736 45.792 31.872 45.792 32C45.792 32.096 45.76 32.184 45.696 32.264L44.928 33.512C44.832 33.656 44.752 33.728 44.688 33.728C44.624 33.728 44.52 33.68 44.376 33.584C43.352 32.928 42.08 32.6 40.56 32.6C39.552 32.6 38.792 32.784 38.28 33.152C37.768 33.52 37.512 34.104 37.512 34.904C37.512 35.4 37.616 35.8 37.824 36.104C38.048 36.392 38.368 36.64 38.784 36.848C39.2 37.056 39.872 37.336 40.8 37.688L41.4 37.928C42.568 38.392 43.48 38.824 44.136 39.224C44.792 39.608 45.296 40.096 45.648 40.688C46.016 41.264 46.2 42.008 46.2 42.92C46.2 44.296 45.68 45.384 44.64 46.184C43.616 46.968 42.152 47.36 40.248 47.36ZM54.2213 47.36C52.1413 47.36 50.5333 46.816 49.3973 45.728C48.2773 44.624 47.7173 43.128 47.7173 41.24C47.7173 39.352 48.2773 37.864 49.3973 36.776C50.5333 35.672 52.1413 35.12 54.2213 35.12C56.3013 35.12 57.9093 35.672 59.0453 36.776C60.1813 37.864 60.7493 39.352 60.7493 41.24C60.7493 43.128 60.1813 44.624 59.0453 45.728C57.9093 46.816 56.3013 47.36 54.2213 47.36ZM54.2213 45.104C55.3573 45.104 56.2213 44.776 56.8133 44.12C57.4053 43.464 57.7013 42.504 57.7013 41.24C57.7013 39.992 57.4053 39.048 56.8133 38.408C56.2213 37.752 55.3573 37.424 54.2213 37.424C53.1013 37.424 52.2373 37.752 51.6293 38.408C51.0373 39.048 50.7413 39.992 50.7413 41.24C50.7413 42.488 51.0373 43.448 51.6293 44.12C52.2373 44.776 53.1013 45.104 54.2213 45.104ZM64.0155 47C63.6955 47 63.4635 46.928 63.3195 46.784C63.1755 46.64 63.1035 46.424 63.1035 46.136V36.128C63.1035 35.888 63.1435 35.72 63.2235 35.624C63.3035 35.528 63.4715 35.48 63.7275 35.48H65.0955C65.2715 35.48 65.3995 35.52 65.4795 35.6C65.5595 35.664 65.6075 35.784 65.6235 35.96L65.6955 36.824C66.6395 35.688 67.8795 35.12 69.4155 35.12C70.1195 35.12 70.6555 35.24 71.0235 35.48C71.1195 35.544 71.1755 35.616 71.1915 35.696C71.2235 35.76 71.2235 35.84 71.1915 35.936L70.7595 37.376C70.7115 37.536 70.6235 37.616 70.4955 37.616L70.3035 37.568C69.9195 37.392 69.4795 37.304 68.9835 37.304C68.1675 37.304 67.4955 37.536 66.9675 38C66.4395 38.448 66.1755 39.064 66.1755 39.848V46.136C66.1755 46.424 66.1035 46.64 65.9595 46.784C65.8315 46.928 65.5995 47 65.2635 47H64.0155ZM78.3919 47.36C77.0319 47.36 76.0079 46.984 75.3199 46.232C74.6319 45.48 74.2879 44.44 74.2879 43.112V37.736H72.9199C72.5999 37.736 72.3839 37.68 72.2719 37.568C72.1759 37.456 72.1279 37.248 72.1279 36.944V36.296C72.1279 35.992 72.1759 35.784 72.2719 35.672C72.3839 35.544 72.5999 35.48 72.9199 35.48H74.2879V34.16C74.2879 33.824 74.3439 33.512 74.4559 33.224C74.5839 32.92 74.7759 32.544 75.0319 32.096C75.1279 31.904 75.2159 31.784 75.2959 31.736C75.3919 31.672 75.5519 31.64 75.7759 31.64H76.5679C76.8559 31.64 77.0559 31.712 77.1679 31.856C77.2959 31.984 77.3599 32.184 77.3599 32.456V35.48H80.1919C80.5119 35.48 80.7199 35.544 80.8159 35.672C80.9279 35.784 80.9839 35.992 80.9839 36.296V36.944C80.9839 37.248 80.9279 37.456 80.8159 37.568C80.7199 37.68 80.5119 37.736 80.1919 37.736H77.3599V43.016C77.3599 43.752 77.4879 44.288 77.7439 44.624C77.9999 44.944 78.4399 45.104 79.0639 45.104C79.4319 45.104 79.7439 45.064 79.9999 44.984C80.2559 44.888 80.5359 44.736 80.8399 44.528C80.9199 44.464 81.0079 44.432 81.1039 44.432C81.1999 44.432 81.2959 44.504 81.3919 44.648L82.0879 45.8C82.1519 45.88 82.1839 45.968 82.1839 46.064C82.1839 46.176 82.1039 46.288 81.9439 46.4C80.9519 47.04 79.7679 47.36 78.3919 47.36ZM90.2726 47.36C89.0246 47.36 87.8966 47.152 86.8886 46.736C85.8806 46.304 85.0726 45.648 84.4646 44.768C83.8726 43.872 83.5766 42.76 83.5766 41.432C83.5766 39.368 84.1286 37.8 85.2326 36.728C86.3366 35.656 87.9046 35.12 89.9366 35.12C91.9526 35.12 93.4726 35.64 94.4966 36.68C95.5366 37.72 96.0566 39.224 96.0566 41.192C96.0566 41.752 95.8006 42.032 95.2886 42.032H86.4806C86.4806 43.088 86.8486 43.904 87.5846 44.48C88.3206 45.04 89.3446 45.32 90.6566 45.32C91.9206 45.32 93.0566 45.032 94.0646 44.456C94.1766 44.392 94.2646 44.36 94.3286 44.36C94.4406 44.36 94.5286 44.432 94.5926 44.576L95.1686 45.608C95.2166 45.704 95.2406 45.792 95.2406 45.872C95.2406 45.984 95.1686 46.088 95.0246 46.184C94.3686 46.584 93.6566 46.88 92.8886 47.072C92.1366 47.264 91.2646 47.36 90.2726 47.36ZM93.2726 40.256C93.2726 39.264 92.9926 38.488 92.4326 37.928C91.8886 37.368 91.0646 37.088 89.9606 37.088C88.8406 37.088 87.9766 37.376 87.3686 37.952C86.7766 38.528 86.4806 39.296 86.4806 40.256H93.2726ZM103.056 47.36C101.488 47.36 100.24 46.888 99.3124 45.944C98.3844 44.984 97.9204 43.64 97.9204 41.912C97.9204 40.568 98.2164 39.384 98.8084 38.36C99.4004 37.32 100.24 36.52 101.328 35.96C102.432 35.4 103.712 35.12 105.168 35.12C107.2 35.12 108.92 35.6 110.328 36.56V46.352C110.328 46.592 110.272 46.76 110.16 46.856C110.064 46.952 109.888 47 109.632 47H108.312C108.136 47 108 46.968 107.904 46.904C107.824 46.824 107.768 46.704 107.736 46.544L107.544 45.608C107.048 46.216 106.432 46.664 105.696 46.952C104.976 47.224 104.096 47.36 103.056 47.36ZM104.208 45.176C105.056 45.176 105.8 44.928 106.44 44.432C107.096 43.936 107.424 43.28 107.424 42.464V37.784C107.088 37.608 106.744 37.488 106.392 37.424C106.056 37.344 105.64 37.304 105.144 37.304C103.88 37.304 102.864 37.704 102.096 38.504C101.328 39.304 100.944 40.408 100.944 41.816C100.944 42.968 101.208 43.816 101.736 44.36C102.28 44.904 103.104 45.176 104.208 45.176ZM114.078 47C113.758 47 113.526 46.928 113.382 46.784C113.238 46.64 113.166 46.424 113.166 46.136V36.128C113.166 35.888 113.206 35.72 113.286 35.624C113.366 35.528 113.534 35.48 113.79 35.48H115.158C115.334 35.48 115.462 35.52 115.542 35.6C115.622 35.664 115.67 35.784 115.686 35.96L115.758 36.824C116.702 35.688 117.942 35.12 119.478 35.12C120.182 35.12 120.718 35.24 121.086 35.48C121.182 35.544 121.238 35.616 121.254 35.696C121.286 35.76 121.286 35.84 121.254 35.936L120.822 37.376C120.774 37.536 120.686 37.616 120.558 37.616L120.366 37.568C119.982 37.392 119.542 37.304 119.046 37.304C118.23 37.304 117.558 37.536 117.03 38C116.502 38.448 116.238 39.064 116.238 39.848V46.136C116.238 46.424 116.166 46.64 116.022 46.784C115.894 46.928 115.662 47 115.326 47H114.078ZM133.414 47C133.094 47 132.862 46.928 132.718 46.784C132.574 46.64 132.502 46.424 132.502 46.136V36.128C132.502 35.888 132.542 35.72 132.622 35.624C132.702 35.528 132.87 35.48 133.126 35.48H134.494C134.846 35.48 135.03 35.64 135.046 35.96L135.094 36.92C136.182 35.72 137.742 35.12 139.774 35.12C141.07 35.12 142.11 35.472 142.894 36.176C143.694 36.864 144.094 37.904 144.094 39.296V46.136C144.094 46.424 144.022 46.64 143.878 46.784C143.75 46.928 143.526 47 143.206 47H141.934C141.614 47 141.382 46.928 141.238 46.784C141.094 46.64 141.022 46.424 141.022 46.136V39.488C141.022 38.704 140.838 38.152 140.47 37.832C140.118 37.496 139.542 37.328 138.742 37.328C137.894 37.328 137.15 37.56 136.51 38.024C135.886 38.472 135.574 39.056 135.574 39.776V46.136C135.574 46.424 135.502 46.64 135.358 46.784C135.23 46.928 134.998 47 134.662 47H133.414ZM151.383 33.68C151.047 33.68 150.879 33.552 150.879 33.296C150.879 33.168 150.895 33.072 150.927 33.008L152.055 29.864C152.151 29.64 152.247 29.488 152.343 29.408C152.455 29.328 152.655 29.288 152.943 29.288H154.719C155.119 29.288 155.319 29.424 155.319 29.696C155.319 29.808 155.287 29.928 155.223 30.056L153.639 33.152C153.527 33.36 153.407 33.504 153.279 33.584C153.151 33.648 152.935 33.68 152.631 33.68H151.383ZM151.047 47.36C149.735 47.36 148.679 47 147.879 46.28C147.079 45.544 146.679 44.456 146.679 43.016V36.368C146.679 36.064 146.743 35.84 146.871 35.696C147.015 35.552 147.247 35.48 147.567 35.48H148.839C149.159 35.48 149.391 35.552 149.535 35.696C149.679 35.84 149.751 36.064 149.751 36.368V42.944C149.751 43.712 149.951 44.28 150.351 44.648C150.751 45 151.343 45.176 152.127 45.176C152.959 45.176 153.655 44.944 154.215 44.48C154.775 44.016 155.055 43.416 155.055 42.68V36.368C155.055 36.064 155.127 35.84 155.271 35.696C155.415 35.552 155.647 35.48 155.967 35.48H157.215C157.535 35.48 157.767 35.552 157.911 35.696C158.055 35.84 158.127 36.064 158.127 36.368V46.352C158.127 46.608 158.087 46.784 158.007 46.88C157.927 46.96 157.759 47 157.503 47H156.159C155.983 47 155.855 46.968 155.775 46.904C155.695 46.824 155.647 46.704 155.631 46.544L155.535 45.536C154.447 46.752 152.951 47.36 151.047 47.36ZM161.867 47C161.547 47 161.315 46.928 161.171 46.784C161.027 46.64 160.955 46.424 160.955 46.136V36.128C160.955 35.888 160.995 35.72 161.075 35.624C161.155 35.528 161.323 35.48 161.579 35.48H162.851C163.027 35.48 163.155 35.52 163.235 35.6C163.315 35.664 163.363 35.784 163.379 35.96L163.451 36.968C163.915 36.376 164.443 35.92 165.035 35.6C165.643 35.28 166.363 35.12 167.195 35.12C167.899 35.12 168.507 35.28 169.019 35.6C169.547 35.904 169.931 36.36 170.171 36.968C171.051 35.736 172.323 35.12 173.987 35.12C175.123 35.12 176.019 35.464 176.675 36.152C177.347 36.84 177.683 37.864 177.683 39.224V46.136C177.683 46.424 177.611 46.64 177.467 46.784C177.339 46.928 177.107 47 176.771 47H175.715C175.395 47 175.163 46.928 175.019 46.784C174.875 46.64 174.803 46.424 174.803 46.136V39.392C174.803 38.656 174.643 38.128 174.323 37.808C174.019 37.488 173.555 37.328 172.931 37.328C172.275 37.328 171.739 37.544 171.323 37.976C170.923 38.408 170.723 38.992 170.723 39.728V46.136C170.723 46.424 170.651 46.64 170.507 46.784C170.363 46.928 170.131 47 169.811 47H168.827C168.507 47 168.275 46.928 168.131 46.784C167.987 46.64 167.915 46.424 167.915 46.136V39.272C167.915 38.6 167.771 38.112 167.483 37.808C167.211 37.488 166.771 37.328 166.163 37.328C165.475 37.328 164.915 37.56 164.483 38.024C164.051 38.472 163.835 39.064 163.835 39.8V46.136C163.835 46.424 163.763 46.64 163.619 46.784C163.491 46.928 163.259 47 162.923 47H161.867ZM186.601 47.36C185.353 47.36 184.225 47.152 183.217 46.736C182.209 46.304 181.401 45.648 180.793 44.768C180.201 43.872 179.905 42.76 179.905 41.432C179.905 39.368 180.457 37.8 181.561 36.728C182.665 35.656 184.233 35.12 186.265 35.12C188.281 35.12 189.801 35.64 190.825 36.68C191.865 37.72 192.385 39.224 192.385 41.192C192.385 41.752 192.129 42.032 191.617 42.032H182.809C182.809 43.088 183.177 43.904 183.913 44.48C184.649 45.04 185.673 45.32 186.985 45.32C188.249 45.32 189.385 45.032 190.393 44.456C190.505 44.392 190.593 44.36 190.657 44.36C190.769 44.36 190.857 44.432 190.921 44.576L191.497 45.608C191.545 45.704 191.569 45.792 191.569 45.872C191.569 45.984 191.497 46.088 191.353 46.184C190.697 46.584 189.985 46.88 189.217 47.072C188.465 47.264 187.593 47.36 186.601 47.36ZM189.601 40.256C189.601 39.264 189.321 38.488 188.761 37.928C188.217 37.368 187.393 37.088 186.289 37.088C185.169 37.088 184.305 37.376 183.697 37.952C183.105 38.528 182.809 39.296 182.809 40.256H189.601ZM195.641 47C195.321 47 195.089 46.928 194.945 46.784C194.801 46.64 194.729 46.424 194.729 46.136V36.128C194.729 35.888 194.769 35.72 194.849 35.624C194.929 35.528 195.097 35.48 195.353 35.48H196.721C196.897 35.48 197.025 35.52 197.105 35.6C197.185 35.664 197.233 35.784 197.249 35.96L197.321 36.824C198.265 35.688 199.505 35.12 201.041 35.12C201.745 35.12 202.281 35.24 202.649 35.48C202.745 35.544 202.801 35.616 202.817 35.696C202.849 35.76 202.849 35.84 202.817 35.936L202.385 37.376C202.337 37.536 202.249 37.616 202.121 37.616L201.929 37.568C201.545 37.392 201.105 37.304 200.609 37.304C199.793 37.304 199.121 37.536 198.593 38C198.065 38.448 197.801 39.064 197.801 39.848V46.136C197.801 46.424 197.729 46.64 197.585 46.784C197.457 46.928 197.225 47 196.889 47H195.641ZM210.737 47.36C208.657 47.36 207.049 46.816 205.913 45.728C204.793 44.624 204.233 43.128 204.233 41.24C204.233 39.352 204.793 37.864 205.913 36.776C207.049 35.672 208.657 35.12 210.737 35.12C212.817 35.12 214.425 35.672 215.561 36.776C216.697 37.864 217.265 39.352 217.265 41.24C217.265 43.128 216.697 44.624 215.561 45.728C214.425 46.816 212.817 47.36 210.737 47.36ZM210.737 45.104C211.873 45.104 212.737 44.776 213.329 44.12C213.921 43.464 214.217 42.504 214.217 41.24C214.217 39.992 213.921 39.048 213.329 38.408C212.737 37.752 211.873 37.424 210.737 37.424C209.617 37.424 208.753 37.752 208.145 38.408C207.553 39.048 207.257 39.992 207.257 41.24C207.257 42.488 207.553 43.448 208.145 44.12C208.753 44.776 209.617 45.104 210.737 45.104ZM224.002 47.36C223.042 47.36 222.106 47.256 221.194 47.048C220.282 46.856 219.498 46.56 218.842 46.16C218.634 46.048 218.53 45.928 218.53 45.8C218.53 45.704 218.562 45.616 218.626 45.536L219.298 44.36C219.378 44.216 219.458 44.144 219.538 44.144C219.618 44.144 219.722 44.184 219.85 44.264C220.33 44.552 220.922 44.792 221.626 44.984C222.33 45.176 222.978 45.272 223.57 45.272C224.482 45.272 225.13 45.184 225.514 45.008C225.914 44.816 226.114 44.48 226.114 44C226.114 43.728 226.034 43.512 225.874 43.352C225.73 43.176 225.506 43.024 225.202 42.896C224.898 42.768 224.394 42.592 223.69 42.368C223.69 42.368 223.426 42.28 222.898 42.104C221.986 41.8 221.258 41.504 220.714 41.216C220.17 40.928 219.746 40.568 219.442 40.136C219.154 39.688 219.01 39.128 219.01 38.456C219.01 37.368 219.466 36.544 220.378 35.984C221.306 35.408 222.506 35.12 223.978 35.12C225.77 35.12 227.314 35.504 228.61 36.272C228.818 36.384 228.922 36.504 228.922 36.632C228.922 36.712 228.882 36.816 228.802 36.944L228.154 37.976C228.058 38.12 227.978 38.192 227.914 38.192C227.85 38.192 227.754 38.152 227.626 38.072C227.21 37.816 226.706 37.616 226.114 37.472C225.538 37.312 224.954 37.232 224.362 37.232C223.562 37.232 222.97 37.32 222.586 37.496C222.218 37.656 222.034 37.976 222.034 38.456C222.034 38.872 222.25 39.2 222.682 39.44C223.13 39.68 223.898 39.968 224.986 40.304L225.778 40.544C227.026 40.944 227.898 41.416 228.394 41.96C228.906 42.504 229.162 43.184 229.162 44C229.162 44.992 228.722 45.8 227.842 46.424C226.978 47.048 225.698 47.36 224.002 47.36Z" fill="#CCDAE7"/>
<path d="M42.86 98C42.5933 98 42.4067 97.9533 42.3 97.86C42.1933 97.7533 42.14 97.58 42.14 97.34V96.76C42.14 96.5067 42.1933 96.3267 42.3 96.22C42.4067 96.1133 42.5933 96.06 42.86 96.06H44.82V87.2L43.1 88.24C42.9933 88.3067 42.9 88.34 42.82 88.34C42.7 88.34 42.6 88.2733 42.52 88.14L41.88 87.14C41.8267 87.0467 41.8 86.96 41.8 86.88C41.8 86.7467 41.8733 86.64 42.02 86.56L45.32 84.58C45.4133 84.5133 45.5067 84.4667 45.6 84.44C45.6933 84.4133 45.82 84.4 45.98 84.4H46.64C47.1467 84.4 47.4 84.6467 47.4 85.14V96.06H49.36C49.6267 96.06 49.8133 96.1133 49.92 96.22C50.0267 96.3267 50.08 96.5067 50.08 96.76V97.34C50.08 97.58 50.0267 97.7533 49.92 97.86C49.8133 97.9533 49.6267 98 49.36 98H42.86ZM57.8531 98.3C55.6665 98.3 54.0131 97.6933 52.8931 96.48C51.7865 95.2533 51.2331 93.4933 51.2331 91.2C51.2331 88.9067 51.7865 87.1533 52.8931 85.94C54.0131 84.7133 55.6665 84.1 57.8531 84.1C60.0265 84.1 61.6731 84.7133 62.7931 85.94C63.9131 87.1667 64.4731 88.92 64.4731 91.2C64.4731 93.48 63.9131 95.2333 62.7931 96.46C61.6731 97.6867 60.0265 98.3 57.8531 98.3ZM60.1131 86.6C59.5398 86.2 58.7865 86 57.8531 86C56.4665 86 55.4331 86.4333 54.7531 87.3C54.0865 88.1667 53.7531 89.4667 53.7531 91.2C53.7531 92.5733 54.0331 93.6333 54.5931 94.38L60.1131 86.6ZM57.8531 96.42C59.2398 96.42 60.2665 95.9867 60.9331 95.12C61.5998 94.2533 61.9331 92.9467 61.9331 91.2C61.9331 89.8533 61.6665 88.8 61.1331 88.04L55.5931 95.86C56.1931 96.2333 56.9465 96.42 57.8531 96.42Z" fill="white"/>
<path d="M98.98 98C98.7133 98 98.52 97.9467 98.4 97.84C98.2933 97.7333 98.24 97.56 98.24 97.32V95.04H91.9C91.5533 95.04 91.38 94.88 91.38 94.56V93.74C91.38 93.5533 91.4 93.4133 91.44 93.32C91.48 93.2133 91.5533 93.0867 91.66 92.94L98.4 84.78C98.52 84.6333 98.6267 84.5333 98.72 84.48C98.8133 84.4267 98.96 84.4 99.16 84.4H100.04C100.307 84.4 100.5 84.46 100.62 84.58C100.74 84.7 100.8 84.8867 100.8 85.14V93.1H102.2C102.467 93.1 102.653 93.16 102.76 93.28C102.867 93.3867 102.92 93.5667 102.92 93.82V94.36C102.92 94.6 102.867 94.7733 102.76 94.88C102.653 94.9867 102.467 95.04 102.2 95.04H100.8V97.32C100.8 97.56 100.74 97.7333 100.62 97.84C100.513 97.9467 100.32 98 100.04 98H98.98ZM98.66 93.1V87.42L94.06 93.1H98.66ZM109.045 98.3C106.885 98.3 105.291 97.9533 104.265 97.26C104.145 97.18 104.085 97.0867 104.085 96.98C104.085 96.9 104.118 96.8067 104.185 96.7L104.765 95.72C104.845 95.5867 104.918 95.52 104.985 95.52C105.038 95.52 105.131 95.5533 105.265 95.62C105.705 95.86 106.211 96.0533 106.785 96.2C107.371 96.3467 108.005 96.42 108.685 96.42C109.778 96.42 110.578 96.2133 111.085 95.8C111.605 95.3733 111.865 94.7867 111.865 94.04C111.865 92.6533 111.018 91.96 109.325 91.96H107.645C107.378 91.96 107.185 91.9067 107.065 91.8C106.958 91.68 106.905 91.4933 106.905 91.24V90.72C106.905 90.48 106.958 90.3067 107.065 90.2C107.185 90.0933 107.378 90.04 107.645 90.04H109.285C110.005 90.04 110.545 89.8533 110.905 89.48C111.265 89.0933 111.445 88.6067 111.445 88.02C111.445 86.6733 110.498 86 108.605 86C107.431 86 106.398 86.2467 105.505 86.74C105.371 86.8067 105.278 86.84 105.225 86.84C105.158 86.84 105.085 86.78 105.005 86.66L104.445 85.72C104.378 85.6133 104.345 85.52 104.345 85.44C104.345 85.3333 104.405 85.24 104.525 85.16C104.991 84.8267 105.611 84.5667 106.385 84.38C107.158 84.1933 108.018 84.1 108.965 84.1C109.991 84.1 110.878 84.26 111.625 84.58C112.385 84.9 112.965 85.3533 113.365 85.94C113.778 86.5133 113.985 87.1867 113.985 87.96C113.985 88.5867 113.831 89.1667 113.525 89.7C113.231 90.2333 112.805 90.6467 112.245 90.94C112.965 91.2067 113.498 91.62 113.845 92.18C114.205 92.7267 114.385 93.3733 114.385 94.12C114.385 95.3733 113.918 96.3867 112.985 97.16C112.065 97.92 110.751 98.3 109.045 98.3Z" fill="white"/>
<path d="M147.38 98.3C145.62 98.3 144.247 97.94 143.26 97.22C142.273 96.5 141.78 95.4867 141.78 94.18C141.78 93.42 141.98 92.7533 142.38 92.18C142.793 91.5933 143.353 91.1733 144.06 90.92C143.433 90.64 142.96 90.26 142.64 89.78C142.32 89.3 142.16 88.74 142.16 88.1C142.16 86.82 142.607 85.8333 143.5 85.14C144.407 84.4467 145.7 84.1 147.38 84.1C149.06 84.1 150.347 84.4467 151.24 85.14C152.133 85.8333 152.58 86.82 152.58 88.1C152.58 88.74 152.42 89.3 152.1 89.78C151.78 90.26 151.313 90.64 150.7 90.92C151.407 91.1733 151.96 91.5933 152.36 92.18C152.773 92.7533 152.98 93.42 152.98 94.18C152.98 95.4867 152.48 96.5 151.48 97.22C150.493 97.94 149.127 98.3 147.38 98.3ZM147.38 90.02C148.247 90.02 148.907 89.8733 149.36 89.58C149.813 89.2733 150.04 88.78 150.04 88.1C150.04 87.3533 149.82 86.82 149.38 86.5C148.953 86.1667 148.287 86 147.38 86C146.473 86 145.8 86.1667 145.36 86.5C144.92 86.82 144.7 87.3533 144.7 88.1C144.7 88.78 144.927 89.2733 145.38 89.58C145.833 89.8733 146.5 90.02 147.38 90.02ZM147.38 96.42C149.42 96.42 150.44 95.6733 150.44 94.18C150.44 92.6467 149.42 91.88 147.38 91.88C145.327 91.88 144.3 92.6467 144.3 94.18C144.3 95.6733 145.327 96.42 147.38 96.42ZM156.234 98C156.047 98 155.954 97.92 155.954 97.76C155.954 97.68 155.981 97.5933 156.034 97.5L161.854 86.36H154.994C154.741 86.36 154.567 86.3067 154.474 86.2C154.381 86.0933 154.334 85.9133 154.334 85.66V85.06C154.334 84.82 154.381 84.6533 154.474 84.56C154.567 84.4533 154.741 84.4 154.994 84.4H164.174C164.494 84.4 164.714 84.4533 164.834 84.56C164.967 84.6667 165.034 84.8533 165.034 85.12C165.034 85.2933 164.987 85.4867 164.894 85.7C164.814 85.9133 164.721 86.1133 164.614 86.3C164.507 86.4867 164.441 86.6133 164.414 86.68L158.674 97.72C158.621 97.8267 158.554 97.9 158.474 97.94C158.407 97.98 158.307 98 158.174 98H156.234Z" fill="white"/>
<path d="M192.48 98C192.04 98 191.82 97.7733 191.82 97.32V96.54C191.82 95.6867 192.147 94.8467 192.8 94.02C193.467 93.1933 194.46 92.4067 195.78 91.66C196.727 91.1267 197.42 90.7067 197.86 90.4C198.3 90.08 198.62 89.7467 198.82 89.4C199.033 89.04 199.14 88.6 199.14 88.08C199.14 87.4 198.9 86.8867 198.42 86.54C197.94 86.18 197.267 86 196.4 86C195.773 86 195.18 86.08 194.62 86.24C194.073 86.3867 193.6 86.5733 193.2 86.8C193.067 86.8667 192.98 86.9 192.94 86.9C192.86 86.9 192.78 86.84 192.7 86.72L192.14 85.74C192.073 85.6333 192.04 85.54 192.04 85.46C192.04 85.3533 192.1 85.26 192.22 85.18C192.687 84.8467 193.32 84.5867 194.12 84.4C194.92 84.2 195.793 84.1 196.74 84.1C198.22 84.1 199.413 84.44 200.32 85.12C201.227 85.7867 201.68 86.7333 201.68 87.96C201.68 88.9867 201.36 89.8533 200.72 90.56C200.093 91.2667 199.1 91.9933 197.74 92.74C196.74 93.26 195.947 93.8067 195.36 94.38C194.773 94.9533 194.46 95.5133 194.42 96.06H200.9C201.167 96.06 201.353 96.12 201.46 96.24C201.567 96.3467 201.62 96.5267 201.62 96.78V97.32C201.62 97.56 201.567 97.7333 201.46 97.84C201.353 97.9467 201.167 98 200.9 98H192.48ZM208.244 98.3C206.084 98.3 204.491 97.9533 203.464 97.26C203.344 97.18 203.284 97.0867 203.284 96.98C203.284 96.9 203.317 96.8067 203.384 96.7L203.964 95.72C204.044 95.5867 204.117 95.52 204.184 95.52C204.237 95.52 204.331 95.5533 204.464 95.62C204.904 95.86 205.411 96.0533 205.984 96.2C206.571 96.3467 207.204 96.42 207.884 96.42C208.977 96.42 209.777 96.2133 210.284 95.8C210.804 95.3733 211.064 94.7867 211.064 94.04C211.064 92.6533 210.217 91.96 208.524 91.96H206.844C206.577 91.96 206.384 91.9067 206.264 91.8C206.157 91.68 206.104 91.4933 206.104 91.24V90.72C206.104 90.48 206.157 90.3067 206.264 90.2C206.384 90.0933 206.577 90.04 206.844 90.04H208.484C209.204 90.04 209.744 89.8533 210.104 89.48C210.464 89.0933 210.644 88.6067 210.644 88.02C210.644 86.6733 209.697 86 207.804 86C206.631 86 205.597 86.2467 204.704 86.74C204.571 86.8067 204.477 86.84 204.424 86.84C204.357 86.84 204.284 86.78 204.204 86.66L203.644 85.72C203.577 85.6133 203.544 85.52 203.544 85.44C203.544 85.3333 203.604 85.24 203.724 85.16C204.191 84.8267 204.811 84.5667 205.584 84.38C206.357 84.1933 207.217 84.1 208.164 84.1C209.191 84.1 210.077 84.26 210.824 84.58C211.584 84.9 212.164 85.3533 212.564 85.94C212.977 86.5133 213.184 87.1867 213.184 87.96C213.184 88.5867 213.031 89.1667 212.724 89.7C212.431 90.2333 212.004 90.6467 211.444 90.94C212.164 91.2067 212.697 91.62 213.044 92.18C213.404 92.7267 213.584 93.3733 213.584 94.12C213.584 95.3733 213.117 96.3867 212.184 97.16C211.264 97.92 209.951 98.3 208.244 98.3Z" fill="white"/>
<path d="M247.38 98.3C245.62 98.3 244.247 97.94 243.26 97.22C242.273 96.5 241.78 95.4867 241.78 94.18C241.78 93.42 241.98 92.7533 242.38 92.18C242.793 91.5933 243.353 91.1733 244.06 90.92C243.433 90.64 242.96 90.26 242.64 89.78C242.32 89.3 242.16 88.74 242.16 88.1C242.16 86.82 242.607 85.8333 243.5 85.14C244.407 84.4467 245.7 84.1 247.38 84.1C249.06 84.1 250.347 84.4467 251.24 85.14C252.133 85.8333 252.58 86.82 252.58 88.1C252.58 88.74 252.42 89.3 252.1 89.78C251.78 90.26 251.313 90.64 250.7 90.92C251.407 91.1733 251.96 91.5933 252.36 92.18C252.773 92.7533 252.98 93.42 252.98 94.18C252.98 95.4867 252.48 96.5 251.48 97.22C250.493 97.94 249.127 98.3 247.38 98.3ZM247.38 90.02C248.247 90.02 248.907 89.8733 249.36 89.58C249.813 89.2733 250.04 88.78 250.04 88.1C250.04 87.3533 249.82 86.82 249.38 86.5C248.953 86.1667 248.287 86 247.38 86C246.473 86 245.8 86.1667 245.36 86.5C244.92 86.82 244.7 87.3533 244.7 88.1C244.7 88.78 244.927 89.2733 245.38 89.58C245.833 89.8733 246.5 90.02 247.38 90.02ZM247.38 96.42C249.42 96.42 250.44 95.6733 250.44 94.18C250.44 92.6467 249.42 91.88 247.38 91.88C245.327 91.88 244.3 92.6467 244.3 94.18C244.3 95.6733 245.327 96.42 247.38 96.42ZM255.614 98C255.347 98 255.161 97.9533 255.054 97.86C254.947 97.7533 254.894 97.58 254.894 97.34V96.76C254.894 96.5067 254.947 96.3267 255.054 96.22C255.161 96.1133 255.347 96.06 255.614 96.06H257.574V87.2L255.854 88.24C255.747 88.3067 255.654 88.34 255.574 88.34C255.454 88.34 255.354 88.2733 255.274 88.14L254.634 87.14C254.581 87.0467 254.554 86.96 254.554 86.88C254.554 86.7467 254.627 86.64 254.774 86.56L258.074 84.58C258.167 84.5133 258.261 84.4667 258.354 84.44C258.447 84.4133 258.574 84.4 258.734 84.4H259.394C259.901 84.4 260.154 84.6467 260.154 85.14V96.06H262.114C262.381 96.06 262.567 96.1133 262.674 96.22C262.781 96.3267 262.834 96.5067 262.834 96.76V97.34C262.834 97.58 262.781 97.7533 262.674 97.86C262.567 97.9533 262.381 98 262.114 98H255.614Z" fill="white"/>
</svg>
